ISO-10303-21;
HEADER;
/* Generated by software containing ST-Developer
 * from STEP Tools, Inc. (www.steptools.com) 
 */

FILE_DESCRIPTION(
/* description */ (''),
/* implementation_level */ '2;1');

FILE_NAME(
/* name */ 'Boden.stp',
/* time_stamp */ '2026-07-17T09:27:52+02:00',
/* author */ ('PascalHelfenstein'),
/* organization */ (''),
/* preprocessor_version */ 'ST-DEVELOPER v20.1',
/* originating_system */ 'Autodesk Inventor 2027',
/* authorisation */ '');

FILE_SCHEMA (('AUTOMOTIVE_DESIGN { 1 0 10303 214 3 1 1 }'));
ENDSEC;

DATA;
#10=MECHANICAL_DESIGN_GEOMETRIC_PRESENTATION_REPRESENTATION('',(#13),#1850);
#11=SHAPE_REPRESENTATION_RELATIONSHIP('SRR','None',#1857,#12);
#12=ADVANCED_BREP_SHAPE_REPRESENTATION('',(#14),#1849);
#13=STYLED_ITEM('',(#1866),#14);
#14=MANIFOLD_SOLID_BREP('Volumenk\X\F6rper1',#981);
#15=(
BOUNDED_SURFACE()
B_SPLINE_SURFACE(2,2,((#1598,#1599,#1600,#1601,#1602,#1603,#1604),(#1605,
#1606,#1607,#1608,#1609,#1610,#1611),(#1612,#1613,#1614,#1615,#1616,#1617,
#1618)),.UNSPECIFIED.,.F.,.F.,.F.)
B_SPLINE_SURFACE_WITH_KNOTS((3,3),(3,2,2,3),(0.,1.5707963267949),(-1.0471975511966,
0.174532925199434,1.39626340159546,2.6179938779915),.UNSPECIFIED.)
GEOMETRIC_REPRESENTATION_ITEM()
RATIONAL_B_SPLINE_SURFACE(((1.,0.819152044288992,1.,0.819152044288992,1.,
0.819152044288992,1.),(0.707106781186541,0.579227965339564,0.707106781186541,
0.579227965339564,0.707106781186541,0.579227965339564,0.707106781186541),
(1.,0.819152044288992,1.,0.819152044288992,1.,0.819152044288992,1.)))
REPRESENTATION_ITEM('')
SURFACE()
);
#16=(
BOUNDED_SURFACE()
B_SPLINE_SURFACE(2,2,((#1642,#1643,#1644,#1645,#1646,#1647,#1648),(#1649,
#1650,#1651,#1652,#1653,#1654,#1655),(#1656,#1657,#1658,#1659,#1660,#1661,
#1662)),.UNSPECIFIED.,.F.,.F.,.F.)
B_SPLINE_SURFACE_WITH_KNOTS((3,3),(3,2,2,3),(0.,1.5707963267949),(-2.6179938779915,
-1.39626340159546,-0.174532925199432,1.0471975511966),.UNSPECIFIED.)
GEOMETRIC_REPRESENTATION_ITEM()
RATIONAL_B_SPLINE_SURFACE(((1.,0.819152044288991,1.,0.819152044288991,1.,
0.819152044288991,1.),(0.707106781186541,0.579227965339564,0.707106781186541,
0.579227965339564,0.707106781186541,0.579227965339564,0.707106781186541),
(1.,0.819152044288991,1.,0.819152044288991,1.,0.819152044288991,1.)))
REPRESENTATION_ITEM('')
SURFACE()
);
#17=(
BOUNDED_SURFACE()
B_SPLINE_SURFACE(2,2,((#1686,#1687,#1688,#1689,#1690,#1691,#1692),(#1693,
#1694,#1695,#1696,#1697,#1698,#1699),(#1700,#1701,#1702,#1703,#1704,#1705,
#1706)),.UNSPECIFIED.,.F.,.F.,.F.)
B_SPLINE_SURFACE_WITH_KNOTS((3,3),(3,2,2,3),(0.,1.5707963267949),(-1.83259571459405,
-0.610865238198015,0.610865238198017,1.83259571459405),.UNSPECIFIED.)
GEOMETRIC_REPRESENTATION_ITEM()
RATIONAL_B_SPLINE_SURFACE(((1.,0.819152044288991,1.,0.819152044288991,1.,
0.819152044288991,1.),(0.707106781186544,0.579227965339566,0.707106781186544,
0.579227965339566,0.707106781186544,0.579227965339566,0.707106781186544),
(1.,0.819152044288991,1.,0.819152044288991,1.,0.819152044288991,1.)))
REPRESENTATION_ITEM('')
SURFACE()
);
#18=(
BOUNDED_SURFACE()
B_SPLINE_SURFACE(2,2,((#1730,#1731,#1732,#1733,#1734,#1735,#1736),(#1737,
#1738,#1739,#1740,#1741,#1742,#1743),(#1744,#1745,#1746,#1747,#1748,#1749,
#1750)),.UNSPECIFIED.,.F.,.F.,.F.)
B_SPLINE_SURFACE_WITH_KNOTS((3,3),(3,2,2,3),(0.,1.5707963267949),(-1.83259571459405,
-0.610865238198016,0.610865238198016,1.83259571459405),.UNSPECIFIED.)
GEOMETRIC_REPRESENTATION_ITEM()
RATIONAL_B_SPLINE_SURFACE(((1.,0.819152044288991,1.,0.819152044288991,1.,
0.819152044288991,1.),(0.707106781186544,0.579227965339566,0.707106781186544,
0.579227965339566,0.707106781186544,0.579227965339566,0.707106781186544),
(1.,0.819152044288991,1.,0.819152044288991,1.,0.819152044288991,1.)))
REPRESENTATION_ITEM('')
SURFACE()
);
#19=TOROIDAL_SURFACE('',#1045,6.,2.);
#20=TOROIDAL_SURFACE('',#1052,6.,2.);
#21=TOROIDAL_SURFACE('',#1059,6.,2.);
#22=TOROIDAL_SURFACE('',#1065,6.,2.);
#23=TOROIDAL_SURFACE('',#1072,6.,2.);
#24=TOROIDAL_SURFACE('',#1078,6.,2.);
#25=TOROIDAL_SURFACE('',#1085,6.,2.);
#26=TOROIDAL_SURFACE('',#1091,6.,2.);
#27=CYLINDRICAL_SURFACE('',#1028,2.);
#28=CYLINDRICAL_SURFACE('',#1033,2.);
#29=CYLINDRICAL_SURFACE('',#1038,2.);
#30=CYLINDRICAL_SURFACE('',#1043,2.);
#31=CYLINDRICAL_SURFACE('',#1050,2.);
#32=CYLINDRICAL_SURFACE('',#1063,2.);
#33=CYLINDRICAL_SURFACE('',#1076,2.);
#34=CYLINDRICAL_SURFACE('',#1089,2.);
#35=CYLINDRICAL_SURFACE('',#1098,4.);
#36=CYLINDRICAL_SURFACE('',#1099,4.);
#37=CYLINDRICAL_SURFACE('',#1100,4.);
#38=CYLINDRICAL_SURFACE('',#1102,4.);
#39=CYLINDRICAL_SURFACE('',#1103,4.);
#40=CYLINDRICAL_SURFACE('',#1104,4.);
#41=CYLINDRICAL_SURFACE('',#1110,4.);
#42=CYLINDRICAL_SURFACE('',#1113,4.);
#43=CYLINDRICAL_SURFACE('',#1116,4.);
#44=CYLINDRICAL_SURFACE('',#1119,4.);
#45=CYLINDRICAL_SURFACE('',#1122,4.);
#46=CYLINDRICAL_SURFACE('',#1123,4.);
#47=CYLINDRICAL_SURFACE('',#1124,4.);
#48=CYLINDRICAL_SURFACE('',#1125,4.);
#49=CYLINDRICAL_SURFACE('',#1127,4.);
#50=CYLINDRICAL_SURFACE('',#1128,4.);
#51=CYLINDRICAL_SURFACE('',#1130,1.75);
#52=CYLINDRICAL_SURFACE('',#1132,1.75);
#53=CYLINDRICAL_SURFACE('',#1134,1.75);
#54=CYLINDRICAL_SURFACE('',#1136,1.75);
#55=FACE_BOUND('',#144,.T.);
#56=FACE_BOUND('',#145,.T.);
#57=FACE_BOUND('',#146,.T.);
#58=FACE_BOUND('',#147,.T.);
#59=FACE_BOUND('',#148,.T.);
#60=FACE_BOUND('',#181,.T.);
#61=FACE_BOUND('',#182,.T.);
#62=FACE_BOUND('',#183,.T.);
#63=FACE_BOUND('',#184,.T.);
#64=FACE_BOUND('',#210,.T.);
#65=FACE_BOUND('',#211,.T.);
#66=FACE_BOUND('',#212,.T.);
#67=FACE_BOUND('',#213,.T.);
#68=PLANE('',#1008);
#69=PLANE('',#1097);
#70=PLANE('',#1101);
#71=PLANE('',#1105);
#72=PLANE('',#1112);
#73=PLANE('',#1115);
#74=PLANE('',#1118);
#75=PLANE('',#1121);
#76=PLANE('',#1126);
#77=PLANE('',#1129);
#78=PLANE('',#1138);
#79=PLANE('',#1139);
#80=PLANE('',#1140);
#81=PLANE('',#1141);
#82=PLANE('',#1142);
#83=FACE_OUTER_BOUND('',#142,.T.);
#84=FACE_OUTER_BOUND('',#143,.T.);
#85=FACE_OUTER_BOUND('',#149,.T.);
#86=FACE_OUTER_BOUND('',#150,.T.);
#87=FACE_OUTER_BOUND('',#151,.T.);
#88=FACE_OUTER_BOUND('',#152,.T.);
#89=FACE_OUTER_BOUND('',#153,.T.);
#90=FACE_OUTER_BOUND('',#154,.T.);
#91=FACE_OUTER_BOUND('',#155,.T.);
#92=FACE_OUTER_BOUND('',#156,.T.);
#93=FACE_OUTER_BOUND('',#157,.T.);
#94=FACE_OUTER_BOUND('',#158,.T.);
#95=FACE_OUTER_BOUND('',#159,.T.);
#96=FACE_OUTER_BOUND('',#160,.T.);
#97=FACE_OUTER_BOUND('',#161,.T.);
#98=FACE_OUTER_BOUND('',#162,.T.);
#99=FACE_OUTER_BOUND('',#163,.T.);
#100=FACE_OUTER_BOUND('',#164,.T.);
#101=FACE_OUTER_BOUND('',#165,.T.);
#102=FACE_OUTER_BOUND('',#166,.T.);
#103=FACE_OUTER_BOUND('',#167,.T.);
#104=FACE_OUTER_BOUND('',#168,.T.);
#105=FACE_OUTER_BOUND('',#169,.T.);
#106=FACE_OUTER_BOUND('',#170,.T.);
#107=FACE_OUTER_BOUND('',#171,.T.);
#108=FACE_OUTER_BOUND('',#172,.T.);
#109=FACE_OUTER_BOUND('',#173,.T.);
#110=FACE_OUTER_BOUND('',#174,.T.);
#111=FACE_OUTER_BOUND('',#175,.T.);
#112=FACE_OUTER_BOUND('',#176,.T.);
#113=FACE_OUTER_BOUND('',#177,.T.);
#114=FACE_OUTER_BOUND('',#178,.T.);
#115=FACE_OUTER_BOUND('',#179,.T.);
#116=FACE_OUTER_BOUND('',#180,.T.);
#117=FACE_OUTER_BOUND('',#185,.T.);
#118=FACE_OUTER_BOUND('',#186,.T.);
#119=FACE_OUTER_BOUND('',#187,.T.);
#120=FACE_OUTER_BOUND('',#188,.T.);
#121=FACE_OUTER_BOUND('',#189,.T.);
#122=FACE_OUTER_BOUND('',#190,.T.);
#123=FACE_OUTER_BOUND('',#191,.T.);
#124=FACE_OUTER_BOUND('',#192,.T.);
#125=FACE_OUTER_BOUND('',#193,.T.);
#126=FACE_OUTER_BOUND('',#194,.T.);
#127=FACE_OUTER_BOUND('',#195,.T.);
#128=FACE_OUTER_BOUND('',#196,.T.);
#129=FACE_OUTER_BOUND('',#197,.T.);
#130=FACE_OUTER_BOUND('',#198,.T.);
#131=FACE_OUTER_BOUND('',#199,.T.);
#132=FACE_OUTER_BOUND('',#200,.T.);
#133=FACE_OUTER_BOUND('',#201,.T.);
#134=FACE_OUTER_BOUND('',#202,.T.);
#135=FACE_OUTER_BOUND('',#203,.T.);
#136=FACE_OUTER_BOUND('',#204,.T.);
#137=FACE_OUTER_BOUND('',#205,.T.);
#138=FACE_OUTER_BOUND('',#206,.T.);
#139=FACE_OUTER_BOUND('',#207,.T.);
#140=FACE_OUTER_BOUND('',#208,.T.);
#141=FACE_OUTER_BOUND('',#209,.T.);
#142=EDGE_LOOP('',(#638,#639,#640,#641,#642));
#143=EDGE_LOOP('',(#643,#644,#645,#646,#647,#648,#649,#650,#651,#652,#653,
#654,#655,#656,#657,#658));
#144=EDGE_LOOP('',(#659));
#145=EDGE_LOOP('',(#660));
#146=EDGE_LOOP('',(#661,#662,#663,#664,#665,#666,#667,#668));
#147=EDGE_LOOP('',(#669));
#148=EDGE_LOOP('',(#670));
#149=EDGE_LOOP('',(#671,#672,#673,#674,#675));
#150=EDGE_LOOP('',(#676,#677,#678,#679,#680));
#151=EDGE_LOOP('',(#681,#682,#683,#684,#685));
#152=EDGE_LOOP('',(#686,#687,#688,#689,#690));
#153=EDGE_LOOP('',(#691,#692,#693,#694,#695));
#154=EDGE_LOOP('',(#696,#697,#698,#699,#700));
#155=EDGE_LOOP('',(#701,#702,#703,#704,#705));
#156=EDGE_LOOP('',(#706,#707,#708,#709));
#157=EDGE_LOOP('',(#710,#711,#712,#713));
#158=EDGE_LOOP('',(#714,#715,#716,#717));
#159=EDGE_LOOP('',(#718,#719,#720,#721));
#160=EDGE_LOOP('',(#722,#723,#724,#725));
#161=EDGE_LOOP('',(#726,#727,#728,#729));
#162=EDGE_LOOP('',(#730,#731,#732,#733));
#163=EDGE_LOOP('',(#734,#735,#736,#737));
#164=EDGE_LOOP('',(#738,#739,#740,#741));
#165=EDGE_LOOP('',(#742,#743,#744,#745));
#166=EDGE_LOOP('',(#746,#747,#748,#749));
#167=EDGE_LOOP('',(#750,#751,#752,#753));
#168=EDGE_LOOP('',(#754,#755,#756,#757));
#169=EDGE_LOOP('',(#758,#759,#760,#761));
#170=EDGE_LOOP('',(#762,#763,#764,#765));
#171=EDGE_LOOP('',(#766,#767,#768,#769));
#172=EDGE_LOOP('',(#770,#771,#772,#773));
#173=EDGE_LOOP('',(#774,#775,#776,#777));
#174=EDGE_LOOP('',(#778,#779,#780,#781));
#175=EDGE_LOOP('',(#782,#783,#784,#785));
#176=EDGE_LOOP('',(#786,#787,#788,#789));
#177=EDGE_LOOP('',(#790,#791,#792,#793));
#178=EDGE_LOOP('',(#794,#795,#796,#797));
#179=EDGE_LOOP('',(#798,#799,#800,#801));
#180=EDGE_LOOP('',(#802,#803,#804,#805,#806,#807,#808,#809,#810,#811,#812,
#813,#814,#815,#816,#817));
#181=EDGE_LOOP('',(#818));
#182=EDGE_LOOP('',(#819));
#183=EDGE_LOOP('',(#820));
#184=EDGE_LOOP('',(#821));
#185=EDGE_LOOP('',(#822,#823,#824,#825));
#186=EDGE_LOOP('',(#826,#827,#828,#829));
#187=EDGE_LOOP('',(#830,#831,#832,#833));
#188=EDGE_LOOP('',(#834,#835,#836,#837));
#189=EDGE_LOOP('',(#838,#839,#840,#841));
#190=EDGE_LOOP('',(#842,#843,#844,#845));
#191=EDGE_LOOP('',(#846,#847,#848,#849));
#192=EDGE_LOOP('',(#850,#851,#852,#853));
#193=EDGE_LOOP('',(#854,#855,#856,#857));
#194=EDGE_LOOP('',(#858,#859,#860,#861));
#195=EDGE_LOOP('',(#862,#863,#864,#865));
#196=EDGE_LOOP('',(#866,#867,#868,#869));
#197=EDGE_LOOP('',(#870,#871,#872,#873));
#198=EDGE_LOOP('',(#874,#875,#876,#877));
#199=EDGE_LOOP('',(#878,#879,#880,#881));
#200=EDGE_LOOP('',(#882,#883,#884,#885));
#201=EDGE_LOOP('',(#886,#887,#888,#889));
#202=EDGE_LOOP('',(#890,#891,#892,#893));
#203=EDGE_LOOP('',(#894,#895,#896,#897));
#204=EDGE_LOOP('',(#898,#899,#900,#901));
#205=EDGE_LOOP('',(#902));
#206=EDGE_LOOP('',(#903));
#207=EDGE_LOOP('',(#904));
#208=EDGE_LOOP('',(#905));
#209=EDGE_LOOP('',(#906,#907,#908,#909,#910,#911,#912,#913));
#210=EDGE_LOOP('',(#914));
#211=EDGE_LOOP('',(#915));
#212=EDGE_LOOP('',(#916));
#213=EDGE_LOOP('',(#917));
#214=LINE('',#1484,#270);
#215=LINE('',#1495,#271);
#216=LINE('',#1503,#272);
#217=LINE('',#1511,#273);
#218=LINE('',#1519,#274);
#219=LINE('',#1527,#275);
#220=LINE('',#1531,#276);
#221=LINE('',#1535,#277);
#222=LINE('',#1539,#278);
#223=LINE('',#1545,#279);
#224=LINE('',#1549,#280);
#225=LINE('',#1555,#281);
#226=LINE('',#1559,#282);
#227=LINE('',#1565,#283);
#228=LINE('',#1569,#284);
#229=LINE('',#1575,#285);
#230=LINE('',#1590,#286);
#231=LINE('',#1591,#287);
#232=LINE('',#1634,#288);
#233=LINE('',#1635,#289);
#234=LINE('',#1678,#290);
#235=LINE('',#1679,#291);
#236=LINE('',#1722,#292);
#237=LINE('',#1723,#293);
#238=LINE('',#1754,#294);
#239=LINE('',#1755,#295);
#240=LINE('',#1757,#296);
#241=LINE('',#1759,#297);
#242=LINE('',#1761,#298);
#243=LINE('',#1763,#299);
#244=LINE('',#1765,#300);
#245=LINE('',#1767,#301);
#246=LINE('',#1769,#302);
#247=LINE('',#1783,#303);
#248=LINE('',#1784,#304);
#249=LINE('',#1787,#305);
#250=LINE('',#1788,#306);
#251=LINE('',#1792,#307);
#252=LINE('',#1795,#308);
#253=LINE('',#1796,#309);
#254=LINE('',#1800,#310);
#255=LINE('',#1803,#311);
#256=LINE('',#1804,#312);
#257=LINE('',#1808,#313);
#258=LINE('',#1810,#314);
#259=LINE('',#1812,#315);
#260=LINE('',#1814,#316);
#261=LINE('',#1815,#317);
#262=LINE('',#1818,#318);
#263=LINE('',#1819,#319);
#264=LINE('',#1822,#320);
#265=LINE('',#1823,#321);
#266=LINE('',#1829,#322);
#267=LINE('',#1833,#323);
#268=LINE('',#1837,#324);
#269=LINE('',#1841,#325);
#270=VECTOR('',#1149,2.5);
#271=VECTOR('',#1160,10.);
#272=VECTOR('',#1167,10.);
#273=VECTOR('',#1174,10.);
#274=VECTOR('',#1181,10.);
#275=VECTOR('',#1188,10.);
#276=VECTOR('',#1191,10.);
#277=VECTOR('',#1194,10.);
#278=VECTOR('',#1197,10.);
#279=VECTOR('',#1204,2.);
#280=VECTOR('',#1209,2.5);
#281=VECTOR('',#1216,2.);
#282=VECTOR('',#1221,2.5);
#283=VECTOR('',#1228,2.);
#284=VECTOR('',#1233,2.5);
#285=VECTOR('',#1240,2.);
#286=VECTOR('',#1257,10.);
#287=VECTOR('',#1258,10.);
#288=VECTOR('',#1285,10.);
#289=VECTOR('',#1286,10.);
#290=VECTOR('',#1313,10.);
#291=VECTOR('',#1314,10.);
#292=VECTOR('',#1341,10.);
#293=VECTOR('',#1342,10.);
#294=VECTOR('',#1357,10.);
#295=VECTOR('',#1358,10.);
#296=VECTOR('',#1361,10.);
#297=VECTOR('',#1364,10.);
#298=VECTOR('',#1367,10.);
#299=VECTOR('',#1370,10.);
#300=VECTOR('',#1373,10.);
#301=VECTOR('',#1376,10.);
#302=VECTOR('',#1379,10.);
#303=VECTOR('',#1394,10.);
#304=VECTOR('',#1395,10.);
#305=VECTOR('',#1398,10.);
#306=VECTOR('',#1399,10.);
#307=VECTOR('',#1404,10.);
#308=VECTOR('',#1407,10.);
#309=VECTOR('',#1408,10.);
#310=VECTOR('',#1413,10.);
#311=VECTOR('',#1416,10.);
#312=VECTOR('',#1417,10.);
#313=VECTOR('',#1422,10.);
#314=VECTOR('',#1425,10.);
#315=VECTOR('',#1428,10.);
#316=VECTOR('',#1431,10.);
#317=VECTOR('',#1432,10.);
#318=VECTOR('',#1437,10.);
#319=VECTOR('',#1438,10.);
#320=VECTOR('',#1443,10.);
#321=VECTOR('',#1444,10.);
#322=VECTOR('',#1453,1.75);
#323=VECTOR('',#1458,1.75);
#324=VECTOR('',#1463,1.75);
#325=VECTOR('',#1468,1.75);
#326=CIRCLE('',#1005,3.);
#327=CIRCLE('',#1006,2.);
#328=CIRCLE('',#1007,2.);
#329=CIRCLE('',#1009,4.);
#330=CIRCLE('',#1010,4.);
#331=CIRCLE('',#1011,4.);
#332=CIRCLE('',#1012,4.);
#333=CIRCLE('',#1013,4.);
#334=CIRCLE('',#1014,4.);
#335=CIRCLE('',#1015,4.);
#336=CIRCLE('',#1016,4.);
#337=CIRCLE('',#1017,4.);
#338=CIRCLE('',#1018,4.);
#339=CIRCLE('',#1019,4.);
#340=CIRCLE('',#1020,4.);
#341=CIRCLE('',#1021,3.);
#342=CIRCLE('',#1022,3.);
#343=CIRCLE('',#1023,4.);
#344=CIRCLE('',#1024,4.);
#345=CIRCLE('',#1025,4.);
#346=CIRCLE('',#1026,4.);
#347=CIRCLE('',#1027,3.);
#348=CIRCLE('',#1029,2.);
#349=CIRCLE('',#1031,2.);
#350=CIRCLE('',#1032,2.);
#351=CIRCLE('',#1034,2.);
#352=CIRCLE('',#1036,2.);
#353=CIRCLE('',#1037,2.);
#354=CIRCLE('',#1039,2.);
#355=CIRCLE('',#1041,2.);
#356=CIRCLE('',#1042,2.);
#357=CIRCLE('',#1044,2.);
#358=CIRCLE('',#1046,2.);
#359=CIRCLE('',#1047,6.);
#360=CIRCLE('',#1048,2.);
#361=CIRCLE('',#1049,4.);
#362=CIRCLE('',#1051,2.);
#363=CIRCLE('',#1053,2.);
#364=CIRCLE('',#1054,4.);
#365=CIRCLE('',#1055,6.);
#366=CIRCLE('',#1056,2.);
#367=CIRCLE('',#1057,4.);
#368=CIRCLE('',#1058,2.);
#369=CIRCLE('',#1060,2.);
#370=CIRCLE('',#1061,4.);
#371=CIRCLE('',#1062,6.);
#372=CIRCLE('',#1064,2.);
#373=CIRCLE('',#1066,2.);
#374=CIRCLE('',#1067,4.);
#375=CIRCLE('',#1068,6.);
#376=CIRCLE('',#1069,2.);
#377=CIRCLE('',#1070,4.);
#378=CIRCLE('',#1071,2.);
#379=CIRCLE('',#1073,2.);
#380=CIRCLE('',#1074,4.);
#381=CIRCLE('',#1075,6.);
#382=CIRCLE('',#1077,2.);
#383=CIRCLE('',#1079,2.);
#384=CIRCLE('',#1080,4.);
#385=CIRCLE('',#1081,6.);
#386=CIRCLE('',#1082,2.);
#387=CIRCLE('',#1083,4.);
#388=CIRCLE('',#1084,2.);
#389=CIRCLE('',#1086,2.);
#390=CIRCLE('',#1087,4.);
#391=CIRCLE('',#1088,6.);
#392=CIRCLE('',#1090,2.);
#393=CIRCLE('',#1092,2.);
#394=CIRCLE('',#1093,4.);
#395=CIRCLE('',#1094,6.);
#396=CIRCLE('',#1095,2.);
#397=CIRCLE('',#1096,4.);
#398=CIRCLE('',#1106,1.75);
#399=CIRCLE('',#1107,1.75);
#400=CIRCLE('',#1108,1.75);
#401=CIRCLE('',#1109,1.75);
#402=CIRCLE('',#1111,4.);
#403=CIRCLE('',#1114,4.);
#404=CIRCLE('',#1117,4.);
#405=CIRCLE('',#1120,4.);
#406=CIRCLE('',#1131,1.75);
#407=CIRCLE('',#1133,1.75);
#408=CIRCLE('',#1135,1.75);
#409=CIRCLE('',#1137,1.75);
#410=VERTEX_POINT('',#1481);
#411=VERTEX_POINT('',#1483);
#412=VERTEX_POINT('',#1485);
#413=VERTEX_POINT('',#1489);
#414=VERTEX_POINT('',#1490);
#415=VERTEX_POINT('',#1492);
#416=VERTEX_POINT('',#1494);
#417=VERTEX_POINT('',#1496);
#418=VERTEX_POINT('',#1498);
#419=VERTEX_POINT('',#1500);
#420=VERTEX_POINT('',#1502);
#421=VERTEX_POINT('',#1504);
#422=VERTEX_POINT('',#1506);
#423=VERTEX_POINT('',#1508);
#424=VERTEX_POINT('',#1510);
#425=VERTEX_POINT('',#1512);
#426=VERTEX_POINT('',#1514);
#427=VERTEX_POINT('',#1516);
#428=VERTEX_POINT('',#1518);
#429=VERTEX_POINT('',#1521);
#430=VERTEX_POINT('',#1523);
#431=VERTEX_POINT('',#1525);
#432=VERTEX_POINT('',#1526);
#433=VERTEX_POINT('',#1528);
#434=VERTEX_POINT('',#1530);
#435=VERTEX_POINT('',#1532);
#436=VERTEX_POINT('',#1534);
#437=VERTEX_POINT('',#1536);
#438=VERTEX_POINT('',#1538);
#439=VERTEX_POINT('',#1541);
#440=VERTEX_POINT('',#1544);
#441=VERTEX_POINT('',#1548);
#442=VERTEX_POINT('',#1550);
#443=VERTEX_POINT('',#1554);
#444=VERTEX_POINT('',#1558);
#445=VERTEX_POINT('',#1560);
#446=VERTEX_POINT('',#1564);
#447=VERTEX_POINT('',#1568);
#448=VERTEX_POINT('',#1570);
#449=VERTEX_POINT('',#1574);
#450=VERTEX_POINT('',#1578);
#451=VERTEX_POINT('',#1579);
#452=VERTEX_POINT('',#1581);
#453=VERTEX_POINT('',#1583);
#454=VERTEX_POINT('',#1587);
#455=VERTEX_POINT('',#1588);
#456=VERTEX_POINT('',#1593);
#457=VERTEX_POINT('',#1594);
#458=VERTEX_POINT('',#1619);
#459=VERTEX_POINT('',#1620);
#460=VERTEX_POINT('',#1625);
#461=VERTEX_POINT('',#1626);
#462=VERTEX_POINT('',#1631);
#463=VERTEX_POINT('',#1632);
#464=VERTEX_POINT('',#1637);
#465=VERTEX_POINT('',#1638);
#466=VERTEX_POINT('',#1663);
#467=VERTEX_POINT('',#1664);
#468=VERTEX_POINT('',#1669);
#469=VERTEX_POINT('',#1670);
#470=VERTEX_POINT('',#1675);
#471=VERTEX_POINT('',#1676);
#472=VERTEX_POINT('',#1681);
#473=VERTEX_POINT('',#1682);
#474=VERTEX_POINT('',#1707);
#475=VERTEX_POINT('',#1708);
#476=VERTEX_POINT('',#1713);
#477=VERTEX_POINT('',#1714);
#478=VERTEX_POINT('',#1719);
#479=VERTEX_POINT('',#1720);
#480=VERTEX_POINT('',#1725);
#481=VERTEX_POINT('',#1726);
#482=VERTEX_POINT('',#1771);
#483=VERTEX_POINT('',#1773);
#484=VERTEX_POINT('',#1775);
#485=VERTEX_POINT('',#1777);
#486=VERTEX_POINT('',#1780);
#487=VERTEX_POINT('',#1781);
#488=VERTEX_POINT('',#1786);
#489=VERTEX_POINT('',#1790);
#490=VERTEX_POINT('',#1794);
#491=VERTEX_POINT('',#1798);
#492=VERTEX_POINT('',#1802);
#493=VERTEX_POINT('',#1806);
#494=VERTEX_POINT('',#1827);
#495=VERTEX_POINT('',#1831);
#496=VERTEX_POINT('',#1835);
#497=VERTEX_POINT('',#1839);
#498=EDGE_CURVE('',#410,#410,#326,.T.);
#499=EDGE_CURVE('',#410,#411,#214,.T.);
#500=EDGE_CURVE('',#411,#412,#327,.T.);
#501=EDGE_CURVE('',#412,#411,#328,.T.);
#502=EDGE_CURVE('',#413,#414,#329,.T.);
#503=EDGE_CURVE('',#415,#414,#330,.T.);
#504=EDGE_CURVE('',#415,#416,#215,.T.);
#505=EDGE_CURVE('',#417,#416,#331,.T.);
#506=EDGE_CURVE('',#417,#418,#332,.T.);
#507=EDGE_CURVE('',#419,#418,#333,.T.);
#508=EDGE_CURVE('',#419,#420,#216,.T.);
#509=EDGE_CURVE('',#421,#420,#334,.T.);
#510=EDGE_CURVE('',#421,#422,#335,.T.);
#511=EDGE_CURVE('',#423,#422,#336,.T.);
#512=EDGE_CURVE('',#423,#424,#217,.T.);
#513=EDGE_CURVE('',#425,#424,#337,.T.);
#514=EDGE_CURVE('',#425,#426,#338,.T.);
#515=EDGE_CURVE('',#427,#426,#339,.T.);
#516=EDGE_CURVE('',#427,#428,#218,.T.);
#517=EDGE_CURVE('',#413,#428,#340,.T.);
#518=EDGE_CURVE('',#429,#429,#341,.T.);
#519=EDGE_CURVE('',#430,#430,#342,.T.);
#520=EDGE_CURVE('',#431,#432,#219,.T.);
#521=EDGE_CURVE('',#433,#432,#343,.T.);
#522=EDGE_CURVE('',#433,#434,#220,.T.);
#523=EDGE_CURVE('',#435,#434,#344,.T.);
#524=EDGE_CURVE('',#435,#436,#221,.T.);
#525=EDGE_CURVE('',#437,#436,#345,.T.);
#526=EDGE_CURVE('',#437,#438,#222,.T.);
#527=EDGE_CURVE('',#431,#438,#346,.T.);
#528=EDGE_CURVE('',#439,#439,#347,.T.);
#529=EDGE_CURVE('',#412,#440,#223,.T.);
#530=EDGE_CURVE('',#440,#440,#348,.T.);
#531=EDGE_CURVE('',#429,#441,#224,.T.);
#532=EDGE_CURVE('',#441,#442,#349,.T.);
#533=EDGE_CURVE('',#442,#441,#350,.T.);
#534=EDGE_CURVE('',#442,#443,#225,.T.);
#535=EDGE_CURVE('',#443,#443,#351,.T.);
#536=EDGE_CURVE('',#439,#444,#226,.T.);
#537=EDGE_CURVE('',#444,#445,#352,.T.);
#538=EDGE_CURVE('',#445,#444,#353,.T.);
#539=EDGE_CURVE('',#445,#446,#227,.T.);
#540=EDGE_CURVE('',#446,#446,#354,.T.);
#541=EDGE_CURVE('',#430,#447,#228,.T.);
#542=EDGE_CURVE('',#447,#448,#355,.T.);
#543=EDGE_CURVE('',#448,#447,#356,.T.);
#544=EDGE_CURVE('',#448,#449,#229,.T.);
#545=EDGE_CURVE('',#449,#449,#357,.T.);
#546=EDGE_CURVE('',#450,#451,#358,.T.);
#547=EDGE_CURVE('',#451,#452,#359,.T.);
#548=EDGE_CURVE('',#452,#453,#360,.T.);
#549=EDGE_CURVE('',#453,#450,#361,.T.);
#550=EDGE_CURVE('',#454,#455,#362,.T.);
#551=EDGE_CURVE('',#455,#453,#230,.T.);
#552=EDGE_CURVE('',#452,#454,#231,.T.);
#553=EDGE_CURVE('',#456,#457,#363,.T.);
#554=EDGE_CURVE('',#457,#455,#364,.T.);
#555=EDGE_CURVE('',#454,#456,#365,.T.);
#556=EDGE_CURVE('',#458,#459,#366,.T.);
#557=EDGE_CURVE('',#459,#457,#367,.T.);
#558=EDGE_CURVE('',#456,#458,#368,.T.);
#559=EDGE_CURVE('',#460,#461,#369,.T.);
#560=EDGE_CURVE('',#461,#459,#370,.T.);
#561=EDGE_CURVE('',#458,#460,#371,.T.);
#562=EDGE_CURVE('',#462,#463,#372,.T.);
#563=EDGE_CURVE('',#463,#461,#232,.T.);
#564=EDGE_CURVE('',#460,#462,#233,.T.);
#565=EDGE_CURVE('',#464,#465,#373,.T.);
#566=EDGE_CURVE('',#465,#463,#374,.T.);
#567=EDGE_CURVE('',#462,#464,#375,.T.);
#568=EDGE_CURVE('',#466,#467,#376,.T.);
#569=EDGE_CURVE('',#467,#465,#377,.T.);
#570=EDGE_CURVE('',#464,#466,#378,.T.);
#571=EDGE_CURVE('',#468,#469,#379,.T.);
#572=EDGE_CURVE('',#469,#467,#380,.T.);
#573=EDGE_CURVE('',#466,#468,#381,.T.);
#574=EDGE_CURVE('',#470,#471,#382,.T.);
#575=EDGE_CURVE('',#471,#469,#234,.T.);
#576=EDGE_CURVE('',#468,#470,#235,.T.);
#577=EDGE_CURVE('',#472,#473,#383,.T.);
#578=EDGE_CURVE('',#473,#471,#384,.T.);
#579=EDGE_CURVE('',#470,#472,#385,.T.);
#580=EDGE_CURVE('',#474,#475,#386,.T.);
#581=EDGE_CURVE('',#475,#473,#387,.T.);
#582=EDGE_CURVE('',#472,#474,#388,.T.);
#583=EDGE_CURVE('',#476,#477,#389,.T.);
#584=EDGE_CURVE('',#477,#475,#390,.T.);
#585=EDGE_CURVE('',#474,#476,#391,.T.);
#586=EDGE_CURVE('',#478,#479,#392,.T.);
#587=EDGE_CURVE('',#479,#477,#236,.T.);
#588=EDGE_CURVE('',#476,#478,#237,.T.);
#589=EDGE_CURVE('',#480,#481,#393,.T.);
#590=EDGE_CURVE('',#481,#479,#394,.T.);
#591=EDGE_CURVE('',#478,#480,#395,.T.);
#592=EDGE_CURVE('',#480,#451,#396,.T.);
#593=EDGE_CURVE('',#450,#481,#397,.T.);
#594=EDGE_CURVE('',#428,#471,#238,.T.);
#595=EDGE_CURVE('',#469,#427,#239,.T.);
#596=EDGE_CURVE('',#473,#413,#240,.T.);
#597=EDGE_CURVE('',#414,#475,#241,.T.);
#598=EDGE_CURVE('',#477,#415,#242,.T.);
#599=EDGE_CURVE('',#416,#479,#243,.T.);
#600=EDGE_CURVE('',#481,#417,#244,.T.);
#601=EDGE_CURVE('',#418,#450,#245,.T.);
#602=EDGE_CURVE('',#453,#419,#246,.T.);
#603=EDGE_CURVE('',#482,#482,#398,.T.);
#604=EDGE_CURVE('',#483,#483,#399,.T.);
#605=EDGE_CURVE('',#484,#484,#400,.T.);
#606=EDGE_CURVE('',#485,#485,#401,.T.);
#607=EDGE_CURVE('',#486,#487,#402,.T.);
#608=EDGE_CURVE('',#486,#431,#247,.T.);
#609=EDGE_CURVE('',#438,#487,#248,.T.);
#610=EDGE_CURVE('',#488,#437,#249,.T.);
#611=EDGE_CURVE('',#487,#488,#250,.T.);
#612=EDGE_CURVE('',#488,#489,#403,.T.);
#613=EDGE_CURVE('',#436,#489,#251,.T.);
#614=EDGE_CURVE('',#490,#435,#252,.T.);
#615=EDGE_CURVE('',#489,#490,#253,.T.);
#616=EDGE_CURVE('',#490,#491,#404,.T.);
#617=EDGE_CURVE('',#434,#491,#254,.T.);
#618=EDGE_CURVE('',#492,#433,#255,.T.);
#619=EDGE_CURVE('',#491,#492,#256,.T.);
#620=EDGE_CURVE('',#492,#493,#405,.T.);
#621=EDGE_CURVE('',#432,#493,#257,.T.);
#622=EDGE_CURVE('',#493,#486,#258,.T.);
#623=EDGE_CURVE('',#426,#467,#259,.T.);
#624=EDGE_CURVE('',#465,#425,#260,.T.);
#625=EDGE_CURVE('',#424,#463,#261,.T.);
#626=EDGE_CURVE('',#461,#423,#262,.T.);
#627=EDGE_CURVE('',#422,#459,#263,.T.);
#628=EDGE_CURVE('',#457,#421,#264,.T.);
#629=EDGE_CURVE('',#420,#455,#265,.T.);
#630=EDGE_CURVE('',#494,#494,#406,.T.);
#631=EDGE_CURVE('',#494,#485,#266,.T.);
#632=EDGE_CURVE('',#495,#495,#407,.T.);
#633=EDGE_CURVE('',#495,#484,#267,.T.);
#634=EDGE_CURVE('',#496,#496,#408,.T.);
#635=EDGE_CURVE('',#496,#483,#268,.T.);
#636=EDGE_CURVE('',#497,#497,#409,.T.);
#637=EDGE_CURVE('',#497,#482,#269,.T.);
#638=ORIENTED_EDGE('',*,*,#498,.T.);
#639=ORIENTED_EDGE('',*,*,#499,.T.);
#640=ORIENTED_EDGE('',*,*,#500,.T.);
#641=ORIENTED_EDGE('',*,*,#501,.T.);
#642=ORIENTED_EDGE('',*,*,#499,.F.);
#643=ORIENTED_EDGE('',*,*,#502,.T.);
#644=ORIENTED_EDGE('',*,*,#503,.F.);
#645=ORIENTED_EDGE('',*,*,#504,.T.);
#646=ORIENTED_EDGE('',*,*,#505,.F.);
#647=ORIENTED_EDGE('',*,*,#506,.T.);
#648=ORIENTED_EDGE('',*,*,#507,.F.);
#649=ORIENTED_EDGE('',*,*,#508,.T.);
#650=ORIENTED_EDGE('',*,*,#509,.F.);
#651=ORIENTED_EDGE('',*,*,#510,.T.);
#652=ORIENTED_EDGE('',*,*,#511,.F.);
#653=ORIENTED_EDGE('',*,*,#512,.T.);
#654=ORIENTED_EDGE('',*,*,#513,.F.);
#655=ORIENTED_EDGE('',*,*,#514,.T.);
#656=ORIENTED_EDGE('',*,*,#515,.F.);
#657=ORIENTED_EDGE('',*,*,#516,.T.);
#658=ORIENTED_EDGE('',*,*,#517,.F.);
#659=ORIENTED_EDGE('',*,*,#518,.F.);
#660=ORIENTED_EDGE('',*,*,#519,.F.);
#661=ORIENTED_EDGE('',*,*,#520,.T.);
#662=ORIENTED_EDGE('',*,*,#521,.F.);
#663=ORIENTED_EDGE('',*,*,#522,.T.);
#664=ORIENTED_EDGE('',*,*,#523,.F.);
#665=ORIENTED_EDGE('',*,*,#524,.T.);
#666=ORIENTED_EDGE('',*,*,#525,.F.);
#667=ORIENTED_EDGE('',*,*,#526,.T.);
#668=ORIENTED_EDGE('',*,*,#527,.F.);
#669=ORIENTED_EDGE('',*,*,#528,.F.);
#670=ORIENTED_EDGE('',*,*,#498,.F.);
#671=ORIENTED_EDGE('',*,*,#500,.F.);
#672=ORIENTED_EDGE('',*,*,#501,.F.);
#673=ORIENTED_EDGE('',*,*,#529,.T.);
#674=ORIENTED_EDGE('',*,*,#530,.T.);
#675=ORIENTED_EDGE('',*,*,#529,.F.);
#676=ORIENTED_EDGE('',*,*,#518,.T.);
#677=ORIENTED_EDGE('',*,*,#531,.T.);
#678=ORIENTED_EDGE('',*,*,#532,.T.);
#679=ORIENTED_EDGE('',*,*,#533,.T.);
#680=ORIENTED_EDGE('',*,*,#531,.F.);
#681=ORIENTED_EDGE('',*,*,#532,.F.);
#682=ORIENTED_EDGE('',*,*,#533,.F.);
#683=ORIENTED_EDGE('',*,*,#534,.T.);
#684=ORIENTED_EDGE('',*,*,#535,.T.);
#685=ORIENTED_EDGE('',*,*,#534,.F.);
#686=ORIENTED_EDGE('',*,*,#528,.T.);
#687=ORIENTED_EDGE('',*,*,#536,.T.);
#688=ORIENTED_EDGE('',*,*,#537,.T.);
#689=ORIENTED_EDGE('',*,*,#538,.T.);
#690=ORIENTED_EDGE('',*,*,#536,.F.);
#691=ORIENTED_EDGE('',*,*,#537,.F.);
#692=ORIENTED_EDGE('',*,*,#538,.F.);
#693=ORIENTED_EDGE('',*,*,#539,.T.);
#694=ORIENTED_EDGE('',*,*,#540,.T.);
#695=ORIENTED_EDGE('',*,*,#539,.F.);
#696=ORIENTED_EDGE('',*,*,#519,.T.);
#697=ORIENTED_EDGE('',*,*,#541,.T.);
#698=ORIENTED_EDGE('',*,*,#542,.T.);
#699=ORIENTED_EDGE('',*,*,#543,.T.);
#700=ORIENTED_EDGE('',*,*,#541,.F.);
#701=ORIENTED_EDGE('',*,*,#542,.F.);
#702=ORIENTED_EDGE('',*,*,#543,.F.);
#703=ORIENTED_EDGE('',*,*,#544,.T.);
#704=ORIENTED_EDGE('',*,*,#545,.T.);
#705=ORIENTED_EDGE('',*,*,#544,.F.);
#706=ORIENTED_EDGE('',*,*,#546,.T.);
#707=ORIENTED_EDGE('',*,*,#547,.T.);
#708=ORIENTED_EDGE('',*,*,#548,.T.);
#709=ORIENTED_EDGE('',*,*,#549,.T.);
#710=ORIENTED_EDGE('',*,*,#550,.T.);
#711=ORIENTED_EDGE('',*,*,#551,.T.);
#712=ORIENTED_EDGE('',*,*,#548,.F.);
#713=ORIENTED_EDGE('',*,*,#552,.T.);
#714=ORIENTED_EDGE('',*,*,#553,.T.);
#715=ORIENTED_EDGE('',*,*,#554,.T.);
#716=ORIENTED_EDGE('',*,*,#550,.F.);
#717=ORIENTED_EDGE('',*,*,#555,.T.);
#718=ORIENTED_EDGE('',*,*,#556,.T.);
#719=ORIENTED_EDGE('',*,*,#557,.T.);
#720=ORIENTED_EDGE('',*,*,#553,.F.);
#721=ORIENTED_EDGE('',*,*,#558,.T.);
#722=ORIENTED_EDGE('',*,*,#559,.T.);
#723=ORIENTED_EDGE('',*,*,#560,.T.);
#724=ORIENTED_EDGE('',*,*,#556,.F.);
#725=ORIENTED_EDGE('',*,*,#561,.T.);
#726=ORIENTED_EDGE('',*,*,#562,.T.);
#727=ORIENTED_EDGE('',*,*,#563,.T.);
#728=ORIENTED_EDGE('',*,*,#559,.F.);
#729=ORIENTED_EDGE('',*,*,#564,.T.);
#730=ORIENTED_EDGE('',*,*,#565,.T.);
#731=ORIENTED_EDGE('',*,*,#566,.T.);
#732=ORIENTED_EDGE('',*,*,#562,.F.);
#733=ORIENTED_EDGE('',*,*,#567,.T.);
#734=ORIENTED_EDGE('',*,*,#568,.T.);
#735=ORIENTED_EDGE('',*,*,#569,.T.);
#736=ORIENTED_EDGE('',*,*,#565,.F.);
#737=ORIENTED_EDGE('',*,*,#570,.T.);
#738=ORIENTED_EDGE('',*,*,#571,.T.);
#739=ORIENTED_EDGE('',*,*,#572,.T.);
#740=ORIENTED_EDGE('',*,*,#568,.F.);
#741=ORIENTED_EDGE('',*,*,#573,.T.);
#742=ORIENTED_EDGE('',*,*,#574,.T.);
#743=ORIENTED_EDGE('',*,*,#575,.T.);
#744=ORIENTED_EDGE('',*,*,#571,.F.);
#745=ORIENTED_EDGE('',*,*,#576,.T.);
#746=ORIENTED_EDGE('',*,*,#577,.T.);
#747=ORIENTED_EDGE('',*,*,#578,.T.);
#748=ORIENTED_EDGE('',*,*,#574,.F.);
#749=ORIENTED_EDGE('',*,*,#579,.T.);
#750=ORIENTED_EDGE('',*,*,#580,.T.);
#751=ORIENTED_EDGE('',*,*,#581,.T.);
#752=ORIENTED_EDGE('',*,*,#577,.F.);
#753=ORIENTED_EDGE('',*,*,#582,.T.);
#754=ORIENTED_EDGE('',*,*,#583,.T.);
#755=ORIENTED_EDGE('',*,*,#584,.T.);
#756=ORIENTED_EDGE('',*,*,#580,.F.);
#757=ORIENTED_EDGE('',*,*,#585,.T.);
#758=ORIENTED_EDGE('',*,*,#586,.T.);
#759=ORIENTED_EDGE('',*,*,#587,.T.);
#760=ORIENTED_EDGE('',*,*,#583,.F.);
#761=ORIENTED_EDGE('',*,*,#588,.T.);
#762=ORIENTED_EDGE('',*,*,#589,.T.);
#763=ORIENTED_EDGE('',*,*,#590,.T.);
#764=ORIENTED_EDGE('',*,*,#586,.F.);
#765=ORIENTED_EDGE('',*,*,#591,.T.);
#766=ORIENTED_EDGE('',*,*,#589,.F.);
#767=ORIENTED_EDGE('',*,*,#592,.T.);
#768=ORIENTED_EDGE('',*,*,#546,.F.);
#769=ORIENTED_EDGE('',*,*,#593,.T.);
#770=ORIENTED_EDGE('',*,*,#575,.F.);
#771=ORIENTED_EDGE('',*,*,#594,.F.);
#772=ORIENTED_EDGE('',*,*,#516,.F.);
#773=ORIENTED_EDGE('',*,*,#595,.F.);
#774=ORIENTED_EDGE('',*,*,#578,.F.);
#775=ORIENTED_EDGE('',*,*,#596,.T.);
#776=ORIENTED_EDGE('',*,*,#517,.T.);
#777=ORIENTED_EDGE('',*,*,#594,.T.);
#778=ORIENTED_EDGE('',*,*,#581,.F.);
#779=ORIENTED_EDGE('',*,*,#597,.F.);
#780=ORIENTED_EDGE('',*,*,#502,.F.);
#781=ORIENTED_EDGE('',*,*,#596,.F.);
#782=ORIENTED_EDGE('',*,*,#584,.F.);
#783=ORIENTED_EDGE('',*,*,#598,.T.);
#784=ORIENTED_EDGE('',*,*,#503,.T.);
#785=ORIENTED_EDGE('',*,*,#597,.T.);
#786=ORIENTED_EDGE('',*,*,#587,.F.);
#787=ORIENTED_EDGE('',*,*,#599,.F.);
#788=ORIENTED_EDGE('',*,*,#504,.F.);
#789=ORIENTED_EDGE('',*,*,#598,.F.);
#790=ORIENTED_EDGE('',*,*,#590,.F.);
#791=ORIENTED_EDGE('',*,*,#600,.T.);
#792=ORIENTED_EDGE('',*,*,#505,.T.);
#793=ORIENTED_EDGE('',*,*,#599,.T.);
#794=ORIENTED_EDGE('',*,*,#593,.F.);
#795=ORIENTED_EDGE('',*,*,#601,.F.);
#796=ORIENTED_EDGE('',*,*,#506,.F.);
#797=ORIENTED_EDGE('',*,*,#600,.F.);
#798=ORIENTED_EDGE('',*,*,#549,.F.);
#799=ORIENTED_EDGE('',*,*,#602,.T.);
#800=ORIENTED_EDGE('',*,*,#507,.T.);
#801=ORIENTED_EDGE('',*,*,#601,.T.);
#802=ORIENTED_EDGE('',*,*,#547,.F.);
#803=ORIENTED_EDGE('',*,*,#592,.F.);
#804=ORIENTED_EDGE('',*,*,#591,.F.);
#805=ORIENTED_EDGE('',*,*,#588,.F.);
#806=ORIENTED_EDGE('',*,*,#585,.F.);
#807=ORIENTED_EDGE('',*,*,#582,.F.);
#808=ORIENTED_EDGE('',*,*,#579,.F.);
#809=ORIENTED_EDGE('',*,*,#576,.F.);
#810=ORIENTED_EDGE('',*,*,#573,.F.);
#811=ORIENTED_EDGE('',*,*,#570,.F.);
#812=ORIENTED_EDGE('',*,*,#567,.F.);
#813=ORIENTED_EDGE('',*,*,#564,.F.);
#814=ORIENTED_EDGE('',*,*,#561,.F.);
#815=ORIENTED_EDGE('',*,*,#558,.F.);
#816=ORIENTED_EDGE('',*,*,#555,.F.);
#817=ORIENTED_EDGE('',*,*,#552,.F.);
#818=ORIENTED_EDGE('',*,*,#603,.T.);
#819=ORIENTED_EDGE('',*,*,#604,.T.);
#820=ORIENTED_EDGE('',*,*,#605,.T.);
#821=ORIENTED_EDGE('',*,*,#606,.T.);
#822=ORIENTED_EDGE('',*,*,#607,.F.);
#823=ORIENTED_EDGE('',*,*,#608,.T.);
#824=ORIENTED_EDGE('',*,*,#527,.T.);
#825=ORIENTED_EDGE('',*,*,#609,.T.);
#826=ORIENTED_EDGE('',*,*,#609,.F.);
#827=ORIENTED_EDGE('',*,*,#526,.F.);
#828=ORIENTED_EDGE('',*,*,#610,.F.);
#829=ORIENTED_EDGE('',*,*,#611,.F.);
#830=ORIENTED_EDGE('',*,*,#612,.F.);
#831=ORIENTED_EDGE('',*,*,#610,.T.);
#832=ORIENTED_EDGE('',*,*,#525,.T.);
#833=ORIENTED_EDGE('',*,*,#613,.T.);
#834=ORIENTED_EDGE('',*,*,#613,.F.);
#835=ORIENTED_EDGE('',*,*,#524,.F.);
#836=ORIENTED_EDGE('',*,*,#614,.F.);
#837=ORIENTED_EDGE('',*,*,#615,.F.);
#838=ORIENTED_EDGE('',*,*,#616,.F.);
#839=ORIENTED_EDGE('',*,*,#614,.T.);
#840=ORIENTED_EDGE('',*,*,#523,.T.);
#841=ORIENTED_EDGE('',*,*,#617,.T.);
#842=ORIENTED_EDGE('',*,*,#617,.F.);
#843=ORIENTED_EDGE('',*,*,#522,.F.);
#844=ORIENTED_EDGE('',*,*,#618,.F.);
#845=ORIENTED_EDGE('',*,*,#619,.F.);
#846=ORIENTED_EDGE('',*,*,#620,.F.);
#847=ORIENTED_EDGE('',*,*,#618,.T.);
#848=ORIENTED_EDGE('',*,*,#521,.T.);
#849=ORIENTED_EDGE('',*,*,#621,.T.);
#850=ORIENTED_EDGE('',*,*,#608,.F.);
#851=ORIENTED_EDGE('',*,*,#622,.F.);
#852=ORIENTED_EDGE('',*,*,#621,.F.);
#853=ORIENTED_EDGE('',*,*,#520,.F.);
#854=ORIENTED_EDGE('',*,*,#572,.F.);
#855=ORIENTED_EDGE('',*,*,#595,.T.);
#856=ORIENTED_EDGE('',*,*,#515,.T.);
#857=ORIENTED_EDGE('',*,*,#623,.T.);
#858=ORIENTED_EDGE('',*,*,#566,.F.);
#859=ORIENTED_EDGE('',*,*,#624,.T.);
#860=ORIENTED_EDGE('',*,*,#513,.T.);
#861=ORIENTED_EDGE('',*,*,#625,.T.);
#862=ORIENTED_EDGE('',*,*,#569,.F.);
#863=ORIENTED_EDGE('',*,*,#623,.F.);
#864=ORIENTED_EDGE('',*,*,#514,.F.);
#865=ORIENTED_EDGE('',*,*,#624,.F.);
#866=ORIENTED_EDGE('',*,*,#560,.F.);
#867=ORIENTED_EDGE('',*,*,#626,.T.);
#868=ORIENTED_EDGE('',*,*,#511,.T.);
#869=ORIENTED_EDGE('',*,*,#627,.T.);
#870=ORIENTED_EDGE('',*,*,#563,.F.);
#871=ORIENTED_EDGE('',*,*,#625,.F.);
#872=ORIENTED_EDGE('',*,*,#512,.F.);
#873=ORIENTED_EDGE('',*,*,#626,.F.);
#874=ORIENTED_EDGE('',*,*,#554,.F.);
#875=ORIENTED_EDGE('',*,*,#628,.T.);
#876=ORIENTED_EDGE('',*,*,#509,.T.);
#877=ORIENTED_EDGE('',*,*,#629,.T.);
#878=ORIENTED_EDGE('',*,*,#557,.F.);
#879=ORIENTED_EDGE('',*,*,#627,.F.);
#880=ORIENTED_EDGE('',*,*,#510,.F.);
#881=ORIENTED_EDGE('',*,*,#628,.F.);
#882=ORIENTED_EDGE('',*,*,#551,.F.);
#883=ORIENTED_EDGE('',*,*,#629,.F.);
#884=ORIENTED_EDGE('',*,*,#508,.F.);
#885=ORIENTED_EDGE('',*,*,#602,.F.);
#886=ORIENTED_EDGE('',*,*,#630,.F.);
#887=ORIENTED_EDGE('',*,*,#631,.T.);
#888=ORIENTED_EDGE('',*,*,#606,.F.);
#889=ORIENTED_EDGE('',*,*,#631,.F.);
#890=ORIENTED_EDGE('',*,*,#632,.F.);
#891=ORIENTED_EDGE('',*,*,#633,.T.);
#892=ORIENTED_EDGE('',*,*,#605,.F.);
#893=ORIENTED_EDGE('',*,*,#633,.F.);
#894=ORIENTED_EDGE('',*,*,#634,.F.);
#895=ORIENTED_EDGE('',*,*,#635,.T.);
#896=ORIENTED_EDGE('',*,*,#604,.F.);
#897=ORIENTED_EDGE('',*,*,#635,.F.);
#898=ORIENTED_EDGE('',*,*,#636,.F.);
#899=ORIENTED_EDGE('',*,*,#637,.T.);
#900=ORIENTED_EDGE('',*,*,#603,.F.);
#901=ORIENTED_EDGE('',*,*,#637,.F.);
#902=ORIENTED_EDGE('',*,*,#535,.F.);
#903=ORIENTED_EDGE('',*,*,#540,.F.);
#904=ORIENTED_EDGE('',*,*,#530,.F.);
#905=ORIENTED_EDGE('',*,*,#545,.F.);
#906=ORIENTED_EDGE('',*,*,#607,.T.);
#907=ORIENTED_EDGE('',*,*,#611,.T.);
#908=ORIENTED_EDGE('',*,*,#612,.T.);
#909=ORIENTED_EDGE('',*,*,#615,.T.);
#910=ORIENTED_EDGE('',*,*,#616,.T.);
#911=ORIENTED_EDGE('',*,*,#619,.T.);
#912=ORIENTED_EDGE('',*,*,#620,.T.);
#913=ORIENTED_EDGE('',*,*,#622,.T.);
#914=ORIENTED_EDGE('',*,*,#630,.T.);
#915=ORIENTED_EDGE('',*,*,#632,.T.);
#916=ORIENTED_EDGE('',*,*,#634,.T.);
#917=ORIENTED_EDGE('',*,*,#636,.T.);
#918=CONICAL_SURFACE('',#1004,2.5,0.785398163397447);
#919=CONICAL_SURFACE('',#1030,2.5,0.785398163397447);
#920=CONICAL_SURFACE('',#1035,2.5,0.785398163397447);
#921=CONICAL_SURFACE('',#1040,2.5,0.785398163397447);
#922=ADVANCED_FACE('',(#83),#918,.F.);
#923=ADVANCED_FACE('',(#84,#55,#56,#57,#58,#59),#68,.T.);
#924=ADVANCED_FACE('',(#85),#27,.F.);
#925=ADVANCED_FACE('',(#86),#919,.F.);
#926=ADVANCED_FACE('',(#87),#28,.F.);
#927=ADVANCED_FACE('',(#88),#920,.F.);
#928=ADVANCED_FACE('',(#89),#29,.F.);
#929=ADVANCED_FACE('',(#90),#921,.F.);
#930=ADVANCED_FACE('',(#91),#30,.F.);
#931=ADVANCED_FACE('',(#92),#19,.T.);
#932=ADVANCED_FACE('',(#93),#31,.T.);
#933=ADVANCED_FACE('',(#94),#20,.T.);
#934=ADVANCED_FACE('',(#95),#15,.F.);
#935=ADVANCED_FACE('',(#96),#21,.T.);
#936=ADVANCED_FACE('',(#97),#32,.T.);
#937=ADVANCED_FACE('',(#98),#22,.T.);
#938=ADVANCED_FACE('',(#99),#16,.F.);
#939=ADVANCED_FACE('',(#100),#23,.T.);
#940=ADVANCED_FACE('',(#101),#33,.T.);
#941=ADVANCED_FACE('',(#102),#24,.T.);
#942=ADVANCED_FACE('',(#103),#17,.F.);
#943=ADVANCED_FACE('',(#104),#25,.T.);
#944=ADVANCED_FACE('',(#105),#34,.T.);
#945=ADVANCED_FACE('',(#106),#26,.T.);
#946=ADVANCED_FACE('',(#107),#18,.F.);
#947=ADVANCED_FACE('',(#108),#69,.T.);
#948=ADVANCED_FACE('',(#109),#35,.F.);
#949=ADVANCED_FACE('',(#110),#36,.T.);
#950=ADVANCED_FACE('',(#111),#37,.F.);
#951=ADVANCED_FACE('',(#112),#70,.T.);
#952=ADVANCED_FACE('',(#113),#38,.F.);
#953=ADVANCED_FACE('',(#114),#39,.T.);
#954=ADVANCED_FACE('',(#115),#40,.F.);
#955=ADVANCED_FACE('',(#116,#60,#61,#62,#63),#71,.F.);
#956=ADVANCED_FACE('',(#117),#41,.F.);
#957=ADVANCED_FACE('',(#118),#72,.T.);
#958=ADVANCED_FACE('',(#119),#42,.F.);
#959=ADVANCED_FACE('',(#120),#73,.T.);
#960=ADVANCED_FACE('',(#121),#43,.F.);
#961=ADVANCED_FACE('',(#122),#74,.T.);
#962=ADVANCED_FACE('',(#123),#44,.F.);
#963=ADVANCED_FACE('',(#124),#75,.T.);
#964=ADVANCED_FACE('',(#125),#45,.F.);
#965=ADVANCED_FACE('',(#126),#46,.F.);
#966=ADVANCED_FACE('',(#127),#47,.T.);
#967=ADVANCED_FACE('',(#128),#48,.F.);
#968=ADVANCED_FACE('',(#129),#76,.T.);
#969=ADVANCED_FACE('',(#130),#49,.F.);
#970=ADVANCED_FACE('',(#131),#50,.T.);
#971=ADVANCED_FACE('',(#132),#77,.T.);
#972=ADVANCED_FACE('',(#133),#51,.F.);
#973=ADVANCED_FACE('',(#134),#52,.F.);
#974=ADVANCED_FACE('',(#135),#53,.F.);
#975=ADVANCED_FACE('',(#136),#54,.F.);
#976=ADVANCED_FACE('',(#137),#78,.T.);
#977=ADVANCED_FACE('',(#138),#79,.T.);
#978=ADVANCED_FACE('',(#139),#80,.T.);
#979=ADVANCED_FACE('',(#140),#81,.T.);
#980=ADVANCED_FACE('',(#141,#64,#65,#66,#67),#82,.T.);
#981=CLOSED_SHELL('',(#922,#923,#924,#925,#926,#927,#928,#929,#930,#931,
#932,#933,#934,#935,#936,#937,#938,#939,#940,#941,#942,#943,#944,#945,#946,
#947,#948,#949,#950,#951,#952,#953,#954,#955,#956,#957,#958,#959,#960,#961,
#962,#963,#964,#965,#966,#967,#968,#969,#970,#971,#972,#973,#974,#975,#976,
#977,#978,#979,#980));
#982=DERIVED_UNIT_ELEMENT(#985,1.);
#983=DERIVED_UNIT_ELEMENT(#1852,-3.);
#984=DIMENSIONAL_EXPONENTS(0.,1.,0.,0.,0.,0.,0.);
#985=(
CONVERSION_BASED_UNIT('gram',#987)
MASS_UNIT()
NAMED_UNIT(#984)
);
#986=(
MASS_UNIT()
NAMED_UNIT(*)
SI_UNIT(.KILO.,.GRAM.)
);
#987=MASS_MEASURE_WITH_UNIT(MASS_MEASURE(0.001),#986);
#988=DERIVED_UNIT((#982,#983));
#989=MEASURE_REPRESENTATION_ITEM('density measure',
POSITIVE_RATIO_MEASURE(0.93),#988);
#990=PROPERTY_DEFINITION_REPRESENTATION(#995,#992);
#991=PROPERTY_DEFINITION_REPRESENTATION(#996,#993);
#992=REPRESENTATION('material name',(#994),#1849);
#993=REPRESENTATION('density',(#989),#1849);
#994=DESCRIPTIVE_REPRESENTATION_ITEM('Gummi','Gummi');
#995=PROPERTY_DEFINITION('material property','material name',#1859);
#996=PROPERTY_DEFINITION('material property','density of part',#1859);
#997=DATE_TIME_ROLE('creation_date');
#998=APPLIED_DATE_AND_TIME_ASSIGNMENT(#999,#997,(#1859));
#999=DATE_AND_TIME(#1000,#1001);
#1000=CALENDAR_DATE(2025,26,1);
#1001=LOCAL_TIME(0,0,0.,#1002);
#1002=COORDINATED_UNIVERSAL_TIME_OFFSET(0,0,.BEHIND.);
#1003=AXIS2_PLACEMENT_3D('',#1479,#1143,#1144);
#1004=AXIS2_PLACEMENT_3D('',#1480,#1145,#1146);
#1005=AXIS2_PLACEMENT_3D('',#1482,#1147,#1148);
#1006=AXIS2_PLACEMENT_3D('',#1486,#1150,#1151);
#1007=AXIS2_PLACEMENT_3D('',#1487,#1152,#1153);
#1008=AXIS2_PLACEMENT_3D('',#1488,#1154,#1155);
#1009=AXIS2_PLACEMENT_3D('',#1491,#1156,#1157);
#1010=AXIS2_PLACEMENT_3D('',#1493,#1158,#1159);
#1011=AXIS2_PLACEMENT_3D('',#1497,#1161,#1162);
#1012=AXIS2_PLACEMENT_3D('',#1499,#1163,#1164);
#1013=AXIS2_PLACEMENT_3D('',#1501,#1165,#1166);
#1014=AXIS2_PLACEMENT_3D('',#1505,#1168,#1169);
#1015=AXIS2_PLACEMENT_3D('',#1507,#1170,#1171);
#1016=AXIS2_PLACEMENT_3D('',#1509,#1172,#1173);
#1017=AXIS2_PLACEMENT_3D('',#1513,#1175,#1176);
#1018=AXIS2_PLACEMENT_3D('',#1515,#1177,#1178);
#1019=AXIS2_PLACEMENT_3D('',#1517,#1179,#1180);
#1020=AXIS2_PLACEMENT_3D('',#1520,#1182,#1183);
#1021=AXIS2_PLACEMENT_3D('',#1522,#1184,#1185);
#1022=AXIS2_PLACEMENT_3D('',#1524,#1186,#1187);
#1023=AXIS2_PLACEMENT_3D('',#1529,#1189,#1190);
#1024=AXIS2_PLACEMENT_3D('',#1533,#1192,#1193);
#1025=AXIS2_PLACEMENT_3D('',#1537,#1195,#1196);
#1026=AXIS2_PLACEMENT_3D('',#1540,#1198,#1199);
#1027=AXIS2_PLACEMENT_3D('',#1542,#1200,#1201);
#1028=AXIS2_PLACEMENT_3D('',#1543,#1202,#1203);
#1029=AXIS2_PLACEMENT_3D('',#1546,#1205,#1206);
#1030=AXIS2_PLACEMENT_3D('',#1547,#1207,#1208);
#1031=AXIS2_PLACEMENT_3D('',#1551,#1210,#1211);
#1032=AXIS2_PLACEMENT_3D('',#1552,#1212,#1213);
#1033=AXIS2_PLACEMENT_3D('',#1553,#1214,#1215);
#1034=AXIS2_PLACEMENT_3D('',#1556,#1217,#1218);
#1035=AXIS2_PLACEMENT_3D('',#1557,#1219,#1220);
#1036=AXIS2_PLACEMENT_3D('',#1561,#1222,#1223);
#1037=AXIS2_PLACEMENT_3D('',#1562,#1224,#1225);
#1038=AXIS2_PLACEMENT_3D('',#1563,#1226,#1227);
#1039=AXIS2_PLACEMENT_3D('',#1566,#1229,#1230);
#1040=AXIS2_PLACEMENT_3D('',#1567,#1231,#1232);
#1041=AXIS2_PLACEMENT_3D('',#1571,#1234,#1235);
#1042=AXIS2_PLACEMENT_3D('',#1572,#1236,#1237);
#1043=AXIS2_PLACEMENT_3D('',#1573,#1238,#1239);
#1044=AXIS2_PLACEMENT_3D('',#1576,#1241,#1242);
#1045=AXIS2_PLACEMENT_3D('',#1577,#1243,#1244);
#1046=AXIS2_PLACEMENT_3D('',#1580,#1245,#1246);
#1047=AXIS2_PLACEMENT_3D('',#1582,#1247,#1248);
#1048=AXIS2_PLACEMENT_3D('',#1584,#1249,#1250);
#1049=AXIS2_PLACEMENT_3D('',#1585,#1251,#1252);
#1050=AXIS2_PLACEMENT_3D('',#1586,#1253,#1254);
#1051=AXIS2_PLACEMENT_3D('',#1589,#1255,#1256);
#1052=AXIS2_PLACEMENT_3D('',#1592,#1259,#1260);
#1053=AXIS2_PLACEMENT_3D('',#1595,#1261,#1262);
#1054=AXIS2_PLACEMENT_3D('',#1596,#1263,#1264);
#1055=AXIS2_PLACEMENT_3D('',#1597,#1265,#1266);
#1056=AXIS2_PLACEMENT_3D('',#1621,#1267,#1268);
#1057=AXIS2_PLACEMENT_3D('',#1622,#1269,#1270);
#1058=AXIS2_PLACEMENT_3D('',#1623,#1271,#1272);
#1059=AXIS2_PLACEMENT_3D('',#1624,#1273,#1274);
#1060=AXIS2_PLACEMENT_3D('',#1627,#1275,#1276);
#1061=AXIS2_PLACEMENT_3D('',#1628,#1277,#1278);
#1062=AXIS2_PLACEMENT_3D('',#1629,#1279,#1280);
#1063=AXIS2_PLACEMENT_3D('',#1630,#1281,#1282);
#1064=AXIS2_PLACEMENT_3D('',#1633,#1283,#1284);
#1065=AXIS2_PLACEMENT_3D('',#1636,#1287,#1288);
#1066=AXIS2_PLACEMENT_3D('',#1639,#1289,#1290);
#1067=AXIS2_PLACEMENT_3D('',#1640,#1291,#1292);
#1068=AXIS2_PLACEMENT_3D('',#1641,#1293,#1294);
#1069=AXIS2_PLACEMENT_3D('',#1665,#1295,#1296);
#1070=AXIS2_PLACEMENT_3D('',#1666,#1297,#1298);
#1071=AXIS2_PLACEMENT_3D('',#1667,#1299,#1300);
#1072=AXIS2_PLACEMENT_3D('',#1668,#1301,#1302);
#1073=AXIS2_PLACEMENT_3D('',#1671,#1303,#1304);
#1074=AXIS2_PLACEMENT_3D('',#1672,#1305,#1306);
#1075=AXIS2_PLACEMENT_3D('',#1673,#1307,#1308);
#1076=AXIS2_PLACEMENT_3D('',#1674,#1309,#1310);
#1077=AXIS2_PLACEMENT_3D('',#1677,#1311,#1312);
#1078=AXIS2_PLACEMENT_3D('',#1680,#1315,#1316);
#1079=AXIS2_PLACEMENT_3D('',#1683,#1317,#1318);
#1080=AXIS2_PLACEMENT_3D('',#1684,#1319,#1320);
#1081=AXIS2_PLACEMENT_3D('',#1685,#1321,#1322);
#1082=AXIS2_PLACEMENT_3D('',#1709,#1323,#1324);
#1083=AXIS2_PLACEMENT_3D('',#1710,#1325,#1326);
#1084=AXIS2_PLACEMENT_3D('',#1711,#1327,#1328);
#1085=AXIS2_PLACEMENT_3D('',#1712,#1329,#1330);
#1086=AXIS2_PLACEMENT_3D('',#1715,#1331,#1332);
#1087=AXIS2_PLACEMENT_3D('',#1716,#1333,#1334);
#1088=AXIS2_PLACEMENT_3D('',#1717,#1335,#1336);
#1089=AXIS2_PLACEMENT_3D('',#1718,#1337,#1338);
#1090=AXIS2_PLACEMENT_3D('',#1721,#1339,#1340);
#1091=AXIS2_PLACEMENT_3D('',#1724,#1343,#1344);
#1092=AXIS2_PLACEMENT_3D('',#1727,#1345,#1346);
#1093=AXIS2_PLACEMENT_3D('',#1728,#1347,#1348);
#1094=AXIS2_PLACEMENT_3D('',#1729,#1349,#1350);
#1095=AXIS2_PLACEMENT_3D('',#1751,#1351,#1352);
#1096=AXIS2_PLACEMENT_3D('',#1752,#1353,#1354);
#1097=AXIS2_PLACEMENT_3D('',#1753,#1355,#1356);
#1098=AXIS2_PLACEMENT_3D('',#1756,#1359,#1360);
#1099=AXIS2_PLACEMENT_3D('',#1758,#1362,#1363);
#1100=AXIS2_PLACEMENT_3D('',#1760,#1365,#1366);
#1101=AXIS2_PLACEMENT_3D('',#1762,#1368,#1369);
#1102=AXIS2_PLACEMENT_3D('',#1764,#1371,#1372);
#1103=AXIS2_PLACEMENT_3D('',#1766,#1374,#1375);
#1104=AXIS2_PLACEMENT_3D('',#1768,#1377,#1378);
#1105=AXIS2_PLACEMENT_3D('',#1770,#1380,#1381);
#1106=AXIS2_PLACEMENT_3D('',#1772,#1382,#1383);
#1107=AXIS2_PLACEMENT_3D('',#1774,#1384,#1385);
#1108=AXIS2_PLACEMENT_3D('',#1776,#1386,#1387);
#1109=AXIS2_PLACEMENT_3D('',#1778,#1388,#1389);
#1110=AXIS2_PLACEMENT_3D('',#1779,#1390,#1391);
#1111=AXIS2_PLACEMENT_3D('',#1782,#1392,#1393);
#1112=AXIS2_PLACEMENT_3D('',#1785,#1396,#1397);
#1113=AXIS2_PLACEMENT_3D('',#1789,#1400,#1401);
#1114=AXIS2_PLACEMENT_3D('',#1791,#1402,#1403);
#1115=AXIS2_PLACEMENT_3D('',#1793,#1405,#1406);
#1116=AXIS2_PLACEMENT_3D('',#1797,#1409,#1410);
#1117=AXIS2_PLACEMENT_3D('',#1799,#1411,#1412);
#1118=AXIS2_PLACEMENT_3D('',#1801,#1414,#1415);
#1119=AXIS2_PLACEMENT_3D('',#1805,#1418,#1419);
#1120=AXIS2_PLACEMENT_3D('',#1807,#1420,#1421);
#1121=AXIS2_PLACEMENT_3D('',#1809,#1423,#1424);
#1122=AXIS2_PLACEMENT_3D('',#1811,#1426,#1427);
#1123=AXIS2_PLACEMENT_3D('',#1813,#1429,#1430);
#1124=AXIS2_PLACEMENT_3D('',#1816,#1433,#1434);
#1125=AXIS2_PLACEMENT_3D('',#1817,#1435,#1436);
#1126=AXIS2_PLACEMENT_3D('',#1820,#1439,#1440);
#1127=AXIS2_PLACEMENT_3D('',#1821,#1441,#1442);
#1128=AXIS2_PLACEMENT_3D('',#1824,#1445,#1446);
#1129=AXIS2_PLACEMENT_3D('',#1825,#1447,#1448);
#1130=AXIS2_PLACEMENT_3D('',#1826,#1449,#1450);
#1131=AXIS2_PLACEMENT_3D('',#1828,#1451,#1452);
#1132=AXIS2_PLACEMENT_3D('',#1830,#1454,#1455);
#1133=AXIS2_PLACEMENT_3D('',#1832,#1456,#1457);
#1134=AXIS2_PLACEMENT_3D('',#1834,#1459,#1460);
#1135=AXIS2_PLACEMENT_3D('',#1836,#1461,#1462);
#1136=AXIS2_PLACEMENT_3D('',#1838,#1464,#1465);
#1137=AXIS2_PLACEMENT_3D('',#1840,#1466,#1467);
#1138=AXIS2_PLACEMENT_3D('',#1842,#1469,#1470);
#1139=AXIS2_PLACEMENT_3D('',#1843,#1471,#1472);
#1140=AXIS2_PLACEMENT_3D('',#1844,#1473,#1474);
#1141=AXIS2_PLACEMENT_3D('',#1845,#1475,#1476);
#1142=AXIS2_PLACEMENT_3D('',#1846,#1477,#1478);
#1143=DIRECTION('axis',(0.,0.,1.));
#1144=DIRECTION('refdir',(1.,0.,0.));
#1145=DIRECTION('center_axis',(0.,1.,0.));
#1146=DIRECTION('ref_axis',(-1.,0.,0.));
#1147=DIRECTION('center_axis',(0.,1.,0.));
#1148=DIRECTION('ref_axis',(-1.,0.,0.));
#1149=DIRECTION('',(-0.707106781186546,-0.707106781186549,8.65956056235492E-17));
#1150=DIRECTION('center_axis',(0.,-1.,0.));
#1151=DIRECTION('ref_axis',(-1.,0.,0.));
#1152=DIRECTION('center_axis',(0.,-1.,0.));
#1153=DIRECTION('ref_axis',(-1.,0.,0.));
#1154=DIRECTION('center_axis',(0.,1.,0.));
#1155=DIRECTION('ref_axis',(0.,0.,1.));
#1156=DIRECTION('center_axis',(0.,1.,0.));
#1157=DIRECTION('ref_axis',(-4.44089209850062E-15,0.,-1.));
#1158=DIRECTION('center_axis',(0.,1.,0.));
#1159=DIRECTION('ref_axis',(-0.499999999999999,0.,-0.866025403784439));
#1160=DIRECTION('',(1.,0.,-5.9211894646675E-17));
#1161=DIRECTION('center_axis',(0.,1.,0.));
#1162=DIRECTION('ref_axis',(0.5,0.,-0.866025403784439));
#1163=DIRECTION('center_axis',(0.,1.,0.));
#1164=DIRECTION('ref_axis',(-1.,0.,-4.44089209850059E-15));
#1165=DIRECTION('center_axis',(0.,1.,0.));
#1166=DIRECTION('ref_axis',(-0.866025403784439,0.,0.499999999999999));
#1167=DIRECTION('',(-4.44089209850063E-16,0.,-1.));
#1168=DIRECTION('center_axis',(0.,1.,0.));
#1169=DIRECTION('ref_axis',(-0.866025403784439,0.,-0.499999999999999));
#1170=DIRECTION('center_axis',(0.,1.,0.));
#1171=DIRECTION('ref_axis',(-2.22044604925033E-15,0.,1.));
#1172=DIRECTION('center_axis',(0.,1.,0.));
#1173=DIRECTION('ref_axis',(0.5,0.,0.866025403784439));
#1174=DIRECTION('',(-1.,0.,5.9211894646675E-17));
#1175=DIRECTION('center_axis',(0.,1.,0.));
#1176=DIRECTION('ref_axis',(-0.499999999999999,0.,0.866025403784439));
#1177=DIRECTION('center_axis',(0.,1.,0.));
#1178=DIRECTION('ref_axis',(1.,0.,-4.44089209850057E-15));
#1179=DIRECTION('center_axis',(0.,1.,0.));
#1180=DIRECTION('ref_axis',(0.866025403784439,0.,-0.499999999999999));
#1181=DIRECTION('',(3.5527136788005E-16,0.,1.));
#1182=DIRECTION('center_axis',(0.,1.,0.));
#1183=DIRECTION('ref_axis',(0.866025403784439,0.,0.499999999999999));
#1184=DIRECTION('center_axis',(0.,1.,0.));
#1185=DIRECTION('ref_axis',(-1.,0.,0.));
#1186=DIRECTION('center_axis',(0.,1.,0.));
#1187=DIRECTION('ref_axis',(-1.,0.,0.));
#1188=DIRECTION('',(-1.,0.,3.0626842058625E-16));
#1189=DIRECTION('center_axis',(0.,1.,0.));
#1190=DIRECTION('ref_axis',(-0.707106781186548,0.,0.707106781186548));
#1191=DIRECTION('',(-2.80477395694776E-16,0.,-1.));
#1192=DIRECTION('center_axis',(0.,1.,0.));
#1193=DIRECTION('ref_axis',(-0.707106781186548,0.,-0.707106781186548));
#1194=DIRECTION('',(1.,0.,-1.8376105235175E-16));
#1195=DIRECTION('center_axis',(0.,1.,0.));
#1196=DIRECTION('ref_axis',(0.707106781186546,0.,-0.707106781186549));
#1197=DIRECTION('',(2.80477395694776E-16,0.,1.));
#1198=DIRECTION('center_axis',(0.,1.,0.));
#1199=DIRECTION('ref_axis',(0.707106781186549,0.,0.707106781186546));
#1200=DIRECTION('center_axis',(0.,1.,0.));
#1201=DIRECTION('ref_axis',(-1.,0.,0.));
#1202=DIRECTION('center_axis',(0.,-1.,0.));
#1203=DIRECTION('ref_axis',(1.,0.,0.));
#1204=DIRECTION('',(0.,-1.,0.));
#1205=DIRECTION('center_axis',(0.,-1.,0.));
#1206=DIRECTION('ref_axis',(1.,0.,0.));
#1207=DIRECTION('center_axis',(0.,1.,0.));
#1208=DIRECTION('ref_axis',(-1.,0.,0.));
#1209=DIRECTION('',(-0.707106781186546,-0.707106781186549,8.65956056235492E-17));
#1210=DIRECTION('center_axis',(0.,-1.,0.));
#1211=DIRECTION('ref_axis',(-1.,0.,0.));
#1212=DIRECTION('center_axis',(0.,-1.,0.));
#1213=DIRECTION('ref_axis',(-1.,0.,0.));
#1214=DIRECTION('center_axis',(0.,-1.,0.));
#1215=DIRECTION('ref_axis',(1.,0.,0.));
#1216=DIRECTION('',(0.,-1.,0.));
#1217=DIRECTION('center_axis',(0.,-1.,0.));
#1218=DIRECTION('ref_axis',(1.,0.,0.));
#1219=DIRECTION('center_axis',(0.,1.,0.));
#1220=DIRECTION('ref_axis',(-1.,0.,0.));
#1221=DIRECTION('',(-0.707106781186546,-0.707106781186549,8.65956056235492E-17));
#1222=DIRECTION('center_axis',(0.,-1.,0.));
#1223=DIRECTION('ref_axis',(-1.,0.,0.));
#1224=DIRECTION('center_axis',(0.,-1.,0.));
#1225=DIRECTION('ref_axis',(-1.,0.,0.));
#1226=DIRECTION('center_axis',(0.,-1.,0.));
#1227=DIRECTION('ref_axis',(1.,0.,0.));
#1228=DIRECTION('',(0.,-1.,0.));
#1229=DIRECTION('center_axis',(0.,-1.,0.));
#1230=DIRECTION('ref_axis',(1.,0.,0.));
#1231=DIRECTION('center_axis',(0.,1.,0.));
#1232=DIRECTION('ref_axis',(-1.,0.,0.));
#1233=DIRECTION('',(-0.707106781186546,-0.707106781186549,8.65956056235492E-17));
#1234=DIRECTION('center_axis',(0.,-1.,0.));
#1235=DIRECTION('ref_axis',(-1.,0.,0.));
#1236=DIRECTION('center_axis',(0.,-1.,0.));
#1237=DIRECTION('ref_axis',(-1.,0.,0.));
#1238=DIRECTION('center_axis',(0.,-1.,0.));
#1239=DIRECTION('ref_axis',(1.,0.,0.));
#1240=DIRECTION('',(0.,-1.,0.));
#1241=DIRECTION('center_axis',(0.,-1.,0.));
#1242=DIRECTION('ref_axis',(1.,0.,0.));
#1243=DIRECTION('center_axis',(0.,-1.,0.));
#1244=DIRECTION('ref_axis',(0.,0.,-1.));
#1245=DIRECTION('center_axis',(-0.866025403784437,0.,-0.500000000000002));
#1246=DIRECTION('ref_axis',(0.500000000000002,0.,-0.866025403784437));
#1247=DIRECTION('center_axis',(0.,-1.,0.));
#1248=DIRECTION('ref_axis',(-0.866025403784439,0.,0.499999999999999));
#1249=DIRECTION('center_axis',(0.,0.,1.));
#1250=DIRECTION('ref_axis',(0.,-1.,0.));
#1251=DIRECTION('center_axis',(0.,1.,0.));
#1252=DIRECTION('ref_axis',(-0.866025403784439,0.,0.499999999999999));
#1253=DIRECTION('center_axis',(4.44089209850063E-16,0.,1.));
#1254=DIRECTION('ref_axis',(0.707106781186546,-0.707106781186549,0.));
#1255=DIRECTION('center_axis',(0.,0.,1.));
#1256=DIRECTION('ref_axis',(0.,-1.,0.));
#1257=DIRECTION('',(4.44089209850063E-16,0.,1.));
#1258=DIRECTION('',(-4.44089209850063E-16,0.,-1.));
#1259=DIRECTION('center_axis',(0.,-1.,0.));
#1260=DIRECTION('ref_axis',(0.,0.,-1.));
#1261=DIRECTION('center_axis',(-0.866025403784437,0.,0.500000000000002));
#1262=DIRECTION('ref_axis',(0.,-1.,0.));
#1263=DIRECTION('center_axis',(0.,1.,0.));
#1264=DIRECTION('ref_axis',(-0.866025403784439,0.,-0.499999999999999));
#1265=DIRECTION('center_axis',(0.,-1.,0.));
#1266=DIRECTION('ref_axis',(-0.866025403784439,0.,-0.499999999999999));
#1267=DIRECTION('center_axis',(0.499999999999999,0.,-0.866025403784439));
#1268=DIRECTION('ref_axis',(0.,-1.,0.));
#1269=DIRECTION('center_axis',(0.,-1.,0.));
#1270=DIRECTION('ref_axis',(0.707106781186549,0.,-0.707106781186546));
#1271=DIRECTION('center_axis',(0.,1.,0.));
#1272=DIRECTION('ref_axis',(0.707106781186549,0.,-0.707106781186546));
#1273=DIRECTION('center_axis',(0.,-1.,0.));
#1274=DIRECTION('ref_axis',(0.,0.,-1.));
#1275=DIRECTION('center_axis',(1.,0.,0.));
#1276=DIRECTION('ref_axis',(0.,-1.,0.));
#1277=DIRECTION('center_axis',(0.,1.,0.));
#1278=DIRECTION('ref_axis',(0.5,0.,0.866025403784438));
#1279=DIRECTION('center_axis',(0.,-1.,0.));
#1280=DIRECTION('ref_axis',(0.5,0.,0.866025403784438));
#1281=DIRECTION('center_axis',(1.,0.,-5.9211894646675E-17));
#1282=DIRECTION('ref_axis',(0.,-0.707106781186546,-0.707106781186549));
#1283=DIRECTION('center_axis',(1.,0.,0.));
#1284=DIRECTION('ref_axis',(0.,-1.,0.));
#1285=DIRECTION('',(1.,0.,-5.9211894646675E-17));
#1286=DIRECTION('',(-1.,0.,5.9211894646675E-17));
#1287=DIRECTION('center_axis',(0.,-1.,0.));
#1288=DIRECTION('ref_axis',(0.,0.,-1.));
#1289=DIRECTION('center_axis',(0.500000000000002,0.,0.866025403784437));
#1290=DIRECTION('ref_axis',(0.,-1.,0.));
#1291=DIRECTION('center_axis',(0.,1.,0.));
#1292=DIRECTION('ref_axis',(-0.499999999999999,0.,0.866025403784439));
#1293=DIRECTION('center_axis',(0.,-1.,0.));
#1294=DIRECTION('ref_axis',(-0.499999999999999,0.,0.866025403784439));
#1295=DIRECTION('center_axis',(-0.866025403784439,0.,-0.499999999999999));
#1296=DIRECTION('ref_axis',(0.,-1.,0.));
#1297=DIRECTION('center_axis',(0.,-1.,0.));
#1298=DIRECTION('ref_axis',(-0.707106781186546,0.,-0.707106781186549));
#1299=DIRECTION('center_axis',(0.,1.,0.));
#1300=DIRECTION('ref_axis',(-0.707106781186546,0.,-0.707106781186549));
#1301=DIRECTION('center_axis',(0.,-1.,0.));
#1302=DIRECTION('ref_axis',(0.,0.,-1.));
#1303=DIRECTION('center_axis',(0.,0.,-1.));
#1304=DIRECTION('ref_axis',(0.,-1.,0.));
#1305=DIRECTION('center_axis',(0.,1.,0.));
#1306=DIRECTION('ref_axis',(0.866025403784439,0.,-0.499999999999999));
#1307=DIRECTION('center_axis',(0.,-1.,0.));
#1308=DIRECTION('ref_axis',(0.866025403784439,0.,-0.499999999999999));
#1309=DIRECTION('center_axis',(-3.5527136788005E-16,0.,-1.));
#1310=DIRECTION('ref_axis',(-0.707106781186546,-0.707106781186549,0.));
#1311=DIRECTION('center_axis',(0.,0.,-1.));
#1312=DIRECTION('ref_axis',(0.,-1.,0.));
#1313=DIRECTION('',(-3.5527136788005E-16,0.,-1.));
#1314=DIRECTION('',(3.5527136788005E-16,0.,1.));
#1315=DIRECTION('center_axis',(0.,-1.,0.));
#1316=DIRECTION('ref_axis',(0.,0.,-1.));
#1317=DIRECTION('center_axis',(0.866025403784437,0.,-0.500000000000002));
#1318=DIRECTION('ref_axis',(0.,-1.,0.));
#1319=DIRECTION('center_axis',(0.,1.,0.));
#1320=DIRECTION('ref_axis',(0.866025403784439,0.,0.499999999999999));
#1321=DIRECTION('center_axis',(0.,-1.,0.));
#1322=DIRECTION('ref_axis',(0.866025403784439,0.,0.499999999999999));
#1323=DIRECTION('center_axis',(-0.499999999999999,0.,0.866025403784439));
#1324=DIRECTION('ref_axis',(0.,-1.,0.));
#1325=DIRECTION('center_axis',(0.,-1.,0.));
#1326=DIRECTION('ref_axis',(-0.707106781186549,0.,0.707106781186546));
#1327=DIRECTION('center_axis',(0.,1.,0.));
#1328=DIRECTION('ref_axis',(-0.707106781186549,0.,0.707106781186546));
#1329=DIRECTION('center_axis',(0.,-1.,0.));
#1330=DIRECTION('ref_axis',(0.,0.,-1.));
#1331=DIRECTION('center_axis',(-1.,0.,0.));
#1332=DIRECTION('ref_axis',(0.,-1.,0.));
#1333=DIRECTION('center_axis',(0.,1.,0.));
#1334=DIRECTION('ref_axis',(-0.499999999999999,0.,-0.866025403784439));
#1335=DIRECTION('center_axis',(0.,-1.,0.));
#1336=DIRECTION('ref_axis',(-0.499999999999999,0.,-0.866025403784439));
#1337=DIRECTION('center_axis',(-1.,0.,5.9211894646675E-17));
#1338=DIRECTION('ref_axis',(0.,-0.707106781186549,0.707106781186546));
#1339=DIRECTION('center_axis',(-1.,0.,0.));
#1340=DIRECTION('ref_axis',(0.,-1.,0.));
#1341=DIRECTION('',(-1.,0.,5.9211894646675E-17));
#1342=DIRECTION('',(1.,0.,-5.9211894646675E-17));
#1343=DIRECTION('center_axis',(0.,-1.,0.));
#1344=DIRECTION('ref_axis',(0.,0.,-1.));
#1345=DIRECTION('center_axis',(-0.500000000000002,0.,-0.866025403784437));
#1346=DIRECTION('ref_axis',(0.,-1.,0.));
#1347=DIRECTION('center_axis',(0.,1.,0.));
#1348=DIRECTION('ref_axis',(0.499999999999999,0.,-0.866025403784439));
#1349=DIRECTION('center_axis',(0.,-1.,0.));
#1350=DIRECTION('ref_axis',(0.499999999999999,0.,-0.866025403784439));
#1351=DIRECTION('center_axis',(0.,1.,0.));
#1352=DIRECTION('ref_axis',(0.707106781186549,0.,0.707106781186546));
#1353=DIRECTION('center_axis',(0.,-1.,0.));
#1354=DIRECTION('ref_axis',(0.707106781186549,0.,0.707106781186546));
#1355=DIRECTION('center_axis',(-1.,0.,3.5527136788005E-16));
#1356=DIRECTION('ref_axis',(-3.5527136788005E-16,0.,-1.));
#1357=DIRECTION('',(0.,-1.,0.));
#1358=DIRECTION('',(0.,1.,0.));
#1359=DIRECTION('center_axis',(0.,-1.,0.));
#1360=DIRECTION('ref_axis',(0.866025403784439,0.,0.499999999999999));
#1361=DIRECTION('',(0.,1.,0.));
#1362=DIRECTION('center_axis',(0.,-1.,0.));
#1363=DIRECTION('ref_axis',(-0.707106781186547,0.,0.707106781186548));
#1364=DIRECTION('',(0.,-1.,0.));
#1365=DIRECTION('center_axis',(0.,1.,0.));
#1366=DIRECTION('ref_axis',(-0.499999999999999,0.,-0.866025403784439));
#1367=DIRECTION('',(0.,1.,0.));
#1368=DIRECTION('center_axis',(5.9211894646675E-17,0.,1.));
#1369=DIRECTION('ref_axis',(-1.,0.,5.9211894646675E-17));
#1370=DIRECTION('',(0.,-1.,0.));
#1371=DIRECTION('center_axis',(0.,1.,0.));
#1372=DIRECTION('ref_axis',(0.5,0.,-0.866025403784439));
#1373=DIRECTION('',(0.,1.,0.));
#1374=DIRECTION('center_axis',(0.,-1.,0.));
#1375=DIRECTION('ref_axis',(0.707106781186548,0.,0.707106781186547));
#1376=DIRECTION('',(0.,-1.,0.));
#1377=DIRECTION('center_axis',(0.,1.,0.));
#1378=DIRECTION('ref_axis',(-0.866025403784439,0.,0.499999999999999));
#1379=DIRECTION('',(0.,1.,0.));
#1380=DIRECTION('center_axis',(0.,1.,0.));
#1381=DIRECTION('ref_axis',(0.,0.,1.));
#1382=DIRECTION('center_axis',(0.,1.,0.));
#1383=DIRECTION('ref_axis',(-1.,0.,0.));
#1384=DIRECTION('center_axis',(0.,1.,0.));
#1385=DIRECTION('ref_axis',(-1.,0.,0.));
#1386=DIRECTION('center_axis',(0.,1.,0.));
#1387=DIRECTION('ref_axis',(-1.,0.,0.));
#1388=DIRECTION('center_axis',(0.,1.,0.));
#1389=DIRECTION('ref_axis',(-1.,0.,0.));
#1390=DIRECTION('center_axis',(0.,1.,0.));
#1391=DIRECTION('ref_axis',(0.707106781186549,0.,0.707106781186546));
#1392=DIRECTION('center_axis',(0.,1.,0.));
#1393=DIRECTION('ref_axis',(0.707106781186549,0.,0.707106781186546));
#1394=DIRECTION('',(0.,1.,0.));
#1395=DIRECTION('',(0.,-1.,0.));
#1396=DIRECTION('center_axis',(-1.,0.,2.80477395694776E-16));
#1397=DIRECTION('ref_axis',(2.80477395694776E-16,0.,1.));
#1398=DIRECTION('',(0.,1.,0.));
#1399=DIRECTION('',(-2.80477395694776E-16,0.,-1.));
#1400=DIRECTION('center_axis',(0.,1.,0.));
#1401=DIRECTION('ref_axis',(0.707106781186546,0.,-0.707106781186549));
#1402=DIRECTION('center_axis',(0.,1.,0.));
#1403=DIRECTION('ref_axis',(0.707106781186546,0.,-0.707106781186549));
#1404=DIRECTION('',(0.,-1.,0.));
#1405=DIRECTION('center_axis',(1.8376105235175E-16,0.,1.));
#1406=DIRECTION('ref_axis',(1.,0.,-1.8376105235175E-16));
#1407=DIRECTION('',(0.,1.,0.));
#1408=DIRECTION('',(-1.,0.,1.8376105235175E-16));
#1409=DIRECTION('center_axis',(0.,1.,0.));
#1410=DIRECTION('ref_axis',(-0.707106781186548,0.,-0.707106781186548));
#1411=DIRECTION('center_axis',(0.,1.,0.));
#1412=DIRECTION('ref_axis',(-0.707106781186548,0.,-0.707106781186548));
#1413=DIRECTION('',(0.,-1.,0.));
#1414=DIRECTION('center_axis',(1.,0.,-2.80477395694776E-16));
#1415=DIRECTION('ref_axis',(-2.80477395694776E-16,0.,-1.));
#1416=DIRECTION('',(0.,1.,0.));
#1417=DIRECTION('',(2.80477395694776E-16,0.,1.));
#1418=DIRECTION('center_axis',(0.,1.,0.));
#1419=DIRECTION('ref_axis',(-0.707106781186548,0.,0.707106781186548));
#1420=DIRECTION('center_axis',(0.,1.,0.));
#1421=DIRECTION('ref_axis',(-0.707106781186548,0.,0.707106781186548));
#1422=DIRECTION('',(0.,-1.,0.));
#1423=DIRECTION('center_axis',(-3.0626842058625E-16,0.,-1.));
#1424=DIRECTION('ref_axis',(-1.,0.,3.0626842058625E-16));
#1425=DIRECTION('',(1.,0.,-3.0626842058625E-16));
#1426=DIRECTION('center_axis',(0.,1.,0.));
#1427=DIRECTION('ref_axis',(0.866025403784439,0.,-0.499999999999999));
#1428=DIRECTION('',(0.,-1.,0.));
#1429=DIRECTION('center_axis',(0.,1.,0.));
#1430=DIRECTION('ref_axis',(-0.499999999999999,0.,0.866025403784439));
#1431=DIRECTION('',(0.,1.,0.));
#1432=DIRECTION('',(0.,-1.,0.));
#1433=DIRECTION('center_axis',(0.,-1.,0.));
#1434=DIRECTION('ref_axis',(-0.707106781186548,0.,-0.707106781186547));
#1435=DIRECTION('center_axis',(0.,1.,0.));
#1436=DIRECTION('ref_axis',(0.5,0.,0.866025403784439));
#1437=DIRECTION('',(0.,1.,0.));
#1438=DIRECTION('',(0.,-1.,0.));
#1439=DIRECTION('center_axis',(-5.9211894646675E-17,0.,-1.));
#1440=DIRECTION('ref_axis',(1.,0.,-5.9211894646675E-17));
#1441=DIRECTION('center_axis',(0.,1.,0.));
#1442=DIRECTION('ref_axis',(-0.866025403784439,0.,-0.499999999999999));
#1443=DIRECTION('',(0.,1.,0.));
#1444=DIRECTION('',(0.,-1.,0.));
#1445=DIRECTION('center_axis',(0.,-1.,0.));
#1446=DIRECTION('ref_axis',(0.707106781186548,0.,-0.707106781186547));
#1447=DIRECTION('center_axis',(1.,0.,-4.44089209850063E-16));
#1448=DIRECTION('ref_axis',(4.44089209850063E-16,0.,1.));
#1449=DIRECTION('center_axis',(0.,-1.,0.));
#1450=DIRECTION('ref_axis',(-1.,0.,0.));
#1451=DIRECTION('center_axis',(0.,-1.,0.));
#1452=DIRECTION('ref_axis',(-1.,0.,0.));
#1453=DIRECTION('',(0.,-1.,0.));
#1454=DIRECTION('center_axis',(0.,-1.,0.));
#1455=DIRECTION('ref_axis',(-1.,0.,0.));
#1456=DIRECTION('center_axis',(0.,-1.,0.));
#1457=DIRECTION('ref_axis',(-1.,0.,0.));
#1458=DIRECTION('',(0.,-1.,0.));
#1459=DIRECTION('center_axis',(0.,-1.,0.));
#1460=DIRECTION('ref_axis',(-1.,0.,0.));
#1461=DIRECTION('center_axis',(0.,-1.,0.));
#1462=DIRECTION('ref_axis',(-1.,0.,0.));
#1463=DIRECTION('',(0.,-1.,0.));
#1464=DIRECTION('center_axis',(0.,-1.,0.));
#1465=DIRECTION('ref_axis',(-1.,0.,0.));
#1466=DIRECTION('center_axis',(0.,-1.,0.));
#1467=DIRECTION('ref_axis',(-1.,0.,0.));
#1468=DIRECTION('',(0.,-1.,0.));
#1469=DIRECTION('center_axis',(0.,1.,0.));
#1470=DIRECTION('ref_axis',(0.,0.,1.));
#1471=DIRECTION('center_axis',(0.,1.,0.));
#1472=DIRECTION('ref_axis',(0.,0.,1.));
#1473=DIRECTION('center_axis',(0.,1.,0.));
#1474=DIRECTION('ref_axis',(0.,0.,1.));
#1475=DIRECTION('center_axis',(0.,1.,0.));
#1476=DIRECTION('ref_axis',(0.,0.,1.));
#1477=DIRECTION('center_axis',(0.,1.,0.));
#1478=DIRECTION('ref_axis',(0.,0.,1.));
#1479=CARTESIAN_POINT('',(0.,0.,0.));
#1480=CARTESIAN_POINT('Origin',(75.,7.5,50.));
#1481=CARTESIAN_POINT('',(78.,8.,50.));
#1482=CARTESIAN_POINT('Origin',(75.,8.,50.));
#1483=CARTESIAN_POINT('',(77.,7.,50.));
#1484=CARTESIAN_POINT('',(77.5,7.5,50.));
#1485=CARTESIAN_POINT('',(73.,7.,50.));
#1486=CARTESIAN_POINT('Origin',(75.,7.,50.));
#1487=CARTESIAN_POINT('Origin',(75.,7.,50.));
#1488=CARTESIAN_POINT('Origin',(4.44089209850063E-15,8.,-4.44089209850063E-15));
#1489=CARTESIAN_POINT('',(-77.,8.,46.5358983848623));
#1490=CARTESIAN_POINT('',(-71.5358983848622,8.,52.));
#1491=CARTESIAN_POINT('Origin',(-75.,8.,50.));
#1492=CARTESIAN_POINT('',(-68.0717967697245,8.,50.));
#1493=CARTESIAN_POINT('Origin',(-68.0717967697245,8.,54.));
#1494=CARTESIAN_POINT('',(68.0717967697245,8.,50.));
#1495=CARTESIAN_POINT('',(-75.,8.,50.));
#1496=CARTESIAN_POINT('',(71.5358983848623,8.,52.));
#1497=CARTESIAN_POINT('Origin',(68.0717967697245,8.,54.));
#1498=CARTESIAN_POINT('',(77.,8.,46.5358983848622));
#1499=CARTESIAN_POINT('Origin',(75.,8.,50.));
#1500=CARTESIAN_POINT('',(75.,8.,43.0717967697245));
#1501=CARTESIAN_POINT('Origin',(79.,8.,43.0717967697245));
#1502=CARTESIAN_POINT('',(75.,8.,-43.0717967697245));
#1503=CARTESIAN_POINT('',(75.,8.,50.));
#1504=CARTESIAN_POINT('',(77.,8.,-46.5358983848623));
#1505=CARTESIAN_POINT('Origin',(79.,8.,-43.0717967697245));
#1506=CARTESIAN_POINT('',(71.5358983848622,8.,-52.));
#1507=CARTESIAN_POINT('Origin',(75.,8.,-50.));
#1508=CARTESIAN_POINT('',(68.0717967697245,8.,-50.));
#1509=CARTESIAN_POINT('Origin',(68.0717967697245,8.,-54.));
#1510=CARTESIAN_POINT('',(-68.0717967697245,8.,-50.));
#1511=CARTESIAN_POINT('',(75.,8.,-50.));
#1512=CARTESIAN_POINT('',(-71.5358983848623,8.,-52.));
#1513=CARTESIAN_POINT('Origin',(-68.0717967697245,8.,-54.));
#1514=CARTESIAN_POINT('',(-77.,8.,-46.5358983848623));
#1515=CARTESIAN_POINT('Origin',(-75.,8.,-50.));
#1516=CARTESIAN_POINT('',(-75.,8.,-43.0717967697245));
#1517=CARTESIAN_POINT('Origin',(-79.,8.,-43.0717967697245));
#1518=CARTESIAN_POINT('',(-75.,8.,43.0717967697245));
#1519=CARTESIAN_POINT('',(-75.,8.,-50.));
#1520=CARTESIAN_POINT('Origin',(-79.,8.,43.0717967697245));
#1521=CARTESIAN_POINT('',(78.,8.,-50.));
#1522=CARTESIAN_POINT('Origin',(75.,8.,-50.));
#1523=CARTESIAN_POINT('',(-72.,8.,50.));
#1524=CARTESIAN_POINT('Origin',(-75.,8.,50.));
#1525=CARTESIAN_POINT('',(68.5,8.,47.5));
#1526=CARTESIAN_POINT('',(-68.5,8.,47.5));
#1527=CARTESIAN_POINT('',(72.5,8.,47.5));
#1528=CARTESIAN_POINT('',(-72.5,8.,43.5));
#1529=CARTESIAN_POINT('Origin',(-68.5,8.,43.5));
#1530=CARTESIAN_POINT('',(-72.5,8.,-43.5));
#1531=CARTESIAN_POINT('',(-72.5,8.,47.5));
#1532=CARTESIAN_POINT('',(-68.5,8.,-47.5));
#1533=CARTESIAN_POINT('Origin',(-68.5,8.,-43.5));
#1534=CARTESIAN_POINT('',(68.5,8.,-47.5));
#1535=CARTESIAN_POINT('',(-72.5,8.,-47.5));
#1536=CARTESIAN_POINT('',(72.5,8.,-43.5));
#1537=CARTESIAN_POINT('Origin',(68.5,8.,-43.5));
#1538=CARTESIAN_POINT('',(72.5,8.,43.5));
#1539=CARTESIAN_POINT('',(72.5,8.,-47.5));
#1540=CARTESIAN_POINT('Origin',(68.5,8.,43.5));
#1541=CARTESIAN_POINT('',(-72.,8.,-50.));
#1542=CARTESIAN_POINT('Origin',(-75.,8.,-50.));
#1543=CARTESIAN_POINT('Origin',(75.,8.,50.));
#1544=CARTESIAN_POINT('',(73.,0.,50.));
#1545=CARTESIAN_POINT('',(73.,8.,50.));
#1546=CARTESIAN_POINT('Origin',(75.,0.,50.));
#1547=CARTESIAN_POINT('Origin',(75.,7.5,-50.));
#1548=CARTESIAN_POINT('',(77.,7.,-50.));
#1549=CARTESIAN_POINT('',(77.5,7.5,-50.));
#1550=CARTESIAN_POINT('',(73.,7.,-50.));
#1551=CARTESIAN_POINT('Origin',(75.,7.,-50.));
#1552=CARTESIAN_POINT('Origin',(75.,7.,-50.));
#1553=CARTESIAN_POINT('Origin',(75.,8.,-50.));
#1554=CARTESIAN_POINT('',(73.,0.,-50.));
#1555=CARTESIAN_POINT('',(73.,8.,-50.));
#1556=CARTESIAN_POINT('Origin',(75.,0.,-50.));
#1557=CARTESIAN_POINT('Origin',(-75.,7.5,-50.));
#1558=CARTESIAN_POINT('',(-73.,7.,-50.));
#1559=CARTESIAN_POINT('',(-72.5,7.5,-50.));
#1560=CARTESIAN_POINT('',(-77.,7.,-50.));
#1561=CARTESIAN_POINT('Origin',(-75.,7.,-50.));
#1562=CARTESIAN_POINT('Origin',(-75.,7.,-50.));
#1563=CARTESIAN_POINT('Origin',(-75.,8.,-50.));
#1564=CARTESIAN_POINT('',(-77.,0.,-50.));
#1565=CARTESIAN_POINT('',(-77.,8.,-50.));
#1566=CARTESIAN_POINT('Origin',(-75.,0.,-50.));
#1567=CARTESIAN_POINT('Origin',(-75.,7.5,50.));
#1568=CARTESIAN_POINT('',(-73.,7.,50.));
#1569=CARTESIAN_POINT('',(-72.5,7.5,50.));
#1570=CARTESIAN_POINT('',(-77.,7.,50.));
#1571=CARTESIAN_POINT('Origin',(-75.,7.,50.));
#1572=CARTESIAN_POINT('Origin',(-75.,7.,50.));
#1573=CARTESIAN_POINT('Origin',(-75.,8.,50.));
#1574=CARTESIAN_POINT('',(-77.,0.,50.));
#1575=CARTESIAN_POINT('',(-77.,8.,50.));
#1576=CARTESIAN_POINT('Origin',(-75.,0.,50.));
#1577=CARTESIAN_POINT('Origin',(79.,-0.5,43.0717967697245));
#1578=CARTESIAN_POINT('',(77.,-0.5,46.5358983848622));
#1579=CARTESIAN_POINT('',(76.,-2.5,48.2679491924311));
#1580=CARTESIAN_POINT('Origin',(76.,-0.5,48.2679491924311));
#1581=CARTESIAN_POINT('',(73.,-2.5,43.0717967697245));
#1582=CARTESIAN_POINT('Origin',(79.,-2.5,43.0717967697245));
#1583=CARTESIAN_POINT('',(75.,-0.5,43.0717967697245));
#1584=CARTESIAN_POINT('Origin',(73.,-0.5,43.0717967697245));
#1585=CARTESIAN_POINT('Origin',(79.,-0.5,43.0717967697245));
#1586=CARTESIAN_POINT('Origin',(73.,-0.5,-23.));
#1587=CARTESIAN_POINT('',(73.,-2.5,-43.0717967697245));
#1588=CARTESIAN_POINT('',(75.,-0.5,-43.0717967697245));
#1589=CARTESIAN_POINT('Origin',(73.,-0.5,-43.0717967697245));
#1590=CARTESIAN_POINT('',(75.,-0.5,-23.));
#1591=CARTESIAN_POINT('',(73.,-2.5,-23.));
#1592=CARTESIAN_POINT('Origin',(79.,-0.5,-43.0717967697245));
#1593=CARTESIAN_POINT('',(76.,-2.5,-48.2679491924311));
#1594=CARTESIAN_POINT('',(77.,-0.5,-46.5358983848623));
#1595=CARTESIAN_POINT('Origin',(76.,-0.5,-48.2679491924311));
#1596=CARTESIAN_POINT('Origin',(79.,-0.5,-43.0717967697245));
#1597=CARTESIAN_POINT('Origin',(79.,-2.5,-43.0717967697245));
#1598=CARTESIAN_POINT('Ctrl Pts',(71.5358983848622,-0.5,-52.));
#1599=CARTESIAN_POINT('Ctrl Pts',(72.9363134612816,-0.5,-54.4255900640439));
#1600=CARTESIAN_POINT('Ctrl Pts',(75.6945927106677,-0.5,-53.9392310120488));
#1601=CARTESIAN_POINT('Ctrl Pts',(78.4528719600538,-0.5,-53.4528719600538));
#1602=CARTESIAN_POINT('Ctrl Pts',(78.9392310120488,-0.5,-50.6945927106677));
#1603=CARTESIAN_POINT('Ctrl Pts',(79.4255900640439,-0.5,-47.9363134612817));
#1604=CARTESIAN_POINT('Ctrl Pts',(77.,-0.5,-46.5358983848623));
#1605=CARTESIAN_POINT('Ctrl Pts',(71.5358983848622,-2.5,-52.));
#1606=CARTESIAN_POINT('Ctrl Pts',(72.9363134612816,-2.5,-54.4255900640439));
#1607=CARTESIAN_POINT('Ctrl Pts',(75.6945927106677,-2.5,-53.9392310120488));
#1608=CARTESIAN_POINT('Ctrl Pts',(78.4528719600538,-2.5,-53.4528719600538));
#1609=CARTESIAN_POINT('Ctrl Pts',(78.9392310120488,-2.5,-50.6945927106677));
#1610=CARTESIAN_POINT('Ctrl Pts',(79.4255900640439,-2.5,-47.9363134612817));
#1611=CARTESIAN_POINT('Ctrl Pts',(77.,-2.5,-46.5358983848623));
#1612=CARTESIAN_POINT('Ctrl Pts',(73.2679491924311,-2.5,-51.));
#1613=CARTESIAN_POINT('Ctrl Pts',(73.9681567306408,-2.5,-52.212795032022));
#1614=CARTESIAN_POINT('Ctrl Pts',(75.3472963553338,-2.5,-51.9696155060244));
#1615=CARTESIAN_POINT('Ctrl Pts',(76.7264359800269,-2.5,-51.7264359800269));
#1616=CARTESIAN_POINT('Ctrl Pts',(76.9696155060244,-2.5,-50.3472963553339));
#1617=CARTESIAN_POINT('Ctrl Pts',(77.2127950320219,-2.5,-48.9681567306408));
#1618=CARTESIAN_POINT('Ctrl Pts',(76.,-2.5,-48.2679491924311));
#1619=CARTESIAN_POINT('',(73.2679491924311,-2.5,-51.));
#1620=CARTESIAN_POINT('',(71.5358983848622,-0.5,-52.));
#1621=CARTESIAN_POINT('Origin',(73.2679491924311,-0.5,-51.));
#1622=CARTESIAN_POINT('Origin',(75.,-0.5,-50.));
#1623=CARTESIAN_POINT('Origin',(75.,-2.5,-50.));
#1624=CARTESIAN_POINT('Origin',(68.0717967697245,-0.5,-54.));
#1625=CARTESIAN_POINT('',(68.0717967697245,-2.5,-48.));
#1626=CARTESIAN_POINT('',(68.0717967697245,-0.5,-50.));
#1627=CARTESIAN_POINT('Origin',(68.0717967697245,-0.5,-48.));
#1628=CARTESIAN_POINT('Origin',(68.0717967697245,-0.5,-54.));
#1629=CARTESIAN_POINT('Origin',(68.0717967697245,-2.5,-54.));
#1630=CARTESIAN_POINT('Origin',(-35.5,-0.5,-48.));
#1631=CARTESIAN_POINT('',(-68.0717967697245,-2.5,-48.));
#1632=CARTESIAN_POINT('',(-68.0717967697245,-0.5,-50.));
#1633=CARTESIAN_POINT('Origin',(-68.0717967697245,-0.5,-48.));
#1634=CARTESIAN_POINT('',(-35.5,-0.5,-50.));
#1635=CARTESIAN_POINT('',(-35.5,-2.5,-48.));
#1636=CARTESIAN_POINT('Origin',(-68.0717967697245,-0.5,-54.));
#1637=CARTESIAN_POINT('',(-73.2679491924311,-2.5,-51.));
#1638=CARTESIAN_POINT('',(-71.5358983848623,-0.5,-52.));
#1639=CARTESIAN_POINT('Origin',(-73.2679491924311,-0.5,-51.));
#1640=CARTESIAN_POINT('Origin',(-68.0717967697245,-0.5,-54.));
#1641=CARTESIAN_POINT('Origin',(-68.0717967697245,-2.5,-54.));
#1642=CARTESIAN_POINT('Ctrl Pts',(-77.,-0.5,-46.5358983848622));
#1643=CARTESIAN_POINT('Ctrl Pts',(-79.4255900640439,-0.5,-47.9363134612817));
#1644=CARTESIAN_POINT('Ctrl Pts',(-78.9392310120489,-0.5,-50.6945927106677));
#1645=CARTESIAN_POINT('Ctrl Pts',(-78.4528719600538,-0.5,-53.4528719600538));
#1646=CARTESIAN_POINT('Ctrl Pts',(-75.6945927106677,-0.5,-53.9392310120488));
#1647=CARTESIAN_POINT('Ctrl Pts',(-72.9363134612817,-0.5,-54.4255900640439));
#1648=CARTESIAN_POINT('Ctrl Pts',(-71.5358983848623,-0.5,-52.));
#1649=CARTESIAN_POINT('Ctrl Pts',(-77.,-2.5,-46.5358983848622));
#1650=CARTESIAN_POINT('Ctrl Pts',(-79.4255900640439,-2.5,-47.9363134612817));
#1651=CARTESIAN_POINT('Ctrl Pts',(-78.9392310120489,-2.5,-50.6945927106677));
#1652=CARTESIAN_POINT('Ctrl Pts',(-78.4528719600538,-2.5,-53.4528719600538));
#1653=CARTESIAN_POINT('Ctrl Pts',(-75.6945927106677,-2.5,-53.9392310120488));
#1654=CARTESIAN_POINT('Ctrl Pts',(-72.9363134612817,-2.5,-54.4255900640439));
#1655=CARTESIAN_POINT('Ctrl Pts',(-71.5358983848623,-2.5,-52.));
#1656=CARTESIAN_POINT('Ctrl Pts',(-76.,-2.5,-48.2679491924311));
#1657=CARTESIAN_POINT('Ctrl Pts',(-77.212795032022,-2.5,-48.9681567306408));
#1658=CARTESIAN_POINT('Ctrl Pts',(-76.9696155060244,-2.5,-50.3472963553339));
#1659=CARTESIAN_POINT('Ctrl Pts',(-76.7264359800269,-2.5,-51.7264359800269));
#1660=CARTESIAN_POINT('Ctrl Pts',(-75.3472963553339,-2.5,-51.9696155060244));
#1661=CARTESIAN_POINT('Ctrl Pts',(-73.9681567306408,-2.5,-52.2127950320219));
#1662=CARTESIAN_POINT('Ctrl Pts',(-73.2679491924311,-2.5,-51.));
#1663=CARTESIAN_POINT('',(-76.,-2.5,-48.2679491924311));
#1664=CARTESIAN_POINT('',(-77.,-0.5,-46.5358983848623));
#1665=CARTESIAN_POINT('Origin',(-76.,-0.5,-48.2679491924311));
#1666=CARTESIAN_POINT('Origin',(-75.,-0.5,-50.));
#1667=CARTESIAN_POINT('Origin',(-75.,-2.5,-50.));
#1668=CARTESIAN_POINT('Origin',(-79.,-0.5,-43.0717967697245));
#1669=CARTESIAN_POINT('',(-73.,-2.5,-43.0717967697245));
#1670=CARTESIAN_POINT('',(-75.,-0.5,-43.0717967697245));
#1671=CARTESIAN_POINT('Origin',(-73.,-0.5,-43.0717967697245));
#1672=CARTESIAN_POINT('Origin',(-79.,-0.5,-43.0717967697245));
#1673=CARTESIAN_POINT('Origin',(-79.,-2.5,-43.0717967697245));
#1674=CARTESIAN_POINT('Origin',(-73.,-0.5,23.));
#1675=CARTESIAN_POINT('',(-73.,-2.5,43.0717967697245));
#1676=CARTESIAN_POINT('',(-75.,-0.5,43.0717967697245));
#1677=CARTESIAN_POINT('Origin',(-73.,-0.5,43.0717967697245));
#1678=CARTESIAN_POINT('',(-75.,-0.5,23.));
#1679=CARTESIAN_POINT('',(-73.,-2.5,23.));
#1680=CARTESIAN_POINT('Origin',(-79.,-0.5,43.0717967697245));
#1681=CARTESIAN_POINT('',(-76.,-2.5,48.2679491924311));
#1682=CARTESIAN_POINT('',(-77.,-0.5,46.5358983848623));
#1683=CARTESIAN_POINT('Origin',(-76.,-0.5,48.2679491924311));
#1684=CARTESIAN_POINT('Origin',(-79.,-0.5,43.0717967697245));
#1685=CARTESIAN_POINT('Origin',(-79.,-2.5,43.0717967697245));
#1686=CARTESIAN_POINT('Ctrl Pts',(-71.5358983848622,-0.5,52.));
#1687=CARTESIAN_POINT('Ctrl Pts',(-72.9363134612816,-0.5,54.4255900640439));
#1688=CARTESIAN_POINT('Ctrl Pts',(-75.6945927106677,-0.5,53.9392310120488));
#1689=CARTESIAN_POINT('Ctrl Pts',(-78.4528719600538,-0.5,53.4528719600538));
#1690=CARTESIAN_POINT('Ctrl Pts',(-78.9392310120488,-0.5,50.6945927106677));
#1691=CARTESIAN_POINT('Ctrl Pts',(-79.4255900640439,-0.5,47.9363134612817));
#1692=CARTESIAN_POINT('Ctrl Pts',(-77.,-0.5,46.5358983848623));
#1693=CARTESIAN_POINT('Ctrl Pts',(-71.5358983848622,-2.5,52.));
#1694=CARTESIAN_POINT('Ctrl Pts',(-72.9363134612816,-2.5,54.4255900640439));
#1695=CARTESIAN_POINT('Ctrl Pts',(-75.6945927106677,-2.5,53.9392310120488));
#1696=CARTESIAN_POINT('Ctrl Pts',(-78.4528719600538,-2.5,53.4528719600538));
#1697=CARTESIAN_POINT('Ctrl Pts',(-78.9392310120488,-2.5,50.6945927106677));
#1698=CARTESIAN_POINT('Ctrl Pts',(-79.4255900640439,-2.5,47.9363134612817));
#1699=CARTESIAN_POINT('Ctrl Pts',(-77.,-2.5,46.5358983848623));
#1700=CARTESIAN_POINT('Ctrl Pts',(-73.2679491924311,-2.5,51.));
#1701=CARTESIAN_POINT('Ctrl Pts',(-73.9681567306408,-2.5,52.2127950320219));
#1702=CARTESIAN_POINT('Ctrl Pts',(-75.3472963553338,-2.5,51.9696155060244));
#1703=CARTESIAN_POINT('Ctrl Pts',(-76.7264359800269,-2.5,51.7264359800269));
#1704=CARTESIAN_POINT('Ctrl Pts',(-76.9696155060244,-2.5,50.3472963553339));
#1705=CARTESIAN_POINT('Ctrl Pts',(-77.2127950320219,-2.5,48.9681567306408));
#1706=CARTESIAN_POINT('Ctrl Pts',(-76.,-2.5,48.2679491924311));
#1707=CARTESIAN_POINT('',(-73.2679491924311,-2.5,51.));
#1708=CARTESIAN_POINT('',(-71.5358983848622,-0.5,52.));
#1709=CARTESIAN_POINT('Origin',(-73.2679491924311,-0.5,51.));
#1710=CARTESIAN_POINT('Origin',(-75.,-0.5,50.));
#1711=CARTESIAN_POINT('Origin',(-75.,-2.5,50.));
#1712=CARTESIAN_POINT('Origin',(-68.0717967697245,-0.5,54.));
#1713=CARTESIAN_POINT('',(-68.0717967697245,-2.5,48.));
#1714=CARTESIAN_POINT('',(-68.0717967697245,-0.5,50.));
#1715=CARTESIAN_POINT('Origin',(-68.0717967697245,-0.5,48.));
#1716=CARTESIAN_POINT('Origin',(-68.0717967697245,-0.5,54.));
#1717=CARTESIAN_POINT('Origin',(-68.0717967697245,-2.5,54.));
#1718=CARTESIAN_POINT('Origin',(35.5,-0.5,48.));
#1719=CARTESIAN_POINT('',(68.0717967697245,-2.5,48.));
#1720=CARTESIAN_POINT('',(68.0717967697245,-0.5,50.));
#1721=CARTESIAN_POINT('Origin',(68.0717967697245,-0.5,48.));
#1722=CARTESIAN_POINT('',(35.5,-0.5,50.));
#1723=CARTESIAN_POINT('',(35.5,-2.5,48.));
#1724=CARTESIAN_POINT('Origin',(68.0717967697245,-0.5,54.));
#1725=CARTESIAN_POINT('',(73.2679491924311,-2.5,51.));
#1726=CARTESIAN_POINT('',(71.5358983848623,-0.5,52.));
#1727=CARTESIAN_POINT('Origin',(73.2679491924311,-0.5,51.));
#1728=CARTESIAN_POINT('Origin',(68.0717967697245,-0.5,54.));
#1729=CARTESIAN_POINT('Origin',(68.0717967697245,-2.5,54.));
#1730=CARTESIAN_POINT('Ctrl Pts',(77.,-0.5,46.5358983848622));
#1731=CARTESIAN_POINT('Ctrl Pts',(79.4255900640439,-0.5,47.9363134612816));
#1732=CARTESIAN_POINT('Ctrl Pts',(78.9392310120489,-0.5,50.6945927106677));
#1733=CARTESIAN_POINT('Ctrl Pts',(78.4528719600538,-0.5,53.4528719600538));
#1734=CARTESIAN_POINT('Ctrl Pts',(75.6945927106677,-0.5,53.9392310120488));
#1735=CARTESIAN_POINT('Ctrl Pts',(72.9363134612817,-0.5,54.4255900640439));
#1736=CARTESIAN_POINT('Ctrl Pts',(71.5358983848623,-0.5,52.));
#1737=CARTESIAN_POINT('Ctrl Pts',(77.,-2.5,46.5358983848622));
#1738=CARTESIAN_POINT('Ctrl Pts',(79.4255900640439,-2.5,47.9363134612816));
#1739=CARTESIAN_POINT('Ctrl Pts',(78.9392310120489,-2.5,50.6945927106677));
#1740=CARTESIAN_POINT('Ctrl Pts',(78.4528719600538,-2.5,53.4528719600538));
#1741=CARTESIAN_POINT('Ctrl Pts',(75.6945927106677,-2.5,53.9392310120488));
#1742=CARTESIAN_POINT('Ctrl Pts',(72.9363134612817,-2.5,54.4255900640439));
#1743=CARTESIAN_POINT('Ctrl Pts',(71.5358983848623,-2.5,52.));
#1744=CARTESIAN_POINT('Ctrl Pts',(76.,-2.5,48.2679491924311));
#1745=CARTESIAN_POINT('Ctrl Pts',(77.212795032022,-2.5,48.9681567306408));
#1746=CARTESIAN_POINT('Ctrl Pts',(76.9696155060244,-2.5,50.3472963553338));
#1747=CARTESIAN_POINT('Ctrl Pts',(76.7264359800269,-2.5,51.7264359800269));
#1748=CARTESIAN_POINT('Ctrl Pts',(75.3472963553339,-2.5,51.9696155060244));
#1749=CARTESIAN_POINT('Ctrl Pts',(73.9681567306409,-2.5,52.2127950320219));
#1750=CARTESIAN_POINT('Ctrl Pts',(73.2679491924311,-2.5,51.));
#1751=CARTESIAN_POINT('Origin',(75.,-2.5,50.));
#1752=CARTESIAN_POINT('Origin',(75.,-0.5,50.));
#1753=CARTESIAN_POINT('Origin',(-75.,0.,46.));
#1754=CARTESIAN_POINT('',(-75.,0.,43.0717967697245));
#1755=CARTESIAN_POINT('',(-75.,0.,-43.0717967697245));
#1756=CARTESIAN_POINT('Origin',(-79.,0.,43.0717967697245));
#1757=CARTESIAN_POINT('',(-77.,0.,46.5358983848623));
#1758=CARTESIAN_POINT('Origin',(-75.,0.,50.));
#1759=CARTESIAN_POINT('',(-71.5358983848622,0.,52.));
#1760=CARTESIAN_POINT('Origin',(-68.0717967697245,0.,54.));
#1761=CARTESIAN_POINT('',(-68.0717967697245,0.,50.));
#1762=CARTESIAN_POINT('Origin',(71.,0.,50.));
#1763=CARTESIAN_POINT('',(68.0717967697245,0.,50.));
#1764=CARTESIAN_POINT('Origin',(68.0717967697245,0.,54.));
#1765=CARTESIAN_POINT('',(71.5358983848623,0.,52.));
#1766=CARTESIAN_POINT('Origin',(75.,0.,50.));
#1767=CARTESIAN_POINT('',(77.,0.,46.5358983848622));
#1768=CARTESIAN_POINT('Origin',(79.,0.,43.0717967697245));
#1769=CARTESIAN_POINT('',(75.,0.,43.0717967697245));
#1770=CARTESIAN_POINT('Origin',(4.44089209850063E-15,-2.5,-4.44089209850063E-15));
#1771=CARTESIAN_POINT('',(-8.25000000000001,-2.5,-40.));
#1772=CARTESIAN_POINT('Origin',(-10.,-2.5,-40.));
#1773=CARTESIAN_POINT('',(11.75,-2.5,40.));
#1774=CARTESIAN_POINT('Origin',(10.,-2.5,40.));
#1775=CARTESIAN_POINT('',(11.75,-2.5,-40.));
#1776=CARTESIAN_POINT('Origin',(9.99999999999999,-2.5,-40.));
#1777=CARTESIAN_POINT('',(-8.24999999999999,-2.5,40.));
#1778=CARTESIAN_POINT('Origin',(-9.99999999999999,-2.5,40.));
#1779=CARTESIAN_POINT('Origin',(68.5,0.,43.5));
#1780=CARTESIAN_POINT('',(68.5,0.,47.5));
#1781=CARTESIAN_POINT('',(72.5,0.,43.5));
#1782=CARTESIAN_POINT('Origin',(68.5,0.,43.5));
#1783=CARTESIAN_POINT('',(68.5,0.,47.5));
#1784=CARTESIAN_POINT('',(72.5,0.,43.5));
#1785=CARTESIAN_POINT('Origin',(72.5,0.,-47.5));
#1786=CARTESIAN_POINT('',(72.5,0.,-43.5));
#1787=CARTESIAN_POINT('',(72.5,0.,-43.5));
#1788=CARTESIAN_POINT('',(72.5,0.,-23.75));
#1789=CARTESIAN_POINT('Origin',(68.5,0.,-43.5));
#1790=CARTESIAN_POINT('',(68.5,0.,-47.5));
#1791=CARTESIAN_POINT('Origin',(68.5,0.,-43.5));
#1792=CARTESIAN_POINT('',(68.5,0.,-47.5));
#1793=CARTESIAN_POINT('Origin',(-72.5,0.,-47.5));
#1794=CARTESIAN_POINT('',(-68.5,0.,-47.5));
#1795=CARTESIAN_POINT('',(-68.5,0.,-47.5));
#1796=CARTESIAN_POINT('',(-36.25,0.,-47.5));
#1797=CARTESIAN_POINT('Origin',(-68.5,0.,-43.5));
#1798=CARTESIAN_POINT('',(-72.5,0.,-43.5));
#1799=CARTESIAN_POINT('Origin',(-68.5,0.,-43.5));
#1800=CARTESIAN_POINT('',(-72.5,0.,-43.5));
#1801=CARTESIAN_POINT('Origin',(-72.5,0.,47.5));
#1802=CARTESIAN_POINT('',(-72.5,0.,43.5));
#1803=CARTESIAN_POINT('',(-72.5,0.,43.5));
#1804=CARTESIAN_POINT('',(-72.5,0.,23.75));
#1805=CARTESIAN_POINT('Origin',(-68.5,0.,43.5));
#1806=CARTESIAN_POINT('',(-68.5,0.,47.5));
#1807=CARTESIAN_POINT('Origin',(-68.5,0.,43.5));
#1808=CARTESIAN_POINT('',(-68.5,0.,47.5));
#1809=CARTESIAN_POINT('Origin',(72.5,0.,47.5));
#1810=CARTESIAN_POINT('',(36.25,0.,47.5));
#1811=CARTESIAN_POINT('Origin',(-79.,0.,-43.0717967697245));
#1812=CARTESIAN_POINT('',(-77.,0.,-46.5358983848623));
#1813=CARTESIAN_POINT('Origin',(-68.0717967697245,0.,-54.));
#1814=CARTESIAN_POINT('',(-71.5358983848623,0.,-52.));
#1815=CARTESIAN_POINT('',(-68.0717967697245,0.,-50.));
#1816=CARTESIAN_POINT('Origin',(-75.,0.,-50.));
#1817=CARTESIAN_POINT('Origin',(68.0717967697245,0.,-54.));
#1818=CARTESIAN_POINT('',(68.0717967697245,0.,-50.));
#1819=CARTESIAN_POINT('',(71.5358983848622,0.,-52.));
#1820=CARTESIAN_POINT('Origin',(-71.,0.,-50.));
#1821=CARTESIAN_POINT('Origin',(79.,0.,-43.0717967697245));
#1822=CARTESIAN_POINT('',(77.,0.,-46.5358983848623));
#1823=CARTESIAN_POINT('',(75.,0.,-43.0717967697245));
#1824=CARTESIAN_POINT('Origin',(75.,0.,-50.));
#1825=CARTESIAN_POINT('Origin',(75.,0.,-46.));
#1826=CARTESIAN_POINT('Origin',(-9.99999999999999,0.,40.));
#1827=CARTESIAN_POINT('',(-8.24999999999999,0.,40.));
#1828=CARTESIAN_POINT('Origin',(-9.99999999999999,0.,40.));
#1829=CARTESIAN_POINT('',(-8.24999999999999,0.,40.));
#1830=CARTESIAN_POINT('Origin',(9.99999999999999,0.,-40.));
#1831=CARTESIAN_POINT('',(11.75,0.,-40.));
#1832=CARTESIAN_POINT('Origin',(9.99999999999999,0.,-40.));
#1833=CARTESIAN_POINT('',(11.75,0.,-40.));
#1834=CARTESIAN_POINT('Origin',(10.,0.,40.));
#1835=CARTESIAN_POINT('',(11.75,0.,40.));
#1836=CARTESIAN_POINT('Origin',(10.,0.,40.));
#1837=CARTESIAN_POINT('',(11.75,0.,40.));
#1838=CARTESIAN_POINT('Origin',(-10.,0.,-40.));
#1839=CARTESIAN_POINT('',(-8.25000000000001,0.,-40.));
#1840=CARTESIAN_POINT('Origin',(-10.,0.,-40.));
#1841=CARTESIAN_POINT('',(-8.25000000000001,0.,-40.));
#1842=CARTESIAN_POINT('Origin',(75.,0.,-50.));
#1843=CARTESIAN_POINT('Origin',(-75.,0.,-50.));
#1844=CARTESIAN_POINT('Origin',(75.,0.,50.));
#1845=CARTESIAN_POINT('Origin',(-75.,0.,50.));
#1846=CARTESIAN_POINT('Origin',(4.44089209850063E-15,0.,-4.44089209850063E-15));
#1847=UNCERTAINTY_MEASURE_WITH_UNIT(LENGTH_MEASURE(0.01),#1851,
'DISTANCE_ACCURACY_VALUE',
'Maximum model space distance between geometric entities at asserted c
onnectivities');
#1848=UNCERTAINTY_MEASURE_WITH_UNIT(LENGTH_MEASURE(0.01),#1851,
'DISTANCE_ACCURACY_VALUE',
'Maximum model space distance between geometric entities at asserted c
onnectivities');
#1849=(
GEOMETRIC_REPRESENTATION_CONTEXT(3)
GLOBAL_UNCERTAINTY_ASSIGNED_CONTEXT((#1847))
GLOBAL_UNIT_ASSIGNED_CONTEXT((#1851,#1853,#1854))
REPRESENTATION_CONTEXT('','3D')
);
#1850=(
GEOMETRIC_REPRESENTATION_CONTEXT(3)
GLOBAL_UNCERTAINTY_ASSIGNED_CONTEXT((#1848))
GLOBAL_UNIT_ASSIGNED_CONTEXT((#1851,#1853,#1854))
REPRESENTATION_CONTEXT('','3D')
);
#1851=(
LENGTH_UNIT()
NAMED_UNIT(*)
SI_UNIT(.MILLI.,.METRE.)
);
#1852=(
LENGTH_UNIT()
NAMED_UNIT(*)
SI_UNIT(.CENTI.,.METRE.)
);
#1853=(
NAMED_UNIT(*)
PLANE_ANGLE_UNIT()
SI_UNIT($,.RADIAN.)
);
#1854=(
NAMED_UNIT(*)
SI_UNIT($,.STERADIAN.)
SOLID_ANGLE_UNIT()
);
#1855=SHAPE_DEFINITION_REPRESENTATION(#1856,#1857);
#1856=PRODUCT_DEFINITION_SHAPE('',$,#1859);
#1857=SHAPE_REPRESENTATION('',(#1003),#1849);
#1858=PRODUCT_DEFINITION_CONTEXT('part definition',#1863,'design');
#1859=PRODUCT_DEFINITION('Boden','Boden',#1860,#1858);
#1860=PRODUCT_DEFINITION_FORMATION('',$,#1865);
#1861=PRODUCT_RELATED_PRODUCT_CATEGORY('Boden','Boden',(#1865));
#1862=APPLICATION_PROTOCOL_DEFINITION('international standard',
'automotive_design',2009,#1863);
#1863=APPLICATION_CONTEXT(
'Core Data for Automotive Mechanical Design Process');
#1864=PRODUCT_CONTEXT('part definition',#1863,'mechanical');
#1865=PRODUCT('Boden','Boden',$,(#1864));
#1866=PRESENTATION_STYLE_ASSIGNMENT((#1867));
#1867=SURFACE_STYLE_USAGE(.BOTH.,#1870);
#1868=SURFACE_STYLE_RENDERING_WITH_PROPERTIES($,#1874,(#1869));
#1869=SURFACE_STYLE_TRANSPARENT(0.);
#1870=SURFACE_SIDE_STYLE('',(#1871,#1868));
#1871=SURFACE_STYLE_FILL_AREA(#1872);
#1872=FILL_AREA_STYLE('',(#1873));
#1873=FILL_AREA_STYLE_COLOUR('',#1874);
#1874=COLOUR_RGB('',0.250980392156863,0.250980392156863,0.250980392156863);
ENDSEC;
END-ISO-10303-21;
