ISO-10303-21;
HEADER;
/* Generated by software containing ST-Developer
 * from STEP Tools, Inc. (www.steptools.com) 
 */

FILE_DESCRIPTION(
/* description */ (''),
/* implementation_level */ '2;1');

FILE_NAME(
/* name */ 'Boden.stp',
/* time_stamp */ '2026-07-17T09:34:34+02:00',
/* author */ ('PascalHelfenstein'),
/* organization */ (''),
/* preprocessor_version */ 'ST-DEVELOPER v20.1',
/* originating_system */ 'Autodesk Inventor 2027',
/* authorisation */ '');

FILE_SCHEMA (('AUTOMOTIVE_DESIGN { 1 0 10303 214 3 1 1 }'));
ENDSEC;

DATA;
#10=MECHANICAL_DESIGN_GEOMETRIC_PRESENTATION_REPRESENTATION('',(#13),#2138);
#11=SHAPE_REPRESENTATION_RELATIONSHIP('SRR','None',#2145,#12);
#12=ADVANCED_BREP_SHAPE_REPRESENTATION('',(#14),#2137);
#13=STYLED_ITEM('',(#2154),#14);
#14=MANIFOLD_SOLID_BREP('Volumenk\X\F6rper1',#1125);
#15=(
BOUNDED_SURFACE()
B_SPLINE_SURFACE(2,2,((#1953,#1954,#1955,#1956,#1957,#1958,#1959),(#1960,
#1961,#1962,#1963,#1964,#1965,#1966),(#1967,#1968,#1969,#1970,#1971,#1972,
#1973)),.UNSPECIFIED.,.F.,.F.,.F.)
B_SPLINE_SURFACE_WITH_KNOTS((3,3),(3,2,2,3),(0.,1.5707963267949),(-1.0471975511966,
0.174532925199432,1.39626340159546,2.61799387799149),.UNSPECIFIED.)
GEOMETRIC_REPRESENTATION_ITEM()
RATIONAL_B_SPLINE_SURFACE(((1.,0.819152044288992,1.,0.819152044288992,1.,
0.819152044288992,1.),(0.707106781186545,0.579227965339567,0.707106781186545,
0.579227965339567,0.707106781186545,0.579227965339567,0.707106781186545),
(1.,0.819152044288992,1.,0.819152044288992,1.,0.819152044288992,1.)))
REPRESENTATION_ITEM('')
SURFACE()
);
#16=(
BOUNDED_SURFACE()
B_SPLINE_SURFACE(2,2,((#1989,#1990,#1991,#1992,#1993,#1994,#1995),(#1996,
#1997,#1998,#1999,#2000,#2001,#2002),(#2003,#2004,#2005,#2006,#2007,#2008,
#2009)),.UNSPECIFIED.,.F.,.F.,.F.)
B_SPLINE_SURFACE_WITH_KNOTS((3,3),(3,2,2,3),(0.,1.5707963267949),(-2.61799387799149,
-1.39626340159546,-0.174532925199431,1.0471975511966),.UNSPECIFIED.)
GEOMETRIC_REPRESENTATION_ITEM()
RATIONAL_B_SPLINE_SURFACE(((1.,0.819152044288992,1.,0.819152044288992,1.,
0.819152044288992,1.),(0.707106781186541,0.579227965339564,0.707106781186541,
0.579227965339564,0.707106781186541,0.579227965339564,0.707106781186541),
(1.,0.819152044288992,1.,0.819152044288992,1.,0.819152044288992,1.)))
REPRESENTATION_ITEM('')
SURFACE()
);
#17=(
BOUNDED_SURFACE()
B_SPLINE_SURFACE(2,2,((#2025,#2026,#2027,#2028,#2029,#2030,#2031),(#2032,
#2033,#2034,#2035,#2036,#2037,#2038),(#2039,#2040,#2041,#2042,#2043,#2044,
#2045)),.UNSPECIFIED.,.F.,.F.,.F.)
B_SPLINE_SURFACE_WITH_KNOTS((3,3),(3,2,2,3),(0.,1.5707963267949),(-1.83259571459405,
-0.610865238198015,0.610865238198017,1.83259571459405),.UNSPECIFIED.)
GEOMETRIC_REPRESENTATION_ITEM()
RATIONAL_B_SPLINE_SURFACE(((1.,0.819152044288991,1.,0.819152044288991,1.,
0.819152044288991,1.),(0.707106781186544,0.579227965339566,0.707106781186544,
0.579227965339566,0.707106781186544,0.579227965339566,0.707106781186544),
(1.,0.819152044288991,1.,0.819152044288991,1.,0.819152044288991,1.)))
REPRESENTATION_ITEM('')
SURFACE()
);
#18=(
BOUNDED_SURFACE()
B_SPLINE_SURFACE(2,2,((#2061,#2062,#2063,#2064,#2065,#2066,#2067),(#2068,
#2069,#2070,#2071,#2072,#2073,#2074),(#2075,#2076,#2077,#2078,#2079,#2080,
#2081)),.UNSPECIFIED.,.F.,.F.,.F.)
B_SPLINE_SURFACE_WITH_KNOTS((3,3),(3,2,2,3),(0.,1.5707963267949),(-1.83259571459405,
-0.610865238198016,0.610865238198016,1.83259571459405),.UNSPECIFIED.)
GEOMETRIC_REPRESENTATION_ITEM()
RATIONAL_B_SPLINE_SURFACE(((1.,0.819152044288991,1.,0.819152044288991,1.,
0.819152044288991,1.),(0.707106781186544,0.579227965339566,0.707106781186544,
0.579227965339566,0.707106781186544,0.579227965339566,0.707106781186544),
(1.,0.819152044288991,1.,0.819152044288991,1.,0.819152044288991,1.)))
REPRESENTATION_ITEM('')
SURFACE()
);
#19=TOROIDAL_SURFACE('',#1189,2.25,0.5);
#20=TOROIDAL_SURFACE('',#1213,2.25,0.5);
#21=TOROIDAL_SURFACE('',#1220,2.25,0.5);
#22=TOROIDAL_SURFACE('',#1227,2.25,0.5);
#23=TOROIDAL_SURFACE('',#1234,2.25,0.5);
#24=TOROIDAL_SURFACE('',#1245,2.25,0.5);
#25=TOROIDAL_SURFACE('',#1247,2.25,0.5);
#26=TOROIDAL_SURFACE('',#1249,2.25,0.5);
#27=TOROIDAL_SURFACE('',#1251,6.,2.);
#28=TOROIDAL_SURFACE('',#1257,6.,2.);
#29=TOROIDAL_SURFACE('',#1262,6.,2.);
#30=TOROIDAL_SURFACE('',#1267,6.,2.);
#31=TOROIDAL_SURFACE('',#1272,6.,2.);
#32=TOROIDAL_SURFACE('',#1277,6.,2.);
#33=TOROIDAL_SURFACE('',#1282,6.,2.);
#34=TOROIDAL_SURFACE('',#1287,6.,2.);
#35=CYLINDRICAL_SURFACE('',#1172,2.);
#36=CYLINDRICAL_SURFACE('',#1177,2.);
#37=CYLINDRICAL_SURFACE('',#1182,2.);
#38=CYLINDRICAL_SURFACE('',#1187,2.);
#39=CYLINDRICAL_SURFACE('',#1210,1.75);
#40=CYLINDRICAL_SURFACE('',#1217,1.75);
#41=CYLINDRICAL_SURFACE('',#1224,1.75);
#42=CYLINDRICAL_SURFACE('',#1231,1.75);
#43=CYLINDRICAL_SURFACE('',#1255,2.);
#44=CYLINDRICAL_SURFACE('',#1265,2.);
#45=CYLINDRICAL_SURFACE('',#1275,2.);
#46=CYLINDRICAL_SURFACE('',#1285,2.);
#47=CYLINDRICAL_SURFACE('',#1292,4.);
#48=CYLINDRICAL_SURFACE('',#1293,4.);
#49=CYLINDRICAL_SURFACE('',#1294,4.);
#50=CYLINDRICAL_SURFACE('',#1296,4.);
#51=CYLINDRICAL_SURFACE('',#1297,4.);
#52=CYLINDRICAL_SURFACE('',#1298,4.);
#53=CYLINDRICAL_SURFACE('',#1299,4.);
#54=CYLINDRICAL_SURFACE('',#1301,4.);
#55=CYLINDRICAL_SURFACE('',#1303,4.);
#56=CYLINDRICAL_SURFACE('',#1305,4.);
#57=CYLINDRICAL_SURFACE('',#1307,4.);
#58=CYLINDRICAL_SURFACE('',#1308,4.);
#59=CYLINDRICAL_SURFACE('',#1309,4.);
#60=CYLINDRICAL_SURFACE('',#1310,4.);
#61=CYLINDRICAL_SURFACE('',#1312,4.);
#62=CYLINDRICAL_SURFACE('',#1313,4.);
#63=FACE_BOUND('',#160,.T.);
#64=FACE_BOUND('',#161,.T.);
#65=FACE_BOUND('',#162,.T.);
#66=FACE_BOUND('',#163,.T.);
#67=FACE_BOUND('',#164,.T.);
#68=FACE_BOUND('',#174,.T.);
#69=FACE_BOUND('',#175,.T.);
#70=FACE_BOUND('',#176,.T.);
#71=FACE_BOUND('',#177,.T.);
#72=FACE_BOUND('',#187,.T.);
#73=FACE_BOUND('',#188,.T.);
#74=FACE_BOUND('',#189,.T.);
#75=FACE_BOUND('',#190,.T.);
#76=PLANE('',#1152);
#77=PLANE('',#1194);
#78=PLANE('',#1237);
#79=PLANE('',#1291);
#80=PLANE('',#1295);
#81=PLANE('',#1300);
#82=PLANE('',#1302);
#83=PLANE('',#1304);
#84=PLANE('',#1306);
#85=PLANE('',#1311);
#86=PLANE('',#1314);
#87=PLANE('',#1315);
#88=PLANE('',#1316);
#89=PLANE('',#1317);
#90=PLANE('',#1318);
#91=FACE_OUTER_BOUND('',#158,.T.);
#92=FACE_OUTER_BOUND('',#159,.T.);
#93=FACE_OUTER_BOUND('',#165,.T.);
#94=FACE_OUTER_BOUND('',#166,.T.);
#95=FACE_OUTER_BOUND('',#167,.T.);
#96=FACE_OUTER_BOUND('',#168,.T.);
#97=FACE_OUTER_BOUND('',#169,.T.);
#98=FACE_OUTER_BOUND('',#170,.T.);
#99=FACE_OUTER_BOUND('',#171,.T.);
#100=FACE_OUTER_BOUND('',#172,.T.);
#101=FACE_OUTER_BOUND('',#173,.T.);
#102=FACE_OUTER_BOUND('',#178,.T.);
#103=FACE_OUTER_BOUND('',#179,.T.);
#104=FACE_OUTER_BOUND('',#180,.T.);
#105=FACE_OUTER_BOUND('',#181,.T.);
#106=FACE_OUTER_BOUND('',#182,.T.);
#107=FACE_OUTER_BOUND('',#183,.T.);
#108=FACE_OUTER_BOUND('',#184,.T.);
#109=FACE_OUTER_BOUND('',#185,.T.);
#110=FACE_OUTER_BOUND('',#186,.T.);
#111=FACE_OUTER_BOUND('',#191,.T.);
#112=FACE_OUTER_BOUND('',#192,.T.);
#113=FACE_OUTER_BOUND('',#193,.T.);
#114=FACE_OUTER_BOUND('',#194,.T.);
#115=FACE_OUTER_BOUND('',#195,.T.);
#116=FACE_OUTER_BOUND('',#196,.T.);
#117=FACE_OUTER_BOUND('',#197,.T.);
#118=FACE_OUTER_BOUND('',#198,.T.);
#119=FACE_OUTER_BOUND('',#199,.T.);
#120=FACE_OUTER_BOUND('',#200,.T.);
#121=FACE_OUTER_BOUND('',#201,.T.);
#122=FACE_OUTER_BOUND('',#202,.T.);
#123=FACE_OUTER_BOUND('',#203,.T.);
#124=FACE_OUTER_BOUND('',#204,.T.);
#125=FACE_OUTER_BOUND('',#205,.T.);
#126=FACE_OUTER_BOUND('',#206,.T.);
#127=FACE_OUTER_BOUND('',#207,.T.);
#128=FACE_OUTER_BOUND('',#208,.T.);
#129=FACE_OUTER_BOUND('',#209,.T.);
#130=FACE_OUTER_BOUND('',#210,.T.);
#131=FACE_OUTER_BOUND('',#211,.T.);
#132=FACE_OUTER_BOUND('',#212,.T.);
#133=FACE_OUTER_BOUND('',#213,.T.);
#134=FACE_OUTER_BOUND('',#214,.T.);
#135=FACE_OUTER_BOUND('',#215,.T.);
#136=FACE_OUTER_BOUND('',#216,.T.);
#137=FACE_OUTER_BOUND('',#217,.T.);
#138=FACE_OUTER_BOUND('',#218,.T.);
#139=FACE_OUTER_BOUND('',#219,.T.);
#140=FACE_OUTER_BOUND('',#220,.T.);
#141=FACE_OUTER_BOUND('',#221,.T.);
#142=FACE_OUTER_BOUND('',#222,.T.);
#143=FACE_OUTER_BOUND('',#223,.T.);
#144=FACE_OUTER_BOUND('',#224,.T.);
#145=FACE_OUTER_BOUND('',#225,.T.);
#146=FACE_OUTER_BOUND('',#226,.T.);
#147=FACE_OUTER_BOUND('',#227,.T.);
#148=FACE_OUTER_BOUND('',#228,.T.);
#149=FACE_OUTER_BOUND('',#229,.T.);
#150=FACE_OUTER_BOUND('',#230,.T.);
#151=FACE_OUTER_BOUND('',#231,.T.);
#152=FACE_OUTER_BOUND('',#232,.T.);
#153=FACE_OUTER_BOUND('',#233,.T.);
#154=FACE_OUTER_BOUND('',#234,.T.);
#155=FACE_OUTER_BOUND('',#235,.T.);
#156=FACE_OUTER_BOUND('',#236,.T.);
#157=FACE_OUTER_BOUND('',#237,.T.);
#158=EDGE_LOOP('',(#726,#727,#728,#729,#730));
#159=EDGE_LOOP('',(#731,#732,#733,#734,#735,#736,#737,#738,#739,#740,#741,
#742,#743,#744,#745,#746));
#160=EDGE_LOOP('',(#747));
#161=EDGE_LOOP('',(#748));
#162=EDGE_LOOP('',(#749,#750,#751,#752,#753,#754,#755,#756));
#163=EDGE_LOOP('',(#757));
#164=EDGE_LOOP('',(#758));
#165=EDGE_LOOP('',(#759,#760,#761,#762,#763));
#166=EDGE_LOOP('',(#764,#765,#766,#767,#768));
#167=EDGE_LOOP('',(#769,#770,#771,#772,#773));
#168=EDGE_LOOP('',(#774,#775,#776,#777,#778));
#169=EDGE_LOOP('',(#779,#780,#781,#782,#783));
#170=EDGE_LOOP('',(#784,#785,#786,#787,#788));
#171=EDGE_LOOP('',(#789,#790,#791,#792,#793));
#172=EDGE_LOOP('',(#794,#795,#796,#797,#798));
#173=EDGE_LOOP('',(#799,#800,#801,#802,#803,#804,#805,#806,#807,#808,#809,
#810,#811,#812,#813,#814));
#174=EDGE_LOOP('',(#815));
#175=EDGE_LOOP('',(#816));
#176=EDGE_LOOP('',(#817));
#177=EDGE_LOOP('',(#818));
#178=EDGE_LOOP('',(#819,#820,#821,#822,#823,#824));
#179=EDGE_LOOP('',(#825,#826,#827,#828,#829));
#180=EDGE_LOOP('',(#830,#831,#832,#833,#834,#835));
#181=EDGE_LOOP('',(#836,#837,#838,#839,#840));
#182=EDGE_LOOP('',(#841,#842,#843,#844,#845,#846));
#183=EDGE_LOOP('',(#847,#848,#849,#850,#851));
#184=EDGE_LOOP('',(#852,#853,#854,#855,#856,#857));
#185=EDGE_LOOP('',(#858,#859,#860,#861,#862));
#186=EDGE_LOOP('',(#863,#864,#865,#866,#867,#868,#869,#870));
#187=EDGE_LOOP('',(#871));
#188=EDGE_LOOP('',(#872));
#189=EDGE_LOOP('',(#873));
#190=EDGE_LOOP('',(#874));
#191=EDGE_LOOP('',(#875,#876,#877,#878,#879));
#192=EDGE_LOOP('',(#880,#881,#882,#883,#884));
#193=EDGE_LOOP('',(#885,#886,#887,#888,#889));
#194=EDGE_LOOP('',(#890,#891,#892,#893));
#195=EDGE_LOOP('',(#894,#895,#896,#897));
#196=EDGE_LOOP('',(#898,#899,#900,#901));
#197=EDGE_LOOP('',(#902,#903,#904,#905));
#198=EDGE_LOOP('',(#906,#907,#908,#909));
#199=EDGE_LOOP('',(#910,#911,#912,#913));
#200=EDGE_LOOP('',(#914,#915,#916,#917));
#201=EDGE_LOOP('',(#918,#919,#920,#921));
#202=EDGE_LOOP('',(#922,#923,#924,#925));
#203=EDGE_LOOP('',(#926,#927,#928,#929));
#204=EDGE_LOOP('',(#930,#931,#932,#933));
#205=EDGE_LOOP('',(#934,#935,#936,#937));
#206=EDGE_LOOP('',(#938,#939,#940,#941));
#207=EDGE_LOOP('',(#942,#943,#944,#945));
#208=EDGE_LOOP('',(#946,#947,#948,#949));
#209=EDGE_LOOP('',(#950,#951,#952,#953));
#210=EDGE_LOOP('',(#954,#955,#956,#957));
#211=EDGE_LOOP('',(#958,#959,#960,#961));
#212=EDGE_LOOP('',(#962,#963,#964,#965));
#213=EDGE_LOOP('',(#966,#967,#968,#969));
#214=EDGE_LOOP('',(#970,#971,#972,#973));
#215=EDGE_LOOP('',(#974,#975,#976,#977));
#216=EDGE_LOOP('',(#978,#979,#980,#981));
#217=EDGE_LOOP('',(#982,#983,#984,#985));
#218=EDGE_LOOP('',(#986,#987,#988,#989));
#219=EDGE_LOOP('',(#990,#991,#992,#993));
#220=EDGE_LOOP('',(#994,#995,#996,#997));
#221=EDGE_LOOP('',(#998,#999,#1000,#1001));
#222=EDGE_LOOP('',(#1002,#1003,#1004,#1005));
#223=EDGE_LOOP('',(#1006,#1007,#1008,#1009));
#224=EDGE_LOOP('',(#1010,#1011,#1012,#1013));
#225=EDGE_LOOP('',(#1014,#1015,#1016,#1017));
#226=EDGE_LOOP('',(#1018,#1019,#1020,#1021));
#227=EDGE_LOOP('',(#1022,#1023,#1024,#1025));
#228=EDGE_LOOP('',(#1026,#1027,#1028,#1029));
#229=EDGE_LOOP('',(#1030,#1031,#1032,#1033));
#230=EDGE_LOOP('',(#1034,#1035,#1036,#1037));
#231=EDGE_LOOP('',(#1038,#1039,#1040,#1041));
#232=EDGE_LOOP('',(#1042,#1043,#1044,#1045));
#233=EDGE_LOOP('',(#1046,#1047,#1048,#1049));
#234=EDGE_LOOP('',(#1050));
#235=EDGE_LOOP('',(#1051));
#236=EDGE_LOOP('',(#1052));
#237=EDGE_LOOP('',(#1053));
#238=LINE('',#1724,#294);
#239=LINE('',#1735,#295);
#240=LINE('',#1743,#296);
#241=LINE('',#1751,#297);
#242=LINE('',#1759,#298);
#243=LINE('',#1767,#299);
#244=LINE('',#1771,#300);
#245=LINE('',#1775,#301);
#246=LINE('',#1779,#302);
#247=LINE('',#1785,#303);
#248=LINE('',#1789,#304);
#249=LINE('',#1795,#305);
#250=LINE('',#1799,#306);
#251=LINE('',#1805,#307);
#252=LINE('',#1809,#308);
#253=LINE('',#1815,#309);
#254=LINE('',#1834,#310);
#255=LINE('',#1842,#311);
#256=LINE('',#1850,#312);
#257=LINE('',#1857,#313);
#258=LINE('',#1869,#314);
#259=LINE('',#1881,#315);
#260=LINE('',#1893,#316);
#261=LINE('',#1905,#317);
#262=LINE('',#1915,#318);
#263=LINE('',#1919,#319);
#264=LINE('',#1923,#320);
#265=LINE('',#1926,#321);
#266=LINE('',#1948,#322);
#267=LINE('',#1984,#323);
#268=LINE('',#2020,#324);
#269=LINE('',#2056,#325);
#270=LINE('',#2084,#326);
#271=LINE('',#2085,#327);
#272=LINE('',#2087,#328);
#273=LINE('',#2089,#329);
#274=LINE('',#2091,#330);
#275=LINE('',#2093,#331);
#276=LINE('',#2095,#332);
#277=LINE('',#2097,#333);
#278=LINE('',#2099,#334);
#279=LINE('',#2101,#335);
#280=LINE('',#2102,#336);
#281=LINE('',#2104,#337);
#282=LINE('',#2106,#338);
#283=LINE('',#2108,#339);
#284=LINE('',#2110,#340);
#285=LINE('',#2112,#341);
#286=LINE('',#2114,#342);
#287=LINE('',#2117,#343);
#288=LINE('',#2119,#344);
#289=LINE('',#2120,#345);
#290=LINE('',#2123,#346);
#291=LINE('',#2124,#347);
#292=LINE('',#2127,#348);
#293=LINE('',#2128,#349);
#294=VECTOR('',#1325,2.5);
#295=VECTOR('',#1336,10.);
#296=VECTOR('',#1343,10.);
#297=VECTOR('',#1350,10.);
#298=VECTOR('',#1357,10.);
#299=VECTOR('',#1364,10.);
#300=VECTOR('',#1367,10.);
#301=VECTOR('',#1370,10.);
#302=VECTOR('',#1373,10.);
#303=VECTOR('',#1380,2.);
#304=VECTOR('',#1385,2.5);
#305=VECTOR('',#1392,2.);
#306=VECTOR('',#1397,2.5);
#307=VECTOR('',#1404,2.);
#308=VECTOR('',#1409,2.5);
#309=VECTOR('',#1416,2.);
#310=VECTOR('',#1437,10.);
#311=VECTOR('',#1444,10.);
#312=VECTOR('',#1451,10.);
#313=VECTOR('',#1458,10.);
#314=VECTOR('',#1471,1.75);
#315=VECTOR('',#1486,1.75);
#316=VECTOR('',#1501,1.75);
#317=VECTOR('',#1516,1.75);
#318=VECTOR('',#1527,10.);
#319=VECTOR('',#1530,10.);
#320=VECTOR('',#1533,10.);
#321=VECTOR('',#1536,10.);
#322=VECTOR('',#1567,10.);
#323=VECTOR('',#1588,10.);
#324=VECTOR('',#1609,10.);
#325=VECTOR('',#1630,10.);
#326=VECTOR('',#1641,10.);
#327=VECTOR('',#1642,10.);
#328=VECTOR('',#1645,10.);
#329=VECTOR('',#1648,10.);
#330=VECTOR('',#1651,10.);
#331=VECTOR('',#1654,10.);
#332=VECTOR('',#1657,10.);
#333=VECTOR('',#1660,10.);
#334=VECTOR('',#1663,10.);
#335=VECTOR('',#1666,10.);
#336=VECTOR('',#1667,10.);
#337=VECTOR('',#1670,10.);
#338=VECTOR('',#1673,10.);
#339=VECTOR('',#1676,10.);
#340=VECTOR('',#1679,10.);
#341=VECTOR('',#1682,10.);
#342=VECTOR('',#1685,10.);
#343=VECTOR('',#1690,10.);
#344=VECTOR('',#1693,10.);
#345=VECTOR('',#1694,10.);
#346=VECTOR('',#1699,10.);
#347=VECTOR('',#1700,10.);
#348=VECTOR('',#1705,10.);
#349=VECTOR('',#1706,10.);
#350=CIRCLE('',#1149,3.);
#351=CIRCLE('',#1150,2.);
#352=CIRCLE('',#1151,2.);
#353=CIRCLE('',#1153,4.);
#354=CIRCLE('',#1154,4.);
#355=CIRCLE('',#1155,4.);
#356=CIRCLE('',#1156,4.);
#357=CIRCLE('',#1157,4.);
#358=CIRCLE('',#1158,4.);
#359=CIRCLE('',#1159,4.);
#360=CIRCLE('',#1160,4.);
#361=CIRCLE('',#1161,4.);
#362=CIRCLE('',#1162,4.);
#363=CIRCLE('',#1163,4.);
#364=CIRCLE('',#1164,4.);
#365=CIRCLE('',#1165,3.);
#366=CIRCLE('',#1166,3.);
#367=CIRCLE('',#1167,4.);
#368=CIRCLE('',#1168,4.);
#369=CIRCLE('',#1169,4.);
#370=CIRCLE('',#1170,4.);
#371=CIRCLE('',#1171,3.);
#372=CIRCLE('',#1173,2.);
#373=CIRCLE('',#1175,2.);
#374=CIRCLE('',#1176,2.);
#375=CIRCLE('',#1178,2.);
#376=CIRCLE('',#1180,2.);
#377=CIRCLE('',#1181,2.);
#378=CIRCLE('',#1183,2.);
#379=CIRCLE('',#1185,2.);
#380=CIRCLE('',#1186,2.);
#381=CIRCLE('',#1188,2.);
#382=CIRCLE('',#1190,2.25);
#383=CIRCLE('',#1191,0.5);
#384=CIRCLE('',#1192,1.75);
#385=CIRCLE('',#1193,1.75);
#386=CIRCLE('',#1195,6.);
#387=CIRCLE('',#1196,2.);
#388=CIRCLE('',#1197,6.);
#389=CIRCLE('',#1198,6.);
#390=CIRCLE('',#1199,2.);
#391=CIRCLE('',#1200,6.);
#392=CIRCLE('',#1201,6.);
#393=CIRCLE('',#1202,2.);
#394=CIRCLE('',#1203,6.);
#395=CIRCLE('',#1204,6.);
#396=CIRCLE('',#1205,2.);
#397=CIRCLE('',#1206,6.);
#398=CIRCLE('',#1207,2.25);
#399=CIRCLE('',#1208,2.25);
#400=CIRCLE('',#1209,2.25);
#401=CIRCLE('',#1211,1.75);
#402=CIRCLE('',#1212,1.75);
#403=CIRCLE('',#1214,0.5);
#404=CIRCLE('',#1215,1.75);
#405=CIRCLE('',#1216,1.75);
#406=CIRCLE('',#1218,1.75);
#407=CIRCLE('',#1219,1.75);
#408=CIRCLE('',#1221,0.5);
#409=CIRCLE('',#1222,1.75);
#410=CIRCLE('',#1223,1.75);
#411=CIRCLE('',#1225,1.75);
#412=CIRCLE('',#1226,1.75);
#413=CIRCLE('',#1228,0.5);
#414=CIRCLE('',#1229,1.75);
#415=CIRCLE('',#1230,1.75);
#416=CIRCLE('',#1232,1.75);
#417=CIRCLE('',#1233,1.75);
#418=CIRCLE('',#1235,2.25);
#419=CIRCLE('',#1236,0.5);
#420=CIRCLE('',#1238,4.);
#421=CIRCLE('',#1239,4.);
#422=CIRCLE('',#1240,4.);
#423=CIRCLE('',#1241,4.);
#424=CIRCLE('',#1242,2.25);
#425=CIRCLE('',#1243,2.25);
#426=CIRCLE('',#1244,2.25);
#427=CIRCLE('',#1246,0.5);
#428=CIRCLE('',#1248,0.5);
#429=CIRCLE('',#1250,0.5);
#430=CIRCLE('',#1252,2.);
#431=CIRCLE('',#1253,2.);
#432=CIRCLE('',#1254,4.);
#433=CIRCLE('',#1256,2.);
#434=CIRCLE('',#1258,2.);
#435=CIRCLE('',#1259,4.);
#436=CIRCLE('',#1260,2.);
#437=CIRCLE('',#1261,4.);
#438=CIRCLE('',#1263,2.);
#439=CIRCLE('',#1264,4.);
#440=CIRCLE('',#1266,2.);
#441=CIRCLE('',#1268,2.);
#442=CIRCLE('',#1269,4.);
#443=CIRCLE('',#1270,2.);
#444=CIRCLE('',#1271,4.);
#445=CIRCLE('',#1273,2.);
#446=CIRCLE('',#1274,4.);
#447=CIRCLE('',#1276,2.);
#448=CIRCLE('',#1278,2.);
#449=CIRCLE('',#1279,4.);
#450=CIRCLE('',#1280,2.);
#451=CIRCLE('',#1281,4.);
#452=CIRCLE('',#1283,2.);
#453=CIRCLE('',#1284,4.);
#454=CIRCLE('',#1286,2.);
#455=CIRCLE('',#1288,2.);
#456=CIRCLE('',#1289,4.);
#457=CIRCLE('',#1290,4.);
#458=VERTEX_POINT('',#1721);
#459=VERTEX_POINT('',#1723);
#460=VERTEX_POINT('',#1725);
#461=VERTEX_POINT('',#1729);
#462=VERTEX_POINT('',#1730);
#463=VERTEX_POINT('',#1732);
#464=VERTEX_POINT('',#1734);
#465=VERTEX_POINT('',#1736);
#466=VERTEX_POINT('',#1738);
#467=VERTEX_POINT('',#1740);
#468=VERTEX_POINT('',#1742);
#469=VERTEX_POINT('',#1744);
#470=VERTEX_POINT('',#1746);
#471=VERTEX_POINT('',#1748);
#472=VERTEX_POINT('',#1750);
#473=VERTEX_POINT('',#1752);
#474=VERTEX_POINT('',#1754);
#475=VERTEX_POINT('',#1756);
#476=VERTEX_POINT('',#1758);
#477=VERTEX_POINT('',#1761);
#478=VERTEX_POINT('',#1763);
#479=VERTEX_POINT('',#1765);
#480=VERTEX_POINT('',#1766);
#481=VERTEX_POINT('',#1768);
#482=VERTEX_POINT('',#1770);
#483=VERTEX_POINT('',#1772);
#484=VERTEX_POINT('',#1774);
#485=VERTEX_POINT('',#1776);
#486=VERTEX_POINT('',#1778);
#487=VERTEX_POINT('',#1781);
#488=VERTEX_POINT('',#1784);
#489=VERTEX_POINT('',#1788);
#490=VERTEX_POINT('',#1790);
#491=VERTEX_POINT('',#1794);
#492=VERTEX_POINT('',#1798);
#493=VERTEX_POINT('',#1800);
#494=VERTEX_POINT('',#1804);
#495=VERTEX_POINT('',#1808);
#496=VERTEX_POINT('',#1810);
#497=VERTEX_POINT('',#1814);
#498=VERTEX_POINT('',#1818);
#499=VERTEX_POINT('',#1820);
#500=VERTEX_POINT('',#1822);
#501=VERTEX_POINT('',#1826);
#502=VERTEX_POINT('',#1827);
#503=VERTEX_POINT('',#1829);
#504=VERTEX_POINT('',#1831);
#505=VERTEX_POINT('',#1833);
#506=VERTEX_POINT('',#1835);
#507=VERTEX_POINT('',#1837);
#508=VERTEX_POINT('',#1839);
#509=VERTEX_POINT('',#1841);
#510=VERTEX_POINT('',#1843);
#511=VERTEX_POINT('',#1845);
#512=VERTEX_POINT('',#1847);
#513=VERTEX_POINT('',#1849);
#514=VERTEX_POINT('',#1851);
#515=VERTEX_POINT('',#1853);
#516=VERTEX_POINT('',#1855);
#517=VERTEX_POINT('',#1858);
#518=VERTEX_POINT('',#1860);
#519=VERTEX_POINT('',#1862);
#520=VERTEX_POINT('',#1865);
#521=VERTEX_POINT('',#1866);
#522=VERTEX_POINT('',#1871);
#523=VERTEX_POINT('',#1873);
#524=VERTEX_POINT('',#1877);
#525=VERTEX_POINT('',#1878);
#526=VERTEX_POINT('',#1883);
#527=VERTEX_POINT('',#1885);
#528=VERTEX_POINT('',#1889);
#529=VERTEX_POINT('',#1890);
#530=VERTEX_POINT('',#1895);
#531=VERTEX_POINT('',#1897);
#532=VERTEX_POINT('',#1901);
#533=VERTEX_POINT('',#1902);
#534=VERTEX_POINT('',#1907);
#535=VERTEX_POINT('',#1911);
#536=VERTEX_POINT('',#1912);
#537=VERTEX_POINT('',#1914);
#538=VERTEX_POINT('',#1916);
#539=VERTEX_POINT('',#1918);
#540=VERTEX_POINT('',#1920);
#541=VERTEX_POINT('',#1922);
#542=VERTEX_POINT('',#1924);
#543=VERTEX_POINT('',#1927);
#544=VERTEX_POINT('',#1929);
#545=VERTEX_POINT('',#1931);
#546=VERTEX_POINT('',#1940);
#547=VERTEX_POINT('',#1942);
#548=VERTEX_POINT('',#1946);
#549=VERTEX_POINT('',#1950);
#550=VERTEX_POINT('',#1974);
#551=VERTEX_POINT('',#1978);
#552=VERTEX_POINT('',#1982);
#553=VERTEX_POINT('',#1986);
#554=VERTEX_POINT('',#2010);
#555=VERTEX_POINT('',#2014);
#556=VERTEX_POINT('',#2018);
#557=VERTEX_POINT('',#2022);
#558=VERTEX_POINT('',#2046);
#559=VERTEX_POINT('',#2050);
#560=VERTEX_POINT('',#2054);
#561=VERTEX_POINT('',#2058);
#562=EDGE_CURVE('',#458,#458,#350,.T.);
#563=EDGE_CURVE('',#458,#459,#238,.T.);
#564=EDGE_CURVE('',#459,#460,#351,.T.);
#565=EDGE_CURVE('',#460,#459,#352,.T.);
#566=EDGE_CURVE('',#461,#462,#353,.T.);
#567=EDGE_CURVE('',#463,#462,#354,.T.);
#568=EDGE_CURVE('',#463,#464,#239,.T.);
#569=EDGE_CURVE('',#465,#464,#355,.T.);
#570=EDGE_CURVE('',#465,#466,#356,.T.);
#571=EDGE_CURVE('',#467,#466,#357,.T.);
#572=EDGE_CURVE('',#467,#468,#240,.T.);
#573=EDGE_CURVE('',#469,#468,#358,.T.);
#574=EDGE_CURVE('',#469,#470,#359,.T.);
#575=EDGE_CURVE('',#471,#470,#360,.T.);
#576=EDGE_CURVE('',#471,#472,#241,.T.);
#577=EDGE_CURVE('',#473,#472,#361,.T.);
#578=EDGE_CURVE('',#473,#474,#362,.T.);
#579=EDGE_CURVE('',#475,#474,#363,.T.);
#580=EDGE_CURVE('',#475,#476,#242,.T.);
#581=EDGE_CURVE('',#461,#476,#364,.T.);
#582=EDGE_CURVE('',#477,#477,#365,.T.);
#583=EDGE_CURVE('',#478,#478,#366,.T.);
#584=EDGE_CURVE('',#479,#480,#243,.T.);
#585=EDGE_CURVE('',#481,#480,#367,.T.);
#586=EDGE_CURVE('',#481,#482,#244,.T.);
#587=EDGE_CURVE('',#483,#482,#368,.T.);
#588=EDGE_CURVE('',#483,#484,#245,.T.);
#589=EDGE_CURVE('',#485,#484,#369,.T.);
#590=EDGE_CURVE('',#485,#486,#246,.T.);
#591=EDGE_CURVE('',#479,#486,#370,.T.);
#592=EDGE_CURVE('',#487,#487,#371,.T.);
#593=EDGE_CURVE('',#460,#488,#247,.T.);
#594=EDGE_CURVE('',#488,#488,#372,.T.);
#595=EDGE_CURVE('',#477,#489,#248,.T.);
#596=EDGE_CURVE('',#489,#490,#373,.T.);
#597=EDGE_CURVE('',#490,#489,#374,.T.);
#598=EDGE_CURVE('',#490,#491,#249,.T.);
#599=EDGE_CURVE('',#491,#491,#375,.T.);
#600=EDGE_CURVE('',#487,#492,#250,.T.);
#601=EDGE_CURVE('',#492,#493,#376,.T.);
#602=EDGE_CURVE('',#493,#492,#377,.T.);
#603=EDGE_CURVE('',#493,#494,#251,.T.);
#604=EDGE_CURVE('',#494,#494,#378,.T.);
#605=EDGE_CURVE('',#478,#495,#252,.T.);
#606=EDGE_CURVE('',#495,#496,#379,.T.);
#607=EDGE_CURVE('',#496,#495,#380,.T.);
#608=EDGE_CURVE('',#496,#497,#253,.T.);
#609=EDGE_CURVE('',#497,#497,#381,.T.);
#610=EDGE_CURVE('',#498,#498,#382,.T.);
#611=EDGE_CURVE('',#498,#499,#383,.T.);
#612=EDGE_CURVE('',#499,#500,#384,.T.);
#613=EDGE_CURVE('',#500,#499,#385,.T.);
#614=EDGE_CURVE('',#501,#502,#386,.T.);
#615=EDGE_CURVE('',#503,#501,#387,.T.);
#616=EDGE_CURVE('',#504,#503,#388,.T.);
#617=EDGE_CURVE('',#505,#504,#254,.T.);
#618=EDGE_CURVE('',#506,#505,#389,.T.);
#619=EDGE_CURVE('',#507,#506,#390,.T.);
#620=EDGE_CURVE('',#508,#507,#391,.T.);
#621=EDGE_CURVE('',#509,#508,#255,.T.);
#622=EDGE_CURVE('',#510,#509,#392,.T.);
#623=EDGE_CURVE('',#511,#510,#393,.T.);
#624=EDGE_CURVE('',#512,#511,#394,.T.);
#625=EDGE_CURVE('',#513,#512,#256,.T.);
#626=EDGE_CURVE('',#514,#513,#395,.T.);
#627=EDGE_CURVE('',#515,#514,#396,.T.);
#628=EDGE_CURVE('',#516,#515,#397,.T.);
#629=EDGE_CURVE('',#502,#516,#257,.T.);
#630=EDGE_CURVE('',#517,#517,#398,.T.);
#631=EDGE_CURVE('',#518,#518,#399,.T.);
#632=EDGE_CURVE('',#519,#519,#400,.T.);
#633=EDGE_CURVE('',#520,#521,#401,.T.);
#634=EDGE_CURVE('',#521,#520,#402,.T.);
#635=EDGE_CURVE('',#521,#500,#258,.T.);
#636=EDGE_CURVE('',#517,#522,#403,.T.);
#637=EDGE_CURVE('',#522,#523,#404,.T.);
#638=EDGE_CURVE('',#523,#522,#405,.T.);
#639=EDGE_CURVE('',#524,#525,#406,.T.);
#640=EDGE_CURVE('',#525,#524,#407,.T.);
#641=EDGE_CURVE('',#525,#523,#259,.T.);
#642=EDGE_CURVE('',#519,#526,#408,.T.);
#643=EDGE_CURVE('',#526,#527,#409,.T.);
#644=EDGE_CURVE('',#527,#526,#410,.T.);
#645=EDGE_CURVE('',#528,#529,#411,.T.);
#646=EDGE_CURVE('',#529,#528,#412,.T.);
#647=EDGE_CURVE('',#529,#527,#260,.T.);
#648=EDGE_CURVE('',#518,#530,#413,.T.);
#649=EDGE_CURVE('',#530,#531,#414,.T.);
#650=EDGE_CURVE('',#531,#530,#415,.T.);
#651=EDGE_CURVE('',#532,#533,#416,.T.);
#652=EDGE_CURVE('',#533,#532,#417,.T.);
#653=EDGE_CURVE('',#533,#531,#261,.T.);
#654=EDGE_CURVE('',#534,#534,#418,.T.);
#655=EDGE_CURVE('',#534,#528,#419,.T.);
#656=EDGE_CURVE('',#535,#536,#420,.T.);
#657=EDGE_CURVE('',#536,#537,#262,.T.);
#658=EDGE_CURVE('',#537,#538,#421,.T.);
#659=EDGE_CURVE('',#538,#539,#263,.T.);
#660=EDGE_CURVE('',#539,#540,#422,.T.);
#661=EDGE_CURVE('',#540,#541,#264,.T.);
#662=EDGE_CURVE('',#541,#542,#423,.T.);
#663=EDGE_CURVE('',#542,#535,#265,.T.);
#664=EDGE_CURVE('',#543,#543,#424,.T.);
#665=EDGE_CURVE('',#544,#544,#425,.T.);
#666=EDGE_CURVE('',#545,#545,#426,.T.);
#667=EDGE_CURVE('',#543,#532,#427,.T.);
#668=EDGE_CURVE('',#545,#520,#428,.T.);
#669=EDGE_CURVE('',#544,#524,#429,.T.);
#670=EDGE_CURVE('',#546,#501,#430,.T.);
#671=EDGE_CURVE('',#502,#547,#431,.T.);
#672=EDGE_CURVE('',#547,#546,#432,.T.);
#673=EDGE_CURVE('',#516,#548,#433,.T.);
#674=EDGE_CURVE('',#548,#547,#266,.T.);
#675=EDGE_CURVE('',#515,#549,#434,.T.);
#676=EDGE_CURVE('',#549,#548,#435,.T.);
#677=EDGE_CURVE('',#514,#550,#436,.T.);
#678=EDGE_CURVE('',#550,#549,#437,.T.);
#679=EDGE_CURVE('',#513,#551,#438,.T.);
#680=EDGE_CURVE('',#551,#550,#439,.T.);
#681=EDGE_CURVE('',#512,#552,#440,.T.);
#682=EDGE_CURVE('',#552,#551,#267,.T.);
#683=EDGE_CURVE('',#511,#553,#441,.T.);
#684=EDGE_CURVE('',#553,#552,#442,.T.);
#685=EDGE_CURVE('',#510,#554,#443,.T.);
#686=EDGE_CURVE('',#554,#553,#444,.T.);
#687=EDGE_CURVE('',#509,#555,#445,.T.);
#688=EDGE_CURVE('',#555,#554,#446,.T.);
#689=EDGE_CURVE('',#508,#556,#447,.T.);
#690=EDGE_CURVE('',#556,#555,#268,.T.);
#691=EDGE_CURVE('',#507,#557,#448,.T.);
#692=EDGE_CURVE('',#557,#556,#449,.T.);
#693=EDGE_CURVE('',#506,#558,#450,.T.);
#694=EDGE_CURVE('',#558,#557,#451,.T.);
#695=EDGE_CURVE('',#505,#559,#452,.T.);
#696=EDGE_CURVE('',#559,#558,#453,.T.);
#697=EDGE_CURVE('',#504,#560,#454,.T.);
#698=EDGE_CURVE('',#560,#559,#269,.T.);
#699=EDGE_CURVE('',#503,#561,#455,.T.);
#700=EDGE_CURVE('',#561,#560,#456,.T.);
#701=EDGE_CURVE('',#546,#561,#457,.T.);
#702=EDGE_CURVE('',#476,#556,#270,.T.);
#703=EDGE_CURVE('',#555,#475,#271,.T.);
#704=EDGE_CURVE('',#557,#461,#272,.T.);
#705=EDGE_CURVE('',#462,#558,#273,.T.);
#706=EDGE_CURVE('',#559,#463,#274,.T.);
#707=EDGE_CURVE('',#464,#560,#275,.T.);
#708=EDGE_CURVE('',#561,#465,#276,.T.);
#709=EDGE_CURVE('',#466,#546,#277,.T.);
#710=EDGE_CURVE('',#547,#467,#278,.T.);
#711=EDGE_CURVE('',#535,#479,#279,.T.);
#712=EDGE_CURVE('',#486,#536,#280,.T.);
#713=EDGE_CURVE('',#537,#485,#281,.T.);
#714=EDGE_CURVE('',#484,#538,#282,.T.);
#715=EDGE_CURVE('',#539,#483,#283,.T.);
#716=EDGE_CURVE('',#482,#540,#284,.T.);
#717=EDGE_CURVE('',#541,#481,#285,.T.);
#718=EDGE_CURVE('',#480,#542,#286,.T.);
#719=EDGE_CURVE('',#474,#554,#287,.T.);
#720=EDGE_CURVE('',#553,#473,#288,.T.);
#721=EDGE_CURVE('',#472,#552,#289,.T.);
#722=EDGE_CURVE('',#551,#471,#290,.T.);
#723=EDGE_CURVE('',#470,#550,#291,.T.);
#724=EDGE_CURVE('',#549,#469,#292,.T.);
#725=EDGE_CURVE('',#468,#548,#293,.T.);
#726=ORIENTED_EDGE('',*,*,#562,.T.);
#727=ORIENTED_EDGE('',*,*,#563,.T.);
#728=ORIENTED_EDGE('',*,*,#564,.T.);
#729=ORIENTED_EDGE('',*,*,#565,.T.);
#730=ORIENTED_EDGE('',*,*,#563,.F.);
#731=ORIENTED_EDGE('',*,*,#566,.T.);
#732=ORIENTED_EDGE('',*,*,#567,.F.);
#733=ORIENTED_EDGE('',*,*,#568,.T.);
#734=ORIENTED_EDGE('',*,*,#569,.F.);
#735=ORIENTED_EDGE('',*,*,#570,.T.);
#736=ORIENTED_EDGE('',*,*,#571,.F.);
#737=ORIENTED_EDGE('',*,*,#572,.T.);
#738=ORIENTED_EDGE('',*,*,#573,.F.);
#739=ORIENTED_EDGE('',*,*,#574,.T.);
#740=ORIENTED_EDGE('',*,*,#575,.F.);
#741=ORIENTED_EDGE('',*,*,#576,.T.);
#742=ORIENTED_EDGE('',*,*,#577,.F.);
#743=ORIENTED_EDGE('',*,*,#578,.T.);
#744=ORIENTED_EDGE('',*,*,#579,.F.);
#745=ORIENTED_EDGE('',*,*,#580,.T.);
#746=ORIENTED_EDGE('',*,*,#581,.F.);
#747=ORIENTED_EDGE('',*,*,#582,.F.);
#748=ORIENTED_EDGE('',*,*,#583,.F.);
#749=ORIENTED_EDGE('',*,*,#584,.T.);
#750=ORIENTED_EDGE('',*,*,#585,.F.);
#751=ORIENTED_EDGE('',*,*,#586,.T.);
#752=ORIENTED_EDGE('',*,*,#587,.F.);
#753=ORIENTED_EDGE('',*,*,#588,.T.);
#754=ORIENTED_EDGE('',*,*,#589,.F.);
#755=ORIENTED_EDGE('',*,*,#590,.T.);
#756=ORIENTED_EDGE('',*,*,#591,.F.);
#757=ORIENTED_EDGE('',*,*,#592,.F.);
#758=ORIENTED_EDGE('',*,*,#562,.F.);
#759=ORIENTED_EDGE('',*,*,#564,.F.);
#760=ORIENTED_EDGE('',*,*,#565,.F.);
#761=ORIENTED_EDGE('',*,*,#593,.T.);
#762=ORIENTED_EDGE('',*,*,#594,.T.);
#763=ORIENTED_EDGE('',*,*,#593,.F.);
#764=ORIENTED_EDGE('',*,*,#582,.T.);
#765=ORIENTED_EDGE('',*,*,#595,.T.);
#766=ORIENTED_EDGE('',*,*,#596,.T.);
#767=ORIENTED_EDGE('',*,*,#597,.T.);
#768=ORIENTED_EDGE('',*,*,#595,.F.);
#769=ORIENTED_EDGE('',*,*,#596,.F.);
#770=ORIENTED_EDGE('',*,*,#597,.F.);
#771=ORIENTED_EDGE('',*,*,#598,.T.);
#772=ORIENTED_EDGE('',*,*,#599,.T.);
#773=ORIENTED_EDGE('',*,*,#598,.F.);
#774=ORIENTED_EDGE('',*,*,#592,.T.);
#775=ORIENTED_EDGE('',*,*,#600,.T.);
#776=ORIENTED_EDGE('',*,*,#601,.T.);
#777=ORIENTED_EDGE('',*,*,#602,.T.);
#778=ORIENTED_EDGE('',*,*,#600,.F.);
#779=ORIENTED_EDGE('',*,*,#601,.F.);
#780=ORIENTED_EDGE('',*,*,#602,.F.);
#781=ORIENTED_EDGE('',*,*,#603,.T.);
#782=ORIENTED_EDGE('',*,*,#604,.T.);
#783=ORIENTED_EDGE('',*,*,#603,.F.);
#784=ORIENTED_EDGE('',*,*,#583,.T.);
#785=ORIENTED_EDGE('',*,*,#605,.T.);
#786=ORIENTED_EDGE('',*,*,#606,.T.);
#787=ORIENTED_EDGE('',*,*,#607,.T.);
#788=ORIENTED_EDGE('',*,*,#605,.F.);
#789=ORIENTED_EDGE('',*,*,#606,.F.);
#790=ORIENTED_EDGE('',*,*,#607,.F.);
#791=ORIENTED_EDGE('',*,*,#608,.T.);
#792=ORIENTED_EDGE('',*,*,#609,.T.);
#793=ORIENTED_EDGE('',*,*,#608,.F.);
#794=ORIENTED_EDGE('',*,*,#610,.T.);
#795=ORIENTED_EDGE('',*,*,#611,.T.);
#796=ORIENTED_EDGE('',*,*,#612,.T.);
#797=ORIENTED_EDGE('',*,*,#613,.T.);
#798=ORIENTED_EDGE('',*,*,#611,.F.);
#799=ORIENTED_EDGE('',*,*,#614,.F.);
#800=ORIENTED_EDGE('',*,*,#615,.F.);
#801=ORIENTED_EDGE('',*,*,#616,.F.);
#802=ORIENTED_EDGE('',*,*,#617,.F.);
#803=ORIENTED_EDGE('',*,*,#618,.F.);
#804=ORIENTED_EDGE('',*,*,#619,.F.);
#805=ORIENTED_EDGE('',*,*,#620,.F.);
#806=ORIENTED_EDGE('',*,*,#621,.F.);
#807=ORIENTED_EDGE('',*,*,#622,.F.);
#808=ORIENTED_EDGE('',*,*,#623,.F.);
#809=ORIENTED_EDGE('',*,*,#624,.F.);
#810=ORIENTED_EDGE('',*,*,#625,.F.);
#811=ORIENTED_EDGE('',*,*,#626,.F.);
#812=ORIENTED_EDGE('',*,*,#627,.F.);
#813=ORIENTED_EDGE('',*,*,#628,.F.);
#814=ORIENTED_EDGE('',*,*,#629,.F.);
#815=ORIENTED_EDGE('',*,*,#630,.F.);
#816=ORIENTED_EDGE('',*,*,#631,.F.);
#817=ORIENTED_EDGE('',*,*,#632,.F.);
#818=ORIENTED_EDGE('',*,*,#610,.F.);
#819=ORIENTED_EDGE('',*,*,#633,.F.);
#820=ORIENTED_EDGE('',*,*,#634,.F.);
#821=ORIENTED_EDGE('',*,*,#635,.T.);
#822=ORIENTED_EDGE('',*,*,#612,.F.);
#823=ORIENTED_EDGE('',*,*,#613,.F.);
#824=ORIENTED_EDGE('',*,*,#635,.F.);
#825=ORIENTED_EDGE('',*,*,#630,.T.);
#826=ORIENTED_EDGE('',*,*,#636,.T.);
#827=ORIENTED_EDGE('',*,*,#637,.T.);
#828=ORIENTED_EDGE('',*,*,#638,.T.);
#829=ORIENTED_EDGE('',*,*,#636,.F.);
#830=ORIENTED_EDGE('',*,*,#639,.F.);
#831=ORIENTED_EDGE('',*,*,#640,.F.);
#832=ORIENTED_EDGE('',*,*,#641,.T.);
#833=ORIENTED_EDGE('',*,*,#637,.F.);
#834=ORIENTED_EDGE('',*,*,#638,.F.);
#835=ORIENTED_EDGE('',*,*,#641,.F.);
#836=ORIENTED_EDGE('',*,*,#632,.T.);
#837=ORIENTED_EDGE('',*,*,#642,.T.);
#838=ORIENTED_EDGE('',*,*,#643,.T.);
#839=ORIENTED_EDGE('',*,*,#644,.T.);
#840=ORIENTED_EDGE('',*,*,#642,.F.);
#841=ORIENTED_EDGE('',*,*,#645,.F.);
#842=ORIENTED_EDGE('',*,*,#646,.F.);
#843=ORIENTED_EDGE('',*,*,#647,.T.);
#844=ORIENTED_EDGE('',*,*,#643,.F.);
#845=ORIENTED_EDGE('',*,*,#644,.F.);
#846=ORIENTED_EDGE('',*,*,#647,.F.);
#847=ORIENTED_EDGE('',*,*,#631,.T.);
#848=ORIENTED_EDGE('',*,*,#648,.T.);
#849=ORIENTED_EDGE('',*,*,#649,.T.);
#850=ORIENTED_EDGE('',*,*,#650,.T.);
#851=ORIENTED_EDGE('',*,*,#648,.F.);
#852=ORIENTED_EDGE('',*,*,#651,.F.);
#853=ORIENTED_EDGE('',*,*,#652,.F.);
#854=ORIENTED_EDGE('',*,*,#653,.T.);
#855=ORIENTED_EDGE('',*,*,#649,.F.);
#856=ORIENTED_EDGE('',*,*,#650,.F.);
#857=ORIENTED_EDGE('',*,*,#653,.F.);
#858=ORIENTED_EDGE('',*,*,#654,.T.);
#859=ORIENTED_EDGE('',*,*,#655,.T.);
#860=ORIENTED_EDGE('',*,*,#645,.T.);
#861=ORIENTED_EDGE('',*,*,#646,.T.);
#862=ORIENTED_EDGE('',*,*,#655,.F.);
#863=ORIENTED_EDGE('',*,*,#656,.T.);
#864=ORIENTED_EDGE('',*,*,#657,.T.);
#865=ORIENTED_EDGE('',*,*,#658,.T.);
#866=ORIENTED_EDGE('',*,*,#659,.T.);
#867=ORIENTED_EDGE('',*,*,#660,.T.);
#868=ORIENTED_EDGE('',*,*,#661,.T.);
#869=ORIENTED_EDGE('',*,*,#662,.T.);
#870=ORIENTED_EDGE('',*,*,#663,.T.);
#871=ORIENTED_EDGE('',*,*,#664,.F.);
#872=ORIENTED_EDGE('',*,*,#665,.F.);
#873=ORIENTED_EDGE('',*,*,#666,.F.);
#874=ORIENTED_EDGE('',*,*,#654,.F.);
#875=ORIENTED_EDGE('',*,*,#664,.T.);
#876=ORIENTED_EDGE('',*,*,#667,.T.);
#877=ORIENTED_EDGE('',*,*,#651,.T.);
#878=ORIENTED_EDGE('',*,*,#652,.T.);
#879=ORIENTED_EDGE('',*,*,#667,.F.);
#880=ORIENTED_EDGE('',*,*,#666,.T.);
#881=ORIENTED_EDGE('',*,*,#668,.T.);
#882=ORIENTED_EDGE('',*,*,#633,.T.);
#883=ORIENTED_EDGE('',*,*,#634,.T.);
#884=ORIENTED_EDGE('',*,*,#668,.F.);
#885=ORIENTED_EDGE('',*,*,#665,.T.);
#886=ORIENTED_EDGE('',*,*,#669,.T.);
#887=ORIENTED_EDGE('',*,*,#639,.T.);
#888=ORIENTED_EDGE('',*,*,#640,.T.);
#889=ORIENTED_EDGE('',*,*,#669,.F.);
#890=ORIENTED_EDGE('',*,*,#670,.T.);
#891=ORIENTED_EDGE('',*,*,#614,.T.);
#892=ORIENTED_EDGE('',*,*,#671,.T.);
#893=ORIENTED_EDGE('',*,*,#672,.T.);
#894=ORIENTED_EDGE('',*,*,#673,.T.);
#895=ORIENTED_EDGE('',*,*,#674,.T.);
#896=ORIENTED_EDGE('',*,*,#671,.F.);
#897=ORIENTED_EDGE('',*,*,#629,.T.);
#898=ORIENTED_EDGE('',*,*,#675,.T.);
#899=ORIENTED_EDGE('',*,*,#676,.T.);
#900=ORIENTED_EDGE('',*,*,#673,.F.);
#901=ORIENTED_EDGE('',*,*,#628,.T.);
#902=ORIENTED_EDGE('',*,*,#677,.T.);
#903=ORIENTED_EDGE('',*,*,#678,.T.);
#904=ORIENTED_EDGE('',*,*,#675,.F.);
#905=ORIENTED_EDGE('',*,*,#627,.T.);
#906=ORIENTED_EDGE('',*,*,#679,.T.);
#907=ORIENTED_EDGE('',*,*,#680,.T.);
#908=ORIENTED_EDGE('',*,*,#677,.F.);
#909=ORIENTED_EDGE('',*,*,#626,.T.);
#910=ORIENTED_EDGE('',*,*,#681,.T.);
#911=ORIENTED_EDGE('',*,*,#682,.T.);
#912=ORIENTED_EDGE('',*,*,#679,.F.);
#913=ORIENTED_EDGE('',*,*,#625,.T.);
#914=ORIENTED_EDGE('',*,*,#683,.T.);
#915=ORIENTED_EDGE('',*,*,#684,.T.);
#916=ORIENTED_EDGE('',*,*,#681,.F.);
#917=ORIENTED_EDGE('',*,*,#624,.T.);
#918=ORIENTED_EDGE('',*,*,#685,.T.);
#919=ORIENTED_EDGE('',*,*,#686,.T.);
#920=ORIENTED_EDGE('',*,*,#683,.F.);
#921=ORIENTED_EDGE('',*,*,#623,.T.);
#922=ORIENTED_EDGE('',*,*,#687,.T.);
#923=ORIENTED_EDGE('',*,*,#688,.T.);
#924=ORIENTED_EDGE('',*,*,#685,.F.);
#925=ORIENTED_EDGE('',*,*,#622,.T.);
#926=ORIENTED_EDGE('',*,*,#689,.T.);
#927=ORIENTED_EDGE('',*,*,#690,.T.);
#928=ORIENTED_EDGE('',*,*,#687,.F.);
#929=ORIENTED_EDGE('',*,*,#621,.T.);
#930=ORIENTED_EDGE('',*,*,#691,.T.);
#931=ORIENTED_EDGE('',*,*,#692,.T.);
#932=ORIENTED_EDGE('',*,*,#689,.F.);
#933=ORIENTED_EDGE('',*,*,#620,.T.);
#934=ORIENTED_EDGE('',*,*,#693,.T.);
#935=ORIENTED_EDGE('',*,*,#694,.T.);
#936=ORIENTED_EDGE('',*,*,#691,.F.);
#937=ORIENTED_EDGE('',*,*,#619,.T.);
#938=ORIENTED_EDGE('',*,*,#695,.T.);
#939=ORIENTED_EDGE('',*,*,#696,.T.);
#940=ORIENTED_EDGE('',*,*,#693,.F.);
#941=ORIENTED_EDGE('',*,*,#618,.T.);
#942=ORIENTED_EDGE('',*,*,#697,.T.);
#943=ORIENTED_EDGE('',*,*,#698,.T.);
#944=ORIENTED_EDGE('',*,*,#695,.F.);
#945=ORIENTED_EDGE('',*,*,#617,.T.);
#946=ORIENTED_EDGE('',*,*,#699,.T.);
#947=ORIENTED_EDGE('',*,*,#700,.T.);
#948=ORIENTED_EDGE('',*,*,#697,.F.);
#949=ORIENTED_EDGE('',*,*,#616,.T.);
#950=ORIENTED_EDGE('',*,*,#699,.F.);
#951=ORIENTED_EDGE('',*,*,#615,.T.);
#952=ORIENTED_EDGE('',*,*,#670,.F.);
#953=ORIENTED_EDGE('',*,*,#701,.T.);
#954=ORIENTED_EDGE('',*,*,#690,.F.);
#955=ORIENTED_EDGE('',*,*,#702,.F.);
#956=ORIENTED_EDGE('',*,*,#580,.F.);
#957=ORIENTED_EDGE('',*,*,#703,.F.);
#958=ORIENTED_EDGE('',*,*,#692,.F.);
#959=ORIENTED_EDGE('',*,*,#704,.T.);
#960=ORIENTED_EDGE('',*,*,#581,.T.);
#961=ORIENTED_EDGE('',*,*,#702,.T.);
#962=ORIENTED_EDGE('',*,*,#694,.F.);
#963=ORIENTED_EDGE('',*,*,#705,.F.);
#964=ORIENTED_EDGE('',*,*,#566,.F.);
#965=ORIENTED_EDGE('',*,*,#704,.F.);
#966=ORIENTED_EDGE('',*,*,#696,.F.);
#967=ORIENTED_EDGE('',*,*,#706,.T.);
#968=ORIENTED_EDGE('',*,*,#567,.T.);
#969=ORIENTED_EDGE('',*,*,#705,.T.);
#970=ORIENTED_EDGE('',*,*,#698,.F.);
#971=ORIENTED_EDGE('',*,*,#707,.F.);
#972=ORIENTED_EDGE('',*,*,#568,.F.);
#973=ORIENTED_EDGE('',*,*,#706,.F.);
#974=ORIENTED_EDGE('',*,*,#700,.F.);
#975=ORIENTED_EDGE('',*,*,#708,.T.);
#976=ORIENTED_EDGE('',*,*,#569,.T.);
#977=ORIENTED_EDGE('',*,*,#707,.T.);
#978=ORIENTED_EDGE('',*,*,#701,.F.);
#979=ORIENTED_EDGE('',*,*,#709,.F.);
#980=ORIENTED_EDGE('',*,*,#570,.F.);
#981=ORIENTED_EDGE('',*,*,#708,.F.);
#982=ORIENTED_EDGE('',*,*,#672,.F.);
#983=ORIENTED_EDGE('',*,*,#710,.T.);
#984=ORIENTED_EDGE('',*,*,#571,.T.);
#985=ORIENTED_EDGE('',*,*,#709,.T.);
#986=ORIENTED_EDGE('',*,*,#656,.F.);
#987=ORIENTED_EDGE('',*,*,#711,.T.);
#988=ORIENTED_EDGE('',*,*,#591,.T.);
#989=ORIENTED_EDGE('',*,*,#712,.T.);
#990=ORIENTED_EDGE('',*,*,#712,.F.);
#991=ORIENTED_EDGE('',*,*,#590,.F.);
#992=ORIENTED_EDGE('',*,*,#713,.F.);
#993=ORIENTED_EDGE('',*,*,#657,.F.);
#994=ORIENTED_EDGE('',*,*,#658,.F.);
#995=ORIENTED_EDGE('',*,*,#713,.T.);
#996=ORIENTED_EDGE('',*,*,#589,.T.);
#997=ORIENTED_EDGE('',*,*,#714,.T.);
#998=ORIENTED_EDGE('',*,*,#714,.F.);
#999=ORIENTED_EDGE('',*,*,#588,.F.);
#1000=ORIENTED_EDGE('',*,*,#715,.F.);
#1001=ORIENTED_EDGE('',*,*,#659,.F.);
#1002=ORIENTED_EDGE('',*,*,#660,.F.);
#1003=ORIENTED_EDGE('',*,*,#715,.T.);
#1004=ORIENTED_EDGE('',*,*,#587,.T.);
#1005=ORIENTED_EDGE('',*,*,#716,.T.);
#1006=ORIENTED_EDGE('',*,*,#716,.F.);
#1007=ORIENTED_EDGE('',*,*,#586,.F.);
#1008=ORIENTED_EDGE('',*,*,#717,.F.);
#1009=ORIENTED_EDGE('',*,*,#661,.F.);
#1010=ORIENTED_EDGE('',*,*,#662,.F.);
#1011=ORIENTED_EDGE('',*,*,#717,.T.);
#1012=ORIENTED_EDGE('',*,*,#585,.T.);
#1013=ORIENTED_EDGE('',*,*,#718,.T.);
#1014=ORIENTED_EDGE('',*,*,#711,.F.);
#1015=ORIENTED_EDGE('',*,*,#663,.F.);
#1016=ORIENTED_EDGE('',*,*,#718,.F.);
#1017=ORIENTED_EDGE('',*,*,#584,.F.);
#1018=ORIENTED_EDGE('',*,*,#688,.F.);
#1019=ORIENTED_EDGE('',*,*,#703,.T.);
#1020=ORIENTED_EDGE('',*,*,#579,.T.);
#1021=ORIENTED_EDGE('',*,*,#719,.T.);
#1022=ORIENTED_EDGE('',*,*,#684,.F.);
#1023=ORIENTED_EDGE('',*,*,#720,.T.);
#1024=ORIENTED_EDGE('',*,*,#577,.T.);
#1025=ORIENTED_EDGE('',*,*,#721,.T.);
#1026=ORIENTED_EDGE('',*,*,#686,.F.);
#1027=ORIENTED_EDGE('',*,*,#719,.F.);
#1028=ORIENTED_EDGE('',*,*,#578,.F.);
#1029=ORIENTED_EDGE('',*,*,#720,.F.);
#1030=ORIENTED_EDGE('',*,*,#680,.F.);
#1031=ORIENTED_EDGE('',*,*,#722,.T.);
#1032=ORIENTED_EDGE('',*,*,#575,.T.);
#1033=ORIENTED_EDGE('',*,*,#723,.T.);
#1034=ORIENTED_EDGE('',*,*,#682,.F.);
#1035=ORIENTED_EDGE('',*,*,#721,.F.);
#1036=ORIENTED_EDGE('',*,*,#576,.F.);
#1037=ORIENTED_EDGE('',*,*,#722,.F.);
#1038=ORIENTED_EDGE('',*,*,#676,.F.);
#1039=ORIENTED_EDGE('',*,*,#724,.T.);
#1040=ORIENTED_EDGE('',*,*,#573,.T.);
#1041=ORIENTED_EDGE('',*,*,#725,.T.);
#1042=ORIENTED_EDGE('',*,*,#678,.F.);
#1043=ORIENTED_EDGE('',*,*,#723,.F.);
#1044=ORIENTED_EDGE('',*,*,#574,.F.);
#1045=ORIENTED_EDGE('',*,*,#724,.F.);
#1046=ORIENTED_EDGE('',*,*,#674,.F.);
#1047=ORIENTED_EDGE('',*,*,#725,.F.);
#1048=ORIENTED_EDGE('',*,*,#572,.F.);
#1049=ORIENTED_EDGE('',*,*,#710,.F.);
#1050=ORIENTED_EDGE('',*,*,#604,.F.);
#1051=ORIENTED_EDGE('',*,*,#609,.F.);
#1052=ORIENTED_EDGE('',*,*,#599,.F.);
#1053=ORIENTED_EDGE('',*,*,#594,.F.);
#1054=CONICAL_SURFACE('',#1148,2.5,0.785398163397447);
#1055=CONICAL_SURFACE('',#1174,2.5,0.785398163397447);
#1056=CONICAL_SURFACE('',#1179,2.5,0.785398163397447);
#1057=CONICAL_SURFACE('',#1184,2.5,0.785398163397447);
#1058=ADVANCED_FACE('',(#91),#1054,.F.);
#1059=ADVANCED_FACE('',(#92,#63,#64,#65,#66,#67),#76,.T.);
#1060=ADVANCED_FACE('',(#93),#35,.F.);
#1061=ADVANCED_FACE('',(#94),#1055,.F.);
#1062=ADVANCED_FACE('',(#95),#36,.F.);
#1063=ADVANCED_FACE('',(#96),#1056,.F.);
#1064=ADVANCED_FACE('',(#97),#37,.F.);
#1065=ADVANCED_FACE('',(#98),#1057,.F.);
#1066=ADVANCED_FACE('',(#99),#38,.F.);
#1067=ADVANCED_FACE('',(#100),#19,.T.);
#1068=ADVANCED_FACE('',(#101,#68,#69,#70,#71),#77,.F.);
#1069=ADVANCED_FACE('',(#102),#39,.F.);
#1070=ADVANCED_FACE('',(#103),#20,.T.);
#1071=ADVANCED_FACE('',(#104),#40,.F.);
#1072=ADVANCED_FACE('',(#105),#21,.T.);
#1073=ADVANCED_FACE('',(#106),#41,.F.);
#1074=ADVANCED_FACE('',(#107),#22,.T.);
#1075=ADVANCED_FACE('',(#108),#42,.F.);
#1076=ADVANCED_FACE('',(#109),#23,.T.);
#1077=ADVANCED_FACE('',(#110,#72,#73,#74,#75),#78,.T.);
#1078=ADVANCED_FACE('',(#111),#24,.T.);
#1079=ADVANCED_FACE('',(#112),#25,.T.);
#1080=ADVANCED_FACE('',(#113),#26,.T.);
#1081=ADVANCED_FACE('',(#114),#27,.T.);
#1082=ADVANCED_FACE('',(#115),#43,.T.);
#1083=ADVANCED_FACE('',(#116),#28,.T.);
#1084=ADVANCED_FACE('',(#117),#15,.F.);
#1085=ADVANCED_FACE('',(#118),#29,.T.);
#1086=ADVANCED_FACE('',(#119),#44,.T.);
#1087=ADVANCED_FACE('',(#120),#30,.T.);
#1088=ADVANCED_FACE('',(#121),#16,.F.);
#1089=ADVANCED_FACE('',(#122),#31,.T.);
#1090=ADVANCED_FACE('',(#123),#45,.T.);
#1091=ADVANCED_FACE('',(#124),#32,.T.);
#1092=ADVANCED_FACE('',(#125),#17,.F.);
#1093=ADVANCED_FACE('',(#126),#33,.T.);
#1094=ADVANCED_FACE('',(#127),#46,.T.);
#1095=ADVANCED_FACE('',(#128),#34,.T.);
#1096=ADVANCED_FACE('',(#129),#18,.F.);
#1097=ADVANCED_FACE('',(#130),#79,.T.);
#1098=ADVANCED_FACE('',(#131),#47,.F.);
#1099=ADVANCED_FACE('',(#132),#48,.T.);
#1100=ADVANCED_FACE('',(#133),#49,.F.);
#1101=ADVANCED_FACE('',(#134),#80,.T.);
#1102=ADVANCED_FACE('',(#135),#50,.F.);
#1103=ADVANCED_FACE('',(#136),#51,.T.);
#1104=ADVANCED_FACE('',(#137),#52,.F.);
#1105=ADVANCED_FACE('',(#138),#53,.F.);
#1106=ADVANCED_FACE('',(#139),#81,.T.);
#1107=ADVANCED_FACE('',(#140),#54,.F.);
#1108=ADVANCED_FACE('',(#141),#82,.T.);
#1109=ADVANCED_FACE('',(#142),#55,.F.);
#1110=ADVANCED_FACE('',(#143),#83,.T.);
#1111=ADVANCED_FACE('',(#144),#56,.F.);
#1112=ADVANCED_FACE('',(#145),#84,.T.);
#1113=ADVANCED_FACE('',(#146),#57,.F.);
#1114=ADVANCED_FACE('',(#147),#58,.F.);
#1115=ADVANCED_FACE('',(#148),#59,.T.);
#1116=ADVANCED_FACE('',(#149),#60,.F.);
#1117=ADVANCED_FACE('',(#150),#85,.T.);
#1118=ADVANCED_FACE('',(#151),#61,.F.);
#1119=ADVANCED_FACE('',(#152),#62,.T.);
#1120=ADVANCED_FACE('',(#153),#86,.T.);
#1121=ADVANCED_FACE('',(#154),#87,.T.);
#1122=ADVANCED_FACE('',(#155),#88,.T.);
#1123=ADVANCED_FACE('',(#156),#89,.T.);
#1124=ADVANCED_FACE('',(#157),#90,.T.);
#1125=CLOSED_SHELL('',(#1058,#1059,#1060,#1061,#1062,#1063,#1064,#1065,
#1066,#1067,#1068,#1069,#1070,#1071,#1072,#1073,#1074,#1075,#1076,#1077,
#1078,#1079,#1080,#1081,#1082,#1083,#1084,#1085,#1086,#1087,#1088,#1089,
#1090,#1091,#1092,#1093,#1094,#1095,#1096,#1097,#1098,#1099,#1100,#1101,
#1102,#1103,#1104,#1105,#1106,#1107,#1108,#1109,#1110,#1111,#1112,#1113,
#1114,#1115,#1116,#1117,#1118,#1119,#1120,#1121,#1122,#1123,#1124));
#1126=DERIVED_UNIT_ELEMENT(#1129,1.);
#1127=DERIVED_UNIT_ELEMENT(#2140,-3.);
#1128=DIMENSIONAL_EXPONENTS(0.,1.,0.,0.,0.,0.,0.);
#1129=(
CONVERSION_BASED_UNIT('gram',#1131)
MASS_UNIT()
NAMED_UNIT(#1128)
);
#1130=(
MASS_UNIT()
NAMED_UNIT(*)
SI_UNIT(.KILO.,.GRAM.)
);
#1131=MASS_MEASURE_WITH_UNIT(MASS_MEASURE(0.001),#1130);
#1132=DERIVED_UNIT((#1126,#1127));
#1133=MEASURE_REPRESENTATION_ITEM('density measure',
POSITIVE_RATIO_MEASURE(0.93),#1132);
#1134=PROPERTY_DEFINITION_REPRESENTATION(#1139,#1136);
#1135=PROPERTY_DEFINITION_REPRESENTATION(#1140,#1137);
#1136=REPRESENTATION('material name',(#1138),#2137);
#1137=REPRESENTATION('density',(#1133),#2137);
#1138=DESCRIPTIVE_REPRESENTATION_ITEM('Gummi','Gummi');
#1139=PROPERTY_DEFINITION('material property','material name',#2147);
#1140=PROPERTY_DEFINITION('material property','density of part',#2147);
#1141=DATE_TIME_ROLE('creation_date');
#1142=APPLIED_DATE_AND_TIME_ASSIGNMENT(#1143,#1141,(#2147));
#1143=DATE_AND_TIME(#1144,#1145);
#1144=CALENDAR_DATE(2025,26,1);
#1145=LOCAL_TIME(0,0,0.,#1146);
#1146=COORDINATED_UNIVERSAL_TIME_OFFSET(0,0,.BEHIND.);
#1147=AXIS2_PLACEMENT_3D('',#1719,#1319,#1320);
#1148=AXIS2_PLACEMENT_3D('',#1720,#1321,#1322);
#1149=AXIS2_PLACEMENT_3D('',#1722,#1323,#1324);
#1150=AXIS2_PLACEMENT_3D('',#1726,#1326,#1327);
#1151=AXIS2_PLACEMENT_3D('',#1727,#1328,#1329);
#1152=AXIS2_PLACEMENT_3D('',#1728,#1330,#1331);
#1153=AXIS2_PLACEMENT_3D('',#1731,#1332,#1333);
#1154=AXIS2_PLACEMENT_3D('',#1733,#1334,#1335);
#1155=AXIS2_PLACEMENT_3D('',#1737,#1337,#1338);
#1156=AXIS2_PLACEMENT_3D('',#1739,#1339,#1340);
#1157=AXIS2_PLACEMENT_3D('',#1741,#1341,#1342);
#1158=AXIS2_PLACEMENT_3D('',#1745,#1344,#1345);
#1159=AXIS2_PLACEMENT_3D('',#1747,#1346,#1347);
#1160=AXIS2_PLACEMENT_3D('',#1749,#1348,#1349);
#1161=AXIS2_PLACEMENT_3D('',#1753,#1351,#1352);
#1162=AXIS2_PLACEMENT_3D('',#1755,#1353,#1354);
#1163=AXIS2_PLACEMENT_3D('',#1757,#1355,#1356);
#1164=AXIS2_PLACEMENT_3D('',#1760,#1358,#1359);
#1165=AXIS2_PLACEMENT_3D('',#1762,#1360,#1361);
#1166=AXIS2_PLACEMENT_3D('',#1764,#1362,#1363);
#1167=AXIS2_PLACEMENT_3D('',#1769,#1365,#1366);
#1168=AXIS2_PLACEMENT_3D('',#1773,#1368,#1369);
#1169=AXIS2_PLACEMENT_3D('',#1777,#1371,#1372);
#1170=AXIS2_PLACEMENT_3D('',#1780,#1374,#1375);
#1171=AXIS2_PLACEMENT_3D('',#1782,#1376,#1377);
#1172=AXIS2_PLACEMENT_3D('',#1783,#1378,#1379);
#1173=AXIS2_PLACEMENT_3D('',#1786,#1381,#1382);
#1174=AXIS2_PLACEMENT_3D('',#1787,#1383,#1384);
#1175=AXIS2_PLACEMENT_3D('',#1791,#1386,#1387);
#1176=AXIS2_PLACEMENT_3D('',#1792,#1388,#1389);
#1177=AXIS2_PLACEMENT_3D('',#1793,#1390,#1391);
#1178=AXIS2_PLACEMENT_3D('',#1796,#1393,#1394);
#1179=AXIS2_PLACEMENT_3D('',#1797,#1395,#1396);
#1180=AXIS2_PLACEMENT_3D('',#1801,#1398,#1399);
#1181=AXIS2_PLACEMENT_3D('',#1802,#1400,#1401);
#1182=AXIS2_PLACEMENT_3D('',#1803,#1402,#1403);
#1183=AXIS2_PLACEMENT_3D('',#1806,#1405,#1406);
#1184=AXIS2_PLACEMENT_3D('',#1807,#1407,#1408);
#1185=AXIS2_PLACEMENT_3D('',#1811,#1410,#1411);
#1186=AXIS2_PLACEMENT_3D('',#1812,#1412,#1413);
#1187=AXIS2_PLACEMENT_3D('',#1813,#1414,#1415);
#1188=AXIS2_PLACEMENT_3D('',#1816,#1417,#1418);
#1189=AXIS2_PLACEMENT_3D('',#1817,#1419,#1420);
#1190=AXIS2_PLACEMENT_3D('',#1819,#1421,#1422);
#1191=AXIS2_PLACEMENT_3D('',#1821,#1423,#1424);
#1192=AXIS2_PLACEMENT_3D('',#1823,#1425,#1426);
#1193=AXIS2_PLACEMENT_3D('',#1824,#1427,#1428);
#1194=AXIS2_PLACEMENT_3D('',#1825,#1429,#1430);
#1195=AXIS2_PLACEMENT_3D('',#1828,#1431,#1432);
#1196=AXIS2_PLACEMENT_3D('',#1830,#1433,#1434);
#1197=AXIS2_PLACEMENT_3D('',#1832,#1435,#1436);
#1198=AXIS2_PLACEMENT_3D('',#1836,#1438,#1439);
#1199=AXIS2_PLACEMENT_3D('',#1838,#1440,#1441);
#1200=AXIS2_PLACEMENT_3D('',#1840,#1442,#1443);
#1201=AXIS2_PLACEMENT_3D('',#1844,#1445,#1446);
#1202=AXIS2_PLACEMENT_3D('',#1846,#1447,#1448);
#1203=AXIS2_PLACEMENT_3D('',#1848,#1449,#1450);
#1204=AXIS2_PLACEMENT_3D('',#1852,#1452,#1453);
#1205=AXIS2_PLACEMENT_3D('',#1854,#1454,#1455);
#1206=AXIS2_PLACEMENT_3D('',#1856,#1456,#1457);
#1207=AXIS2_PLACEMENT_3D('',#1859,#1459,#1460);
#1208=AXIS2_PLACEMENT_3D('',#1861,#1461,#1462);
#1209=AXIS2_PLACEMENT_3D('',#1863,#1463,#1464);
#1210=AXIS2_PLACEMENT_3D('',#1864,#1465,#1466);
#1211=AXIS2_PLACEMENT_3D('',#1867,#1467,#1468);
#1212=AXIS2_PLACEMENT_3D('',#1868,#1469,#1470);
#1213=AXIS2_PLACEMENT_3D('',#1870,#1472,#1473);
#1214=AXIS2_PLACEMENT_3D('',#1872,#1474,#1475);
#1215=AXIS2_PLACEMENT_3D('',#1874,#1476,#1477);
#1216=AXIS2_PLACEMENT_3D('',#1875,#1478,#1479);
#1217=AXIS2_PLACEMENT_3D('',#1876,#1480,#1481);
#1218=AXIS2_PLACEMENT_3D('',#1879,#1482,#1483);
#1219=AXIS2_PLACEMENT_3D('',#1880,#1484,#1485);
#1220=AXIS2_PLACEMENT_3D('',#1882,#1487,#1488);
#1221=AXIS2_PLACEMENT_3D('',#1884,#1489,#1490);
#1222=AXIS2_PLACEMENT_3D('',#1886,#1491,#1492);
#1223=AXIS2_PLACEMENT_3D('',#1887,#1493,#1494);
#1224=AXIS2_PLACEMENT_3D('',#1888,#1495,#1496);
#1225=AXIS2_PLACEMENT_3D('',#1891,#1497,#1498);
#1226=AXIS2_PLACEMENT_3D('',#1892,#1499,#1500);
#1227=AXIS2_PLACEMENT_3D('',#1894,#1502,#1503);
#1228=AXIS2_PLACEMENT_3D('',#1896,#1504,#1505);
#1229=AXIS2_PLACEMENT_3D('',#1898,#1506,#1507);
#1230=AXIS2_PLACEMENT_3D('',#1899,#1508,#1509);
#1231=AXIS2_PLACEMENT_3D('',#1900,#1510,#1511);
#1232=AXIS2_PLACEMENT_3D('',#1903,#1512,#1513);
#1233=AXIS2_PLACEMENT_3D('',#1904,#1514,#1515);
#1234=AXIS2_PLACEMENT_3D('',#1906,#1517,#1518);
#1235=AXIS2_PLACEMENT_3D('',#1908,#1519,#1520);
#1236=AXIS2_PLACEMENT_3D('',#1909,#1521,#1522);
#1237=AXIS2_PLACEMENT_3D('',#1910,#1523,#1524);
#1238=AXIS2_PLACEMENT_3D('',#1913,#1525,#1526);
#1239=AXIS2_PLACEMENT_3D('',#1917,#1528,#1529);
#1240=AXIS2_PLACEMENT_3D('',#1921,#1531,#1532);
#1241=AXIS2_PLACEMENT_3D('',#1925,#1534,#1535);
#1242=AXIS2_PLACEMENT_3D('',#1928,#1537,#1538);
#1243=AXIS2_PLACEMENT_3D('',#1930,#1539,#1540);
#1244=AXIS2_PLACEMENT_3D('',#1932,#1541,#1542);
#1245=AXIS2_PLACEMENT_3D('',#1933,#1543,#1544);
#1246=AXIS2_PLACEMENT_3D('',#1934,#1545,#1546);
#1247=AXIS2_PLACEMENT_3D('',#1935,#1547,#1548);
#1248=AXIS2_PLACEMENT_3D('',#1936,#1549,#1550);
#1249=AXIS2_PLACEMENT_3D('',#1937,#1551,#1552);
#1250=AXIS2_PLACEMENT_3D('',#1938,#1553,#1554);
#1251=AXIS2_PLACEMENT_3D('',#1939,#1555,#1556);
#1252=AXIS2_PLACEMENT_3D('',#1941,#1557,#1558);
#1253=AXIS2_PLACEMENT_3D('',#1943,#1559,#1560);
#1254=AXIS2_PLACEMENT_3D('',#1944,#1561,#1562);
#1255=AXIS2_PLACEMENT_3D('',#1945,#1563,#1564);
#1256=AXIS2_PLACEMENT_3D('',#1947,#1565,#1566);
#1257=AXIS2_PLACEMENT_3D('',#1949,#1568,#1569);
#1258=AXIS2_PLACEMENT_3D('',#1951,#1570,#1571);
#1259=AXIS2_PLACEMENT_3D('',#1952,#1572,#1573);
#1260=AXIS2_PLACEMENT_3D('',#1975,#1574,#1575);
#1261=AXIS2_PLACEMENT_3D('',#1976,#1576,#1577);
#1262=AXIS2_PLACEMENT_3D('',#1977,#1578,#1579);
#1263=AXIS2_PLACEMENT_3D('',#1979,#1580,#1581);
#1264=AXIS2_PLACEMENT_3D('',#1980,#1582,#1583);
#1265=AXIS2_PLACEMENT_3D('',#1981,#1584,#1585);
#1266=AXIS2_PLACEMENT_3D('',#1983,#1586,#1587);
#1267=AXIS2_PLACEMENT_3D('',#1985,#1589,#1590);
#1268=AXIS2_PLACEMENT_3D('',#1987,#1591,#1592);
#1269=AXIS2_PLACEMENT_3D('',#1988,#1593,#1594);
#1270=AXIS2_PLACEMENT_3D('',#2011,#1595,#1596);
#1271=AXIS2_PLACEMENT_3D('',#2012,#1597,#1598);
#1272=AXIS2_PLACEMENT_3D('',#2013,#1599,#1600);
#1273=AXIS2_PLACEMENT_3D('',#2015,#1601,#1602);
#1274=AXIS2_PLACEMENT_3D('',#2016,#1603,#1604);
#1275=AXIS2_PLACEMENT_3D('',#2017,#1605,#1606);
#1276=AXIS2_PLACEMENT_3D('',#2019,#1607,#1608);
#1277=AXIS2_PLACEMENT_3D('',#2021,#1610,#1611);
#1278=AXIS2_PLACEMENT_3D('',#2023,#1612,#1613);
#1279=AXIS2_PLACEMENT_3D('',#2024,#1614,#1615);
#1280=AXIS2_PLACEMENT_3D('',#2047,#1616,#1617);
#1281=AXIS2_PLACEMENT_3D('',#2048,#1618,#1619);
#1282=AXIS2_PLACEMENT_3D('',#2049,#1620,#1621);
#1283=AXIS2_PLACEMENT_3D('',#2051,#1622,#1623);
#1284=AXIS2_PLACEMENT_3D('',#2052,#1624,#1625);
#1285=AXIS2_PLACEMENT_3D('',#2053,#1626,#1627);
#1286=AXIS2_PLACEMENT_3D('',#2055,#1628,#1629);
#1287=AXIS2_PLACEMENT_3D('',#2057,#1631,#1632);
#1288=AXIS2_PLACEMENT_3D('',#2059,#1633,#1634);
#1289=AXIS2_PLACEMENT_3D('',#2060,#1635,#1636);
#1290=AXIS2_PLACEMENT_3D('',#2082,#1637,#1638);
#1291=AXIS2_PLACEMENT_3D('',#2083,#1639,#1640);
#1292=AXIS2_PLACEMENT_3D('',#2086,#1643,#1644);
#1293=AXIS2_PLACEMENT_3D('',#2088,#1646,#1647);
#1294=AXIS2_PLACEMENT_3D('',#2090,#1649,#1650);
#1295=AXIS2_PLACEMENT_3D('',#2092,#1652,#1653);
#1296=AXIS2_PLACEMENT_3D('',#2094,#1655,#1656);
#1297=AXIS2_PLACEMENT_3D('',#2096,#1658,#1659);
#1298=AXIS2_PLACEMENT_3D('',#2098,#1661,#1662);
#1299=AXIS2_PLACEMENT_3D('',#2100,#1664,#1665);
#1300=AXIS2_PLACEMENT_3D('',#2103,#1668,#1669);
#1301=AXIS2_PLACEMENT_3D('',#2105,#1671,#1672);
#1302=AXIS2_PLACEMENT_3D('',#2107,#1674,#1675);
#1303=AXIS2_PLACEMENT_3D('',#2109,#1677,#1678);
#1304=AXIS2_PLACEMENT_3D('',#2111,#1680,#1681);
#1305=AXIS2_PLACEMENT_3D('',#2113,#1683,#1684);
#1306=AXIS2_PLACEMENT_3D('',#2115,#1686,#1687);
#1307=AXIS2_PLACEMENT_3D('',#2116,#1688,#1689);
#1308=AXIS2_PLACEMENT_3D('',#2118,#1691,#1692);
#1309=AXIS2_PLACEMENT_3D('',#2121,#1695,#1696);
#1310=AXIS2_PLACEMENT_3D('',#2122,#1697,#1698);
#1311=AXIS2_PLACEMENT_3D('',#2125,#1701,#1702);
#1312=AXIS2_PLACEMENT_3D('',#2126,#1703,#1704);
#1313=AXIS2_PLACEMENT_3D('',#2129,#1707,#1708);
#1314=AXIS2_PLACEMENT_3D('',#2130,#1709,#1710);
#1315=AXIS2_PLACEMENT_3D('',#2131,#1711,#1712);
#1316=AXIS2_PLACEMENT_3D('',#2132,#1713,#1714);
#1317=AXIS2_PLACEMENT_3D('',#2133,#1715,#1716);
#1318=AXIS2_PLACEMENT_3D('',#2134,#1717,#1718);
#1319=DIRECTION('axis',(0.,0.,1.));
#1320=DIRECTION('refdir',(1.,0.,0.));
#1321=DIRECTION('center_axis',(0.,1.,0.));
#1322=DIRECTION('ref_axis',(-1.,0.,0.));
#1323=DIRECTION('center_axis',(0.,1.,0.));
#1324=DIRECTION('ref_axis',(-1.,0.,0.));
#1325=DIRECTION('',(-0.707106781186546,-0.707106781186549,8.65956056235492E-17));
#1326=DIRECTION('center_axis',(0.,-1.,0.));
#1327=DIRECTION('ref_axis',(-1.,0.,0.));
#1328=DIRECTION('center_axis',(0.,-1.,0.));
#1329=DIRECTION('ref_axis',(-1.,0.,0.));
#1330=DIRECTION('center_axis',(0.,1.,0.));
#1331=DIRECTION('ref_axis',(0.,0.,1.));
#1332=DIRECTION('center_axis',(0.,1.,0.));
#1333=DIRECTION('ref_axis',(-1.11022302462516E-14,0.,-1.));
#1334=DIRECTION('center_axis',(0.,1.,0.));
#1335=DIRECTION('ref_axis',(-0.499999999999999,0.,-0.866025403784439));
#1336=DIRECTION('',(1.,0.,-2.468876774705E-16));
#1337=DIRECTION('center_axis',(0.,1.,0.));
#1338=DIRECTION('ref_axis',(0.499999999999999,0.,-0.866025403784439));
#1339=DIRECTION('center_axis',(0.,1.,0.));
#1340=DIRECTION('ref_axis',(-1.,0.,-2.22044604925033E-15));
#1341=DIRECTION('center_axis',(0.,1.,0.));
#1342=DIRECTION('ref_axis',(-0.866025403784439,0.,0.499999999999999));
#1343=DIRECTION('',(-2.16628882853689E-16,0.,-1.));
#1344=DIRECTION('center_axis',(0.,1.,0.));
#1345=DIRECTION('ref_axis',(-0.866025403784438,0.,-0.500000000000001));
#1346=DIRECTION('center_axis',(0.,1.,0.));
#1347=DIRECTION('ref_axis',(2.22044604925034E-15,0.,1.));
#1348=DIRECTION('center_axis',(0.,1.,0.));
#1349=DIRECTION('ref_axis',(0.499999999999999,0.,0.866025403784439));
#1350=DIRECTION('',(-1.,0.,2.468876774705E-16));
#1351=DIRECTION('center_axis',(0.,1.,0.));
#1352=DIRECTION('ref_axis',(-0.499999999999999,0.,0.866025403784439));
#1353=DIRECTION('center_axis',(0.,1.,0.));
#1354=DIRECTION('ref_axis',(1.,0.,-8.88178419700123E-15));
#1355=DIRECTION('center_axis',(0.,1.,0.));
#1356=DIRECTION('ref_axis',(0.866025403784439,0.,-0.499999999999999));
#1357=DIRECTION('',(2.16628882853689E-16,0.,1.));
#1358=DIRECTION('center_axis',(0.,1.,0.));
#1359=DIRECTION('ref_axis',(0.866025403784439,0.,0.5));
#1360=DIRECTION('center_axis',(0.,1.,0.));
#1361=DIRECTION('ref_axis',(-1.,0.,0.));
#1362=DIRECTION('center_axis',(0.,1.,0.));
#1363=DIRECTION('ref_axis',(-1.,0.,0.));
#1364=DIRECTION('',(-1.,0.,3.19718653599757E-16));
#1365=DIRECTION('center_axis',(0.,1.,0.));
#1366=DIRECTION('ref_axis',(-0.707106781186548,0.,0.707106781186548));
#1367=DIRECTION('',(-2.25808072805116E-16,0.,-1.));
#1368=DIRECTION('center_axis',(0.,1.,0.));
#1369=DIRECTION('ref_axis',(-0.707106781186549,0.,-0.707106781186546));
#1370=DIRECTION('',(1.,0.,-1.91831192159854E-16));
#1371=DIRECTION('center_axis',(0.,1.,0.));
#1372=DIRECTION('ref_axis',(0.707106781186546,0.,-0.707106781186549));
#1373=DIRECTION('',(2.25808072805117E-16,0.,1.));
#1374=DIRECTION('center_axis',(0.,1.,0.));
#1375=DIRECTION('ref_axis',(0.707106781186548,0.,0.707106781186548));
#1376=DIRECTION('center_axis',(0.,1.,0.));
#1377=DIRECTION('ref_axis',(-1.,0.,0.));
#1378=DIRECTION('center_axis',(0.,-1.,0.));
#1379=DIRECTION('ref_axis',(1.,0.,0.));
#1380=DIRECTION('',(0.,-1.,0.));
#1381=DIRECTION('center_axis',(0.,-1.,0.));
#1382=DIRECTION('ref_axis',(1.,0.,0.));
#1383=DIRECTION('center_axis',(0.,1.,0.));
#1384=DIRECTION('ref_axis',(-1.,0.,0.));
#1385=DIRECTION('',(-0.707106781186546,-0.707106781186549,8.65956056235492E-17));
#1386=DIRECTION('center_axis',(0.,-1.,0.));
#1387=DIRECTION('ref_axis',(-1.,0.,0.));
#1388=DIRECTION('center_axis',(0.,-1.,0.));
#1389=DIRECTION('ref_axis',(-1.,0.,0.));
#1390=DIRECTION('center_axis',(0.,-1.,0.));
#1391=DIRECTION('ref_axis',(1.,0.,0.));
#1392=DIRECTION('',(0.,-1.,0.));
#1393=DIRECTION('center_axis',(0.,-1.,0.));
#1394=DIRECTION('ref_axis',(1.,0.,0.));
#1395=DIRECTION('center_axis',(0.,1.,0.));
#1396=DIRECTION('ref_axis',(-1.,0.,0.));
#1397=DIRECTION('',(-0.707106781186546,-0.707106781186549,8.65956056235492E-17));
#1398=DIRECTION('center_axis',(0.,-1.,0.));
#1399=DIRECTION('ref_axis',(-1.,0.,0.));
#1400=DIRECTION('center_axis',(0.,-1.,0.));
#1401=DIRECTION('ref_axis',(-1.,0.,0.));
#1402=DIRECTION('center_axis',(0.,-1.,0.));
#1403=DIRECTION('ref_axis',(1.,0.,0.));
#1404=DIRECTION('',(0.,-1.,0.));
#1405=DIRECTION('center_axis',(0.,-1.,0.));
#1406=DIRECTION('ref_axis',(1.,0.,0.));
#1407=DIRECTION('center_axis',(0.,1.,0.));
#1408=DIRECTION('ref_axis',(-1.,0.,0.));
#1409=DIRECTION('',(-0.707106781186546,-0.707106781186549,8.65956056235492E-17));
#1410=DIRECTION('center_axis',(0.,-1.,0.));
#1411=DIRECTION('ref_axis',(-1.,0.,0.));
#1412=DIRECTION('center_axis',(0.,-1.,0.));
#1413=DIRECTION('ref_axis',(-1.,0.,0.));
#1414=DIRECTION('center_axis',(0.,-1.,0.));
#1415=DIRECTION('ref_axis',(1.,0.,0.));
#1416=DIRECTION('',(0.,-1.,0.));
#1417=DIRECTION('center_axis',(0.,-1.,0.));
#1418=DIRECTION('ref_axis',(1.,0.,0.));
#1419=DIRECTION('center_axis',(0.,1.,0.));
#1420=DIRECTION('ref_axis',(0.,0.,1.));
#1421=DIRECTION('center_axis',(0.,-1.,0.));
#1422=DIRECTION('ref_axis',(-1.,0.,0.));
#1423=DIRECTION('center_axis',(-1.,0.,0.));
#1424=DIRECTION('ref_axis',(0.,0.,-1.));
#1425=DIRECTION('center_axis',(0.,1.,0.));
#1426=DIRECTION('ref_axis',(-1.,0.,0.));
#1427=DIRECTION('center_axis',(0.,1.,0.));
#1428=DIRECTION('ref_axis',(-1.,0.,0.));
#1429=DIRECTION('center_axis',(0.,1.,0.));
#1430=DIRECTION('ref_axis',(0.,0.,1.));
#1431=DIRECTION('center_axis',(0.,-1.,0.));
#1432=DIRECTION('ref_axis',(-0.866025403784439,0.,0.499999999999999));
#1433=DIRECTION('center_axis',(0.,1.,0.));
#1434=DIRECTION('ref_axis',(0.707106781186546,0.,0.707106781186549));
#1435=DIRECTION('center_axis',(0.,-1.,0.));
#1436=DIRECTION('ref_axis',(0.499999999999999,0.,-0.866025403784439));
#1437=DIRECTION('',(1.,0.,-2.468876774705E-16));
#1438=DIRECTION('center_axis',(0.,-1.,0.));
#1439=DIRECTION('ref_axis',(-0.499999999999999,0.,-0.866025403784439));
#1440=DIRECTION('center_axis',(0.,1.,0.));
#1441=DIRECTION('ref_axis',(-0.707106781186546,0.,0.707106781186549));
#1442=DIRECTION('center_axis',(0.,-1.,0.));
#1443=DIRECTION('ref_axis',(0.866025403784438,0.,0.5));
#1444=DIRECTION('',(2.16628882853689E-16,0.,1.));
#1445=DIRECTION('center_axis',(0.,-1.,0.));
#1446=DIRECTION('ref_axis',(0.866025403784439,0.,-0.499999999999999));
#1447=DIRECTION('center_axis',(0.,1.,0.));
#1448=DIRECTION('ref_axis',(-0.707106781186548,0.,-0.707106781186548));
#1449=DIRECTION('center_axis',(0.,-1.,0.));
#1450=DIRECTION('ref_axis',(-0.499999999999999,0.,0.866025403784439));
#1451=DIRECTION('',(-1.,0.,2.468876774705E-16));
#1452=DIRECTION('center_axis',(0.,-1.,0.));
#1453=DIRECTION('ref_axis',(0.499999999999999,0.,0.866025403784439));
#1454=DIRECTION('center_axis',(0.,1.,0.));
#1455=DIRECTION('ref_axis',(0.707106781186546,0.,-0.707106781186549));
#1456=DIRECTION('center_axis',(0.,-1.,0.));
#1457=DIRECTION('ref_axis',(-0.866025403784438,0.,-0.5));
#1458=DIRECTION('',(-2.16628882853689E-16,0.,-1.));
#1459=DIRECTION('center_axis',(0.,-1.,0.));
#1460=DIRECTION('ref_axis',(-1.,0.,0.));
#1461=DIRECTION('center_axis',(0.,-1.,0.));
#1462=DIRECTION('ref_axis',(-1.,0.,0.));
#1463=DIRECTION('center_axis',(0.,-1.,0.));
#1464=DIRECTION('ref_axis',(-1.,0.,0.));
#1465=DIRECTION('center_axis',(0.,-1.,0.));
#1466=DIRECTION('ref_axis',(-1.,0.,0.));
#1467=DIRECTION('center_axis',(0.,-1.,0.));
#1468=DIRECTION('ref_axis',(1.,0.,0.));
#1469=DIRECTION('center_axis',(0.,-1.,0.));
#1470=DIRECTION('ref_axis',(1.,0.,0.));
#1471=DIRECTION('',(0.,-1.,0.));
#1472=DIRECTION('center_axis',(0.,1.,0.));
#1473=DIRECTION('ref_axis',(0.,0.,1.));
#1474=DIRECTION('center_axis',(-1.,0.,0.));
#1475=DIRECTION('ref_axis',(0.,0.,-1.));
#1476=DIRECTION('center_axis',(0.,1.,0.));
#1477=DIRECTION('ref_axis',(-1.,0.,0.));
#1478=DIRECTION('center_axis',(0.,1.,0.));
#1479=DIRECTION('ref_axis',(-1.,0.,0.));
#1480=DIRECTION('center_axis',(0.,-1.,0.));
#1481=DIRECTION('ref_axis',(-1.,0.,0.));
#1482=DIRECTION('center_axis',(0.,-1.,0.));
#1483=DIRECTION('ref_axis',(1.,0.,0.));
#1484=DIRECTION('center_axis',(0.,-1.,0.));
#1485=DIRECTION('ref_axis',(1.,0.,0.));
#1486=DIRECTION('',(0.,-1.,0.));
#1487=DIRECTION('center_axis',(0.,1.,0.));
#1488=DIRECTION('ref_axis',(0.,0.,1.));
#1489=DIRECTION('center_axis',(-1.,0.,0.));
#1490=DIRECTION('ref_axis',(0.,0.,-1.));
#1491=DIRECTION('center_axis',(0.,1.,0.));
#1492=DIRECTION('ref_axis',(-1.,0.,0.));
#1493=DIRECTION('center_axis',(0.,1.,0.));
#1494=DIRECTION('ref_axis',(-1.,0.,0.));
#1495=DIRECTION('center_axis',(0.,-1.,0.));
#1496=DIRECTION('ref_axis',(-1.,0.,0.));
#1497=DIRECTION('center_axis',(0.,-1.,0.));
#1498=DIRECTION('ref_axis',(1.,0.,0.));
#1499=DIRECTION('center_axis',(0.,-1.,0.));
#1500=DIRECTION('ref_axis',(1.,0.,0.));
#1501=DIRECTION('',(0.,-1.,0.));
#1502=DIRECTION('center_axis',(0.,1.,0.));
#1503=DIRECTION('ref_axis',(0.,0.,1.));
#1504=DIRECTION('center_axis',(-1.,0.,0.));
#1505=DIRECTION('ref_axis',(0.,0.,-1.));
#1506=DIRECTION('center_axis',(0.,1.,0.));
#1507=DIRECTION('ref_axis',(-1.,0.,0.));
#1508=DIRECTION('center_axis',(0.,1.,0.));
#1509=DIRECTION('ref_axis',(-1.,0.,0.));
#1510=DIRECTION('center_axis',(0.,-1.,0.));
#1511=DIRECTION('ref_axis',(-1.,0.,0.));
#1512=DIRECTION('center_axis',(0.,-1.,0.));
#1513=DIRECTION('ref_axis',(1.,0.,0.));
#1514=DIRECTION('center_axis',(0.,-1.,0.));
#1515=DIRECTION('ref_axis',(1.,0.,0.));
#1516=DIRECTION('',(0.,-1.,0.));
#1517=DIRECTION('center_axis',(0.,-1.,0.));
#1518=DIRECTION('ref_axis',(0.,0.,-1.));
#1519=DIRECTION('center_axis',(0.,1.,0.));
#1520=DIRECTION('ref_axis',(1.,0.,0.));
#1521=DIRECTION('center_axis',(-1.,0.,0.));
#1522=DIRECTION('ref_axis',(0.,0.,1.));
#1523=DIRECTION('center_axis',(0.,1.,0.));
#1524=DIRECTION('ref_axis',(0.,0.,1.));
#1525=DIRECTION('center_axis',(0.,1.,0.));
#1526=DIRECTION('ref_axis',(0.707106781186548,0.,0.707106781186548));
#1527=DIRECTION('',(-2.25808072805117E-16,0.,-1.));
#1528=DIRECTION('center_axis',(0.,1.,0.));
#1529=DIRECTION('ref_axis',(0.707106781186546,0.,-0.707106781186549));
#1530=DIRECTION('',(-1.,0.,1.91831192159854E-16));
#1531=DIRECTION('center_axis',(0.,1.,0.));
#1532=DIRECTION('ref_axis',(-0.707106781186549,0.,-0.707106781186546));
#1533=DIRECTION('',(2.25808072805116E-16,0.,1.));
#1534=DIRECTION('center_axis',(0.,1.,0.));
#1535=DIRECTION('ref_axis',(-0.707106781186548,0.,0.707106781186548));
#1536=DIRECTION('',(1.,0.,-3.19718653599757E-16));
#1537=DIRECTION('center_axis',(0.,1.,0.));
#1538=DIRECTION('ref_axis',(1.,0.,0.));
#1539=DIRECTION('center_axis',(0.,1.,0.));
#1540=DIRECTION('ref_axis',(1.,0.,0.));
#1541=DIRECTION('center_axis',(0.,1.,0.));
#1542=DIRECTION('ref_axis',(1.,0.,0.));
#1543=DIRECTION('center_axis',(0.,-1.,0.));
#1544=DIRECTION('ref_axis',(0.,0.,-1.));
#1545=DIRECTION('center_axis',(-1.,0.,0.));
#1546=DIRECTION('ref_axis',(0.,0.,1.));
#1547=DIRECTION('center_axis',(0.,-1.,0.));
#1548=DIRECTION('ref_axis',(0.,0.,-1.));
#1549=DIRECTION('center_axis',(-1.,0.,0.));
#1550=DIRECTION('ref_axis',(0.,0.,1.));
#1551=DIRECTION('center_axis',(0.,-1.,0.));
#1552=DIRECTION('ref_axis',(0.,0.,-1.));
#1553=DIRECTION('center_axis',(-1.,0.,0.));
#1554=DIRECTION('ref_axis',(0.,0.,1.));
#1555=DIRECTION('center_axis',(0.,-1.,0.));
#1556=DIRECTION('ref_axis',(0.,0.,-1.));
#1557=DIRECTION('center_axis',(-0.866025403784437,0.,-0.500000000000002));
#1558=DIRECTION('ref_axis',(0.500000000000002,0.,-0.866025403784437));
#1559=DIRECTION('center_axis',(0.,0.,1.));
#1560=DIRECTION('ref_axis',(0.,-1.,0.));
#1561=DIRECTION('center_axis',(0.,1.,0.));
#1562=DIRECTION('ref_axis',(-0.866025403784439,0.,0.499999999999999));
#1563=DIRECTION('center_axis',(2.16628882853689E-16,0.,1.));
#1564=DIRECTION('ref_axis',(0.707106781186549,-0.707106781186546,0.));
#1565=DIRECTION('center_axis',(0.,0.,1.));
#1566=DIRECTION('ref_axis',(0.,-1.,0.));
#1567=DIRECTION('',(2.16628882853689E-16,0.,1.));
#1568=DIRECTION('center_axis',(0.,-1.,0.));
#1569=DIRECTION('ref_axis',(0.,0.,-1.));
#1570=DIRECTION('center_axis',(-0.86602540378444,0.,0.499999999999997));
#1571=DIRECTION('ref_axis',(0.,-1.,0.));
#1572=DIRECTION('center_axis',(0.,1.,0.));
#1573=DIRECTION('ref_axis',(-0.866025403784438,0.,-0.5));
#1574=DIRECTION('center_axis',(0.499999999999999,0.,-0.866025403784439));
#1575=DIRECTION('ref_axis',(0.,-1.,0.));
#1576=DIRECTION('center_axis',(0.,-1.,0.));
#1577=DIRECTION('ref_axis',(0.707106781186546,0.,-0.707106781186549));
#1578=DIRECTION('center_axis',(0.,-1.,0.));
#1579=DIRECTION('ref_axis',(0.,0.,-1.));
#1580=DIRECTION('center_axis',(1.,0.,0.));
#1581=DIRECTION('ref_axis',(0.,-1.,0.));
#1582=DIRECTION('center_axis',(0.,1.,0.));
#1583=DIRECTION('ref_axis',(0.499999999999999,0.,0.866025403784439));
#1584=DIRECTION('center_axis',(1.,0.,-2.468876774705E-16));
#1585=DIRECTION('ref_axis',(0.,-0.707106781186549,-0.707106781186546));
#1586=DIRECTION('center_axis',(1.,0.,0.));
#1587=DIRECTION('ref_axis',(0.,-1.,0.));
#1588=DIRECTION('',(1.,0.,-2.468876774705E-16));
#1589=DIRECTION('center_axis',(0.,-1.,0.));
#1590=DIRECTION('ref_axis',(0.,0.,-1.));
#1591=DIRECTION('center_axis',(0.500000000000002,0.,0.866025403784437));
#1592=DIRECTION('ref_axis',(0.,-1.,0.));
#1593=DIRECTION('center_axis',(0.,1.,0.));
#1594=DIRECTION('ref_axis',(-0.499999999999999,0.,0.866025403784439));
#1595=DIRECTION('center_axis',(-0.866025403784439,0.,-0.499999999999999));
#1596=DIRECTION('ref_axis',(0.,-1.,0.));
#1597=DIRECTION('center_axis',(0.,-1.,0.));
#1598=DIRECTION('ref_axis',(-0.707106781186548,0.,-0.707106781186548));
#1599=DIRECTION('center_axis',(0.,-1.,0.));
#1600=DIRECTION('ref_axis',(0.,0.,-1.));
#1601=DIRECTION('center_axis',(0.,0.,-1.));
#1602=DIRECTION('ref_axis',(0.,-1.,0.));
#1603=DIRECTION('center_axis',(0.,1.,0.));
#1604=DIRECTION('ref_axis',(0.866025403784439,0.,-0.499999999999999));
#1605=DIRECTION('center_axis',(-2.16628882853689E-16,0.,-1.));
#1606=DIRECTION('ref_axis',(-0.707106781186549,-0.707106781186546,0.));
#1607=DIRECTION('center_axis',(0.,0.,-1.));
#1608=DIRECTION('ref_axis',(0.,-1.,0.));
#1609=DIRECTION('',(-2.16628882853689E-16,0.,-1.));
#1610=DIRECTION('center_axis',(0.,-1.,0.));
#1611=DIRECTION('ref_axis',(0.,0.,-1.));
#1612=DIRECTION('center_axis',(0.866025403784437,0.,-0.500000000000002));
#1613=DIRECTION('ref_axis',(0.,-1.,0.));
#1614=DIRECTION('center_axis',(0.,1.,0.));
#1615=DIRECTION('ref_axis',(0.866025403784438,0.,0.5));
#1616=DIRECTION('center_axis',(-0.499999999999999,0.,0.866025403784439));
#1617=DIRECTION('ref_axis',(0.,-1.,0.));
#1618=DIRECTION('center_axis',(0.,-1.,0.));
#1619=DIRECTION('ref_axis',(-0.707106781186546,0.,0.707106781186549));
#1620=DIRECTION('center_axis',(0.,-1.,0.));
#1621=DIRECTION('ref_axis',(0.,0.,-1.));
#1622=DIRECTION('center_axis',(-1.,0.,0.));
#1623=DIRECTION('ref_axis',(0.,-1.,0.));
#1624=DIRECTION('center_axis',(0.,1.,0.));
#1625=DIRECTION('ref_axis',(-0.499999999999999,0.,-0.866025403784439));
#1626=DIRECTION('center_axis',(-1.,0.,2.468876774705E-16));
#1627=DIRECTION('ref_axis',(0.,-0.707106781186549,0.707106781186546));
#1628=DIRECTION('center_axis',(-1.,0.,0.));
#1629=DIRECTION('ref_axis',(0.,-1.,0.));
#1630=DIRECTION('',(-1.,0.,2.468876774705E-16));
#1631=DIRECTION('center_axis',(0.,-1.,0.));
#1632=DIRECTION('ref_axis',(0.,0.,-1.));
#1633=DIRECTION('center_axis',(-0.500000000000002,0.,-0.866025403784437));
#1634=DIRECTION('ref_axis',(0.,-1.,0.));
#1635=DIRECTION('center_axis',(0.,1.,0.));
#1636=DIRECTION('ref_axis',(0.499999999999999,0.,-0.866025403784439));
#1637=DIRECTION('center_axis',(0.,-1.,0.));
#1638=DIRECTION('ref_axis',(0.707106781186546,0.,0.707106781186549));
#1639=DIRECTION('center_axis',(-1.,0.,2.16628882853689E-16));
#1640=DIRECTION('ref_axis',(-2.16628882853689E-16,0.,-1.));
#1641=DIRECTION('',(0.,-1.,0.));
#1642=DIRECTION('',(0.,1.,0.));
#1643=DIRECTION('center_axis',(0.,-1.,0.));
#1644=DIRECTION('ref_axis',(0.866025403784439,0.,0.5));
#1645=DIRECTION('',(0.,1.,0.));
#1646=DIRECTION('center_axis',(0.,-1.,0.));
#1647=DIRECTION('ref_axis',(-0.707106781186547,0.,0.707106781186548));
#1648=DIRECTION('',(0.,-1.,0.));
#1649=DIRECTION('center_axis',(0.,1.,0.));
#1650=DIRECTION('ref_axis',(-0.499999999999999,0.,-0.866025403784439));
#1651=DIRECTION('',(0.,1.,0.));
#1652=DIRECTION('center_axis',(2.468876774705E-16,0.,1.));
#1653=DIRECTION('ref_axis',(-1.,0.,2.468876774705E-16));
#1654=DIRECTION('',(0.,-1.,0.));
#1655=DIRECTION('center_axis',(0.,1.,0.));
#1656=DIRECTION('ref_axis',(0.499999999999999,0.,-0.866025403784439));
#1657=DIRECTION('',(0.,1.,0.));
#1658=DIRECTION('center_axis',(0.,-1.,0.));
#1659=DIRECTION('ref_axis',(0.707106781186548,0.,0.707106781186547));
#1660=DIRECTION('',(0.,-1.,0.));
#1661=DIRECTION('center_axis',(0.,1.,0.));
#1662=DIRECTION('ref_axis',(-0.866025403784439,0.,0.499999999999999));
#1663=DIRECTION('',(0.,1.,0.));
#1664=DIRECTION('center_axis',(0.,1.,0.));
#1665=DIRECTION('ref_axis',(0.707106781186548,0.,0.707106781186548));
#1666=DIRECTION('',(0.,1.,0.));
#1667=DIRECTION('',(0.,-1.,0.));
#1668=DIRECTION('center_axis',(-1.,0.,2.25808072805117E-16));
#1669=DIRECTION('ref_axis',(2.25808072805117E-16,0.,1.));
#1670=DIRECTION('',(0.,1.,0.));
#1671=DIRECTION('center_axis',(0.,1.,0.));
#1672=DIRECTION('ref_axis',(0.707106781186546,0.,-0.707106781186549));
#1673=DIRECTION('',(0.,-1.,0.));
#1674=DIRECTION('center_axis',(1.91831192159854E-16,0.,1.));
#1675=DIRECTION('ref_axis',(1.,0.,-1.91831192159854E-16));
#1676=DIRECTION('',(0.,1.,0.));
#1677=DIRECTION('center_axis',(0.,1.,0.));
#1678=DIRECTION('ref_axis',(-0.707106781186549,0.,-0.707106781186546));
#1679=DIRECTION('',(0.,-1.,0.));
#1680=DIRECTION('center_axis',(1.,0.,-2.25808072805116E-16));
#1681=DIRECTION('ref_axis',(-2.25808072805116E-16,0.,-1.));
#1682=DIRECTION('',(0.,1.,0.));
#1683=DIRECTION('center_axis',(0.,1.,0.));
#1684=DIRECTION('ref_axis',(-0.707106781186548,0.,0.707106781186548));
#1685=DIRECTION('',(0.,-1.,0.));
#1686=DIRECTION('center_axis',(-3.19718653599757E-16,0.,-1.));
#1687=DIRECTION('ref_axis',(-1.,0.,3.19718653599757E-16));
#1688=DIRECTION('center_axis',(0.,1.,0.));
#1689=DIRECTION('ref_axis',(0.866025403784439,0.,-0.499999999999999));
#1690=DIRECTION('',(0.,-1.,0.));
#1691=DIRECTION('center_axis',(0.,1.,0.));
#1692=DIRECTION('ref_axis',(-0.499999999999999,0.,0.866025403784439));
#1693=DIRECTION('',(0.,1.,0.));
#1694=DIRECTION('',(0.,-1.,0.));
#1695=DIRECTION('center_axis',(0.,-1.,0.));
#1696=DIRECTION('ref_axis',(-0.707106781186547,0.,-0.707106781186548));
#1697=DIRECTION('center_axis',(0.,1.,0.));
#1698=DIRECTION('ref_axis',(0.499999999999999,0.,0.866025403784439));
#1699=DIRECTION('',(0.,1.,0.));
#1700=DIRECTION('',(0.,-1.,0.));
#1701=DIRECTION('center_axis',(-2.468876774705E-16,0.,-1.));
#1702=DIRECTION('ref_axis',(1.,0.,-2.468876774705E-16));
#1703=DIRECTION('center_axis',(0.,1.,0.));
#1704=DIRECTION('ref_axis',(-0.866025403784438,0.,-0.500000000000001));
#1705=DIRECTION('',(0.,1.,0.));
#1706=DIRECTION('',(0.,-1.,0.));
#1707=DIRECTION('center_axis',(0.,-1.,0.));
#1708=DIRECTION('ref_axis',(0.707106781186548,0.,-0.707106781186548));
#1709=DIRECTION('center_axis',(1.,0.,-2.16628882853689E-16));
#1710=DIRECTION('ref_axis',(2.16628882853689E-16,0.,1.));
#1711=DIRECTION('center_axis',(0.,1.,0.));
#1712=DIRECTION('ref_axis',(0.,0.,1.));
#1713=DIRECTION('center_axis',(0.,1.,0.));
#1714=DIRECTION('ref_axis',(0.,0.,1.));
#1715=DIRECTION('center_axis',(0.,1.,0.));
#1716=DIRECTION('ref_axis',(0.,0.,1.));
#1717=DIRECTION('center_axis',(0.,1.,0.));
#1718=DIRECTION('ref_axis',(0.,0.,1.));
#1719=CARTESIAN_POINT('',(0.,0.,0.));
#1720=CARTESIAN_POINT('Origin',(-71.95,7.5,61.5));
#1721=CARTESIAN_POINT('',(-68.95,8.,61.5));
#1722=CARTESIAN_POINT('Origin',(-71.95,8.,61.5));
#1723=CARTESIAN_POINT('',(-69.95,7.,61.5));
#1724=CARTESIAN_POINT('',(-69.45,7.5,61.5));
#1725=CARTESIAN_POINT('',(-73.95,7.,61.5));
#1726=CARTESIAN_POINT('Origin',(-71.95,7.,61.5));
#1727=CARTESIAN_POINT('Origin',(-71.95,7.,61.5));
#1728=CARTESIAN_POINT('Origin',(0.,8.,0.));
#1729=CARTESIAN_POINT('',(-73.95,8.,58.0358983848623));
#1730=CARTESIAN_POINT('',(-68.4858983848622,8.,63.5));
#1731=CARTESIAN_POINT('Origin',(-71.95,8.,61.5));
#1732=CARTESIAN_POINT('',(-65.0217967697245,8.,61.5));
#1733=CARTESIAN_POINT('Origin',(-65.0217967697245,8.,65.5));
#1734=CARTESIAN_POINT('',(65.0217967697245,8.,61.5));
#1735=CARTESIAN_POINT('',(-71.95,8.,61.5));
#1736=CARTESIAN_POINT('',(68.4858983848623,8.,63.5));
#1737=CARTESIAN_POINT('Origin',(65.0217967697245,8.,65.5));
#1738=CARTESIAN_POINT('',(73.95,8.,58.0358983848622));
#1739=CARTESIAN_POINT('Origin',(71.95,8.,61.5));
#1740=CARTESIAN_POINT('',(71.95,8.,54.5717967697245));
#1741=CARTESIAN_POINT('Origin',(75.95,8.,54.5717967697245));
#1742=CARTESIAN_POINT('',(71.95,8.,-54.5717967697245));
#1743=CARTESIAN_POINT('',(71.95,8.,61.5));
#1744=CARTESIAN_POINT('',(73.95,8.,-58.0358983848623));
#1745=CARTESIAN_POINT('Origin',(75.95,8.,-54.5717967697245));
#1746=CARTESIAN_POINT('',(68.4858983848622,8.,-63.5));
#1747=CARTESIAN_POINT('Origin',(71.95,8.,-61.5));
#1748=CARTESIAN_POINT('',(65.0217967697245,8.,-61.5));
#1749=CARTESIAN_POINT('Origin',(65.0217967697245,8.,-65.5));
#1750=CARTESIAN_POINT('',(-65.0217967697245,8.,-61.5));
#1751=CARTESIAN_POINT('',(71.95,8.,-61.5));
#1752=CARTESIAN_POINT('',(-68.4858983848623,8.,-63.5));
#1753=CARTESIAN_POINT('Origin',(-65.0217967697245,8.,-65.5));
#1754=CARTESIAN_POINT('',(-73.95,8.,-58.0358983848622));
#1755=CARTESIAN_POINT('Origin',(-71.95,8.,-61.5));
#1756=CARTESIAN_POINT('',(-71.95,8.,-54.5717967697245));
#1757=CARTESIAN_POINT('Origin',(-75.95,8.,-54.5717967697245));
#1758=CARTESIAN_POINT('',(-71.95,8.,54.5717967697245));
#1759=CARTESIAN_POINT('',(-71.95,8.,-61.5));
#1760=CARTESIAN_POINT('Origin',(-75.95,8.,54.5717967697245));
#1761=CARTESIAN_POINT('',(74.95,8.,61.5));
#1762=CARTESIAN_POINT('Origin',(71.95,8.,61.5));
#1763=CARTESIAN_POINT('',(-68.95,8.,-61.5));
#1764=CARTESIAN_POINT('Origin',(-71.95,8.,-61.5));
#1765=CARTESIAN_POINT('',(65.45,8.,59.));
#1766=CARTESIAN_POINT('',(-65.45,8.,59.));
#1767=CARTESIAN_POINT('',(69.4500000000001,8.,59.));
#1768=CARTESIAN_POINT('',(-69.45,8.,55.));
#1769=CARTESIAN_POINT('Origin',(-65.45,8.,55.));
#1770=CARTESIAN_POINT('',(-69.45,8.,-55.));
#1771=CARTESIAN_POINT('',(-69.45,8.,59.));
#1772=CARTESIAN_POINT('',(-65.45,8.,-59.));
#1773=CARTESIAN_POINT('Origin',(-65.45,8.,-55.));
#1774=CARTESIAN_POINT('',(65.45,8.,-59.));
#1775=CARTESIAN_POINT('',(-69.45,8.,-59.));
#1776=CARTESIAN_POINT('',(69.45,8.,-55.));
#1777=CARTESIAN_POINT('Origin',(65.45,8.,-55.));
#1778=CARTESIAN_POINT('',(69.4500000000001,8.,55.));
#1779=CARTESIAN_POINT('',(69.45,8.,-59.));
#1780=CARTESIAN_POINT('Origin',(65.45,8.,55.));
#1781=CARTESIAN_POINT('',(74.95,8.,-61.5));
#1782=CARTESIAN_POINT('Origin',(71.95,8.,-61.5));
#1783=CARTESIAN_POINT('Origin',(-71.95,8.,61.5));
#1784=CARTESIAN_POINT('',(-73.95,0.,61.5));
#1785=CARTESIAN_POINT('',(-73.95,8.,61.5));
#1786=CARTESIAN_POINT('Origin',(-71.95,0.,61.5));
#1787=CARTESIAN_POINT('Origin',(71.95,7.5,61.5));
#1788=CARTESIAN_POINT('',(73.95,7.,61.5));
#1789=CARTESIAN_POINT('',(74.45,7.5,61.5));
#1790=CARTESIAN_POINT('',(69.95,7.,61.5));
#1791=CARTESIAN_POINT('Origin',(71.95,7.,61.5));
#1792=CARTESIAN_POINT('Origin',(71.95,7.,61.5));
#1793=CARTESIAN_POINT('Origin',(71.95,8.,61.5));
#1794=CARTESIAN_POINT('',(69.95,0.,61.5));
#1795=CARTESIAN_POINT('',(69.95,8.,61.5));
#1796=CARTESIAN_POINT('Origin',(71.95,0.,61.5));
#1797=CARTESIAN_POINT('Origin',(71.95,7.5,-61.5));
#1798=CARTESIAN_POINT('',(73.95,7.,-61.5));
#1799=CARTESIAN_POINT('',(74.45,7.5,-61.5));
#1800=CARTESIAN_POINT('',(69.95,7.,-61.5));
#1801=CARTESIAN_POINT('Origin',(71.95,7.,-61.5));
#1802=CARTESIAN_POINT('Origin',(71.95,7.,-61.5));
#1803=CARTESIAN_POINT('Origin',(71.95,8.,-61.5));
#1804=CARTESIAN_POINT('',(69.95,0.,-61.5));
#1805=CARTESIAN_POINT('',(69.95,8.,-61.5));
#1806=CARTESIAN_POINT('Origin',(71.95,0.,-61.5));
#1807=CARTESIAN_POINT('Origin',(-71.95,7.5,-61.5));
#1808=CARTESIAN_POINT('',(-69.95,7.,-61.5));
#1809=CARTESIAN_POINT('',(-69.45,7.5,-61.5));
#1810=CARTESIAN_POINT('',(-73.95,7.,-61.5));
#1811=CARTESIAN_POINT('Origin',(-71.95,7.,-61.5));
#1812=CARTESIAN_POINT('Origin',(-71.95,7.,-61.5));
#1813=CARTESIAN_POINT('Origin',(-71.95,8.,-61.5));
#1814=CARTESIAN_POINT('',(-73.95,0.,-61.5));
#1815=CARTESIAN_POINT('',(-73.95,8.,-61.5));
#1816=CARTESIAN_POINT('Origin',(-71.95,0.,-61.5));
#1817=CARTESIAN_POINT('Origin',(9.99999999999999,-2.,-40.));
#1818=CARTESIAN_POINT('',(9.99999999999999,-2.5,-42.25));
#1819=CARTESIAN_POINT('Origin',(9.99999999999999,-2.5,-40.));
#1820=CARTESIAN_POINT('',(9.99999999999999,-2.,-41.75));
#1821=CARTESIAN_POINT('Origin',(9.99999999999999,-2.,-42.25));
#1822=CARTESIAN_POINT('',(11.75,-2.,-40.));
#1823=CARTESIAN_POINT('Origin',(9.99999999999999,-2.,-40.));
#1824=CARTESIAN_POINT('Origin',(9.99999999999999,-2.,-40.));
#1825=CARTESIAN_POINT('Origin',(0.,-2.5,0.));
#1826=CARTESIAN_POINT('',(72.95,-2.5,59.7679491924311));
#1827=CARTESIAN_POINT('',(69.95,-2.5,54.5717967697245));
#1828=CARTESIAN_POINT('Origin',(75.95,-2.5,54.5717967697245));
#1829=CARTESIAN_POINT('',(70.2179491924311,-2.5,62.5));
#1830=CARTESIAN_POINT('Origin',(71.95,-2.5,61.5));
#1831=CARTESIAN_POINT('',(65.0217967697245,-2.5,59.5));
#1832=CARTESIAN_POINT('Origin',(65.0217967697245,-2.5,65.5));
#1833=CARTESIAN_POINT('',(-65.0217967697245,-2.5,59.5));
#1834=CARTESIAN_POINT('',(33.975,-2.5,59.5));
#1835=CARTESIAN_POINT('',(-70.2179491924311,-2.5,62.5));
#1836=CARTESIAN_POINT('Origin',(-65.0217967697245,-2.5,65.5));
#1837=CARTESIAN_POINT('',(-72.95,-2.5,59.7679491924311));
#1838=CARTESIAN_POINT('Origin',(-71.95,-2.5,61.5));
#1839=CARTESIAN_POINT('',(-69.95,-2.5,54.5717967697245));
#1840=CARTESIAN_POINT('Origin',(-75.95,-2.5,54.5717967697245));
#1841=CARTESIAN_POINT('',(-69.95,-2.5,-54.5717967697245));
#1842=CARTESIAN_POINT('',(-69.95,-2.5,28.75));
#1843=CARTESIAN_POINT('',(-72.95,-2.5,-59.7679491924311));
#1844=CARTESIAN_POINT('Origin',(-75.95,-2.5,-54.5717967697245));
#1845=CARTESIAN_POINT('',(-70.2179491924311,-2.5,-62.5));
#1846=CARTESIAN_POINT('Origin',(-71.95,-2.5,-61.5));
#1847=CARTESIAN_POINT('',(-65.0217967697245,-2.5,-59.5));
#1848=CARTESIAN_POINT('Origin',(-65.0217967697245,-2.5,-65.5));
#1849=CARTESIAN_POINT('',(65.0217967697245,-2.5,-59.5));
#1850=CARTESIAN_POINT('',(-33.975,-2.5,-59.5));
#1851=CARTESIAN_POINT('',(70.2179491924311,-2.5,-62.5));
#1852=CARTESIAN_POINT('Origin',(65.0217967697245,-2.5,-65.5));
#1853=CARTESIAN_POINT('',(72.95,-2.5,-59.7679491924312));
#1854=CARTESIAN_POINT('Origin',(71.95,-2.5,-61.5));
#1855=CARTESIAN_POINT('',(69.95,-2.5,-54.5717967697245));
#1856=CARTESIAN_POINT('Origin',(75.95,-2.5,-54.5717967697245));
#1857=CARTESIAN_POINT('',(69.95,-2.5,-28.75));
#1858=CARTESIAN_POINT('',(-10.,-2.5,-42.25));
#1859=CARTESIAN_POINT('Origin',(-10.,-2.5,-40.));
#1860=CARTESIAN_POINT('',(10.,-2.5,37.75));
#1861=CARTESIAN_POINT('Origin',(10.,-2.5,40.));
#1862=CARTESIAN_POINT('',(-9.99999999999999,-2.5,37.75));
#1863=CARTESIAN_POINT('Origin',(-9.99999999999999,-2.5,40.));
#1864=CARTESIAN_POINT('Origin',(9.99999999999999,0.,-40.));
#1865=CARTESIAN_POINT('',(9.99999999999999,-0.5,-38.25));
#1866=CARTESIAN_POINT('',(11.75,-0.5,-40.));
#1867=CARTESIAN_POINT('Origin',(9.99999999999999,-0.5,-40.));
#1868=CARTESIAN_POINT('Origin',(9.99999999999999,-0.5,-40.));
#1869=CARTESIAN_POINT('',(11.75,0.,-40.));
#1870=CARTESIAN_POINT('Origin',(-10.,-2.,-40.));
#1871=CARTESIAN_POINT('',(-10.,-2.,-41.75));
#1872=CARTESIAN_POINT('Origin',(-10.,-2.,-42.25));
#1873=CARTESIAN_POINT('',(-8.25000000000001,-2.,-40.));
#1874=CARTESIAN_POINT('Origin',(-10.,-2.,-40.));
#1875=CARTESIAN_POINT('Origin',(-10.,-2.,-40.));
#1876=CARTESIAN_POINT('Origin',(-10.,0.,-40.));
#1877=CARTESIAN_POINT('',(-10.,-0.5,-38.25));
#1878=CARTESIAN_POINT('',(-8.25000000000001,-0.5,-40.));
#1879=CARTESIAN_POINT('Origin',(-10.,-0.5,-40.));
#1880=CARTESIAN_POINT('Origin',(-10.,-0.5,-40.));
#1881=CARTESIAN_POINT('',(-8.25000000000001,0.,-40.));
#1882=CARTESIAN_POINT('Origin',(-9.99999999999999,-2.,40.));
#1883=CARTESIAN_POINT('',(-9.99999999999999,-2.,38.25));
#1884=CARTESIAN_POINT('Origin',(-9.99999999999999,-2.,37.75));
#1885=CARTESIAN_POINT('',(-8.24999999999999,-2.,40.));
#1886=CARTESIAN_POINT('Origin',(-9.99999999999999,-2.,40.));
#1887=CARTESIAN_POINT('Origin',(-9.99999999999999,-2.,40.));
#1888=CARTESIAN_POINT('Origin',(-9.99999999999999,0.,40.));
#1889=CARTESIAN_POINT('',(-9.99999999999999,-0.5,41.75));
#1890=CARTESIAN_POINT('',(-8.24999999999999,-0.5,40.));
#1891=CARTESIAN_POINT('Origin',(-9.99999999999999,-0.5,40.));
#1892=CARTESIAN_POINT('Origin',(-9.99999999999999,-0.5,40.));
#1893=CARTESIAN_POINT('',(-8.24999999999999,0.,40.));
#1894=CARTESIAN_POINT('Origin',(10.,-2.,40.));
#1895=CARTESIAN_POINT('',(10.,-2.,38.25));
#1896=CARTESIAN_POINT('Origin',(10.,-2.,37.75));
#1897=CARTESIAN_POINT('',(11.75,-2.,40.));
#1898=CARTESIAN_POINT('Origin',(10.,-2.,40.));
#1899=CARTESIAN_POINT('Origin',(10.,-2.,40.));
#1900=CARTESIAN_POINT('Origin',(10.,0.,40.));
#1901=CARTESIAN_POINT('',(10.,-0.5,41.75));
#1902=CARTESIAN_POINT('',(11.75,-0.5,40.));
#1903=CARTESIAN_POINT('Origin',(10.,-0.5,40.));
#1904=CARTESIAN_POINT('Origin',(10.,-0.5,40.));
#1905=CARTESIAN_POINT('',(11.75,0.,40.));
#1906=CARTESIAN_POINT('Origin',(-9.99999999999999,-0.5,40.));
#1907=CARTESIAN_POINT('',(-9.99999999999999,0.,42.25));
#1908=CARTESIAN_POINT('Origin',(-9.99999999999999,0.,40.));
#1909=CARTESIAN_POINT('Origin',(-9.99999999999999,-0.5,42.25));
#1910=CARTESIAN_POINT('Origin',(0.,0.,0.));
#1911=CARTESIAN_POINT('',(65.45,0.,59.));
#1912=CARTESIAN_POINT('',(69.4500000000001,0.,55.));
#1913=CARTESIAN_POINT('Origin',(65.45,0.,55.));
#1914=CARTESIAN_POINT('',(69.45,0.,-55.));
#1915=CARTESIAN_POINT('',(69.45,0.,-29.5));
#1916=CARTESIAN_POINT('',(65.45,0.,-59.));
#1917=CARTESIAN_POINT('Origin',(65.45,0.,-55.));
#1918=CARTESIAN_POINT('',(-65.45,0.,-59.));
#1919=CARTESIAN_POINT('',(-34.725,0.,-59.));
#1920=CARTESIAN_POINT('',(-69.45,0.,-55.));
#1921=CARTESIAN_POINT('Origin',(-65.45,0.,-55.));
#1922=CARTESIAN_POINT('',(-69.45,0.,55.));
#1923=CARTESIAN_POINT('',(-69.45,0.,29.5));
#1924=CARTESIAN_POINT('',(-65.45,0.,59.));
#1925=CARTESIAN_POINT('Origin',(-65.45,0.,55.));
#1926=CARTESIAN_POINT('',(34.725,0.,59.));
#1927=CARTESIAN_POINT('',(10.,0.,42.25));
#1928=CARTESIAN_POINT('Origin',(10.,0.,40.));
#1929=CARTESIAN_POINT('',(-10.,0.,-37.75));
#1930=CARTESIAN_POINT('Origin',(-10.,0.,-40.));
#1931=CARTESIAN_POINT('',(9.99999999999999,0.,-37.75));
#1932=CARTESIAN_POINT('Origin',(9.99999999999999,0.,-40.));
#1933=CARTESIAN_POINT('Origin',(10.,-0.5,40.));
#1934=CARTESIAN_POINT('Origin',(10.,-0.5,42.25));
#1935=CARTESIAN_POINT('Origin',(9.99999999999999,-0.5,-40.));
#1936=CARTESIAN_POINT('Origin',(9.99999999999999,-0.5,-37.75));
#1937=CARTESIAN_POINT('Origin',(-10.,-0.5,-40.));
#1938=CARTESIAN_POINT('Origin',(-10.,-0.5,-37.75));
#1939=CARTESIAN_POINT('Origin',(75.95,-0.5,54.5717967697245));
#1940=CARTESIAN_POINT('',(73.95,-0.5,58.0358983848622));
#1941=CARTESIAN_POINT('Origin',(72.95,-0.5,59.7679491924311));
#1942=CARTESIAN_POINT('',(71.95,-0.5,54.5717967697245));
#1943=CARTESIAN_POINT('Origin',(69.95,-0.5,54.5717967697245));
#1944=CARTESIAN_POINT('Origin',(75.95,-0.5,54.5717967697245));
#1945=CARTESIAN_POINT('Origin',(69.95,-0.5,-28.75));
#1946=CARTESIAN_POINT('',(71.95,-0.5,-54.5717967697245));
#1947=CARTESIAN_POINT('Origin',(69.95,-0.5,-54.5717967697245));
#1948=CARTESIAN_POINT('',(71.95,-0.5,-28.75));
#1949=CARTESIAN_POINT('Origin',(75.95,-0.5,-54.5717967697245));
#1950=CARTESIAN_POINT('',(73.95,-0.5,-58.0358983848623));
#1951=CARTESIAN_POINT('Origin',(72.95,-0.5,-59.7679491924312));
#1952=CARTESIAN_POINT('Origin',(75.95,-0.5,-54.5717967697245));
#1953=CARTESIAN_POINT('Ctrl Pts',(68.4858983848622,-0.5,-63.5));
#1954=CARTESIAN_POINT('Ctrl Pts',(69.8863134612816,-0.5,-65.9255900640439));
#1955=CARTESIAN_POINT('Ctrl Pts',(72.6445927106677,-0.5,-65.4392310120489));
#1956=CARTESIAN_POINT('Ctrl Pts',(75.4028719600538,-0.5,-64.9528719600538));
#1957=CARTESIAN_POINT('Ctrl Pts',(75.8892310120488,-0.5,-62.1945927106677));
#1958=CARTESIAN_POINT('Ctrl Pts',(76.3755900640439,-0.5,-59.4363134612817));
#1959=CARTESIAN_POINT('Ctrl Pts',(73.95,-0.5,-58.0358983848623));
#1960=CARTESIAN_POINT('Ctrl Pts',(68.4858983848622,-2.50000000000001,-63.5));
#1961=CARTESIAN_POINT('Ctrl Pts',(69.8863134612816,-2.50000000000001,-65.9255900640439));
#1962=CARTESIAN_POINT('Ctrl Pts',(72.6445927106677,-2.50000000000001,-65.4392310120489));
#1963=CARTESIAN_POINT('Ctrl Pts',(75.4028719600538,-2.50000000000001,-64.9528719600538));
#1964=CARTESIAN_POINT('Ctrl Pts',(75.8892310120488,-2.50000000000001,-62.1945927106677));
#1965=CARTESIAN_POINT('Ctrl Pts',(76.3755900640439,-2.50000000000001,-59.4363134612817));
#1966=CARTESIAN_POINT('Ctrl Pts',(73.95,-2.50000000000001,-58.0358983848623));
#1967=CARTESIAN_POINT('Ctrl Pts',(70.2179491924311,-2.5,-62.5));
#1968=CARTESIAN_POINT('Ctrl Pts',(70.9181567306408,-2.5,-63.712795032022));
#1969=CARTESIAN_POINT('Ctrl Pts',(72.2972963553339,-2.5,-63.4696155060244));
#1970=CARTESIAN_POINT('Ctrl Pts',(73.6764359800269,-2.5,-63.2264359800269));
#1971=CARTESIAN_POINT('Ctrl Pts',(73.9196155060244,-2.5,-61.8472963553339));
#1972=CARTESIAN_POINT('Ctrl Pts',(74.1627950320219,-2.5,-60.4681567306409));
#1973=CARTESIAN_POINT('Ctrl Pts',(72.95,-2.5,-59.7679491924312));
#1974=CARTESIAN_POINT('',(68.4858983848622,-0.5,-63.5));
#1975=CARTESIAN_POINT('Origin',(70.2179491924311,-0.5,-62.5));
#1976=CARTESIAN_POINT('Origin',(71.95,-0.5,-61.5));
#1977=CARTESIAN_POINT('Origin',(65.0217967697245,-0.5,-65.5));
#1978=CARTESIAN_POINT('',(65.0217967697245,-0.5,-61.5));
#1979=CARTESIAN_POINT('Origin',(65.0217967697245,-0.5,-59.5));
#1980=CARTESIAN_POINT('Origin',(65.0217967697245,-0.5,-65.5));
#1981=CARTESIAN_POINT('Origin',(-33.975,-0.5,-59.5));
#1982=CARTESIAN_POINT('',(-65.0217967697245,-0.5,-61.5));
#1983=CARTESIAN_POINT('Origin',(-65.0217967697245,-0.5,-59.5));
#1984=CARTESIAN_POINT('',(-33.975,-0.5,-61.5));
#1985=CARTESIAN_POINT('Origin',(-65.0217967697245,-0.5,-65.5));
#1986=CARTESIAN_POINT('',(-68.4858983848623,-0.5,-63.5));
#1987=CARTESIAN_POINT('Origin',(-70.2179491924311,-0.5,-62.5));
#1988=CARTESIAN_POINT('Origin',(-65.0217967697245,-0.5,-65.5));
#1989=CARTESIAN_POINT('Ctrl Pts',(-73.95,-0.5,-58.0358983848622));
#1990=CARTESIAN_POINT('Ctrl Pts',(-76.3755900640439,-0.5,-59.4363134612816));
#1991=CARTESIAN_POINT('Ctrl Pts',(-75.8892310120489,-0.5,-62.1945927106677));
#1992=CARTESIAN_POINT('Ctrl Pts',(-75.4028719600538,-0.5,-64.9528719600538));
#1993=CARTESIAN_POINT('Ctrl Pts',(-72.6445927106677,-0.5,-65.4392310120488));
#1994=CARTESIAN_POINT('Ctrl Pts',(-69.8863134612817,-0.5,-65.9255900640439));
#1995=CARTESIAN_POINT('Ctrl Pts',(-68.4858983848623,-0.5,-63.5));
#1996=CARTESIAN_POINT('Ctrl Pts',(-73.95,-2.5,-58.0358983848622));
#1997=CARTESIAN_POINT('Ctrl Pts',(-76.3755900640439,-2.5,-59.4363134612816));
#1998=CARTESIAN_POINT('Ctrl Pts',(-75.8892310120489,-2.5,-62.1945927106677));
#1999=CARTESIAN_POINT('Ctrl Pts',(-75.4028719600538,-2.5,-64.9528719600538));
#2000=CARTESIAN_POINT('Ctrl Pts',(-72.6445927106677,-2.5,-65.4392310120488));
#2001=CARTESIAN_POINT('Ctrl Pts',(-69.8863134612817,-2.5,-65.9255900640439));
#2002=CARTESIAN_POINT('Ctrl Pts',(-68.4858983848623,-2.5,-63.5));
#2003=CARTESIAN_POINT('Ctrl Pts',(-72.95,-2.5,-59.7679491924311));
#2004=CARTESIAN_POINT('Ctrl Pts',(-74.162795032022,-2.5,-60.4681567306408));
#2005=CARTESIAN_POINT('Ctrl Pts',(-73.9196155060244,-2.5,-61.8472963553339));
#2006=CARTESIAN_POINT('Ctrl Pts',(-73.6764359800269,-2.5,-63.2264359800269));
#2007=CARTESIAN_POINT('Ctrl Pts',(-72.2972963553339,-2.5,-63.4696155060244));
#2008=CARTESIAN_POINT('Ctrl Pts',(-70.9181567306408,-2.5,-63.7127950320219));
#2009=CARTESIAN_POINT('Ctrl Pts',(-70.2179491924311,-2.5,-62.5));
#2010=CARTESIAN_POINT('',(-73.95,-0.5,-58.0358983848622));
#2011=CARTESIAN_POINT('Origin',(-72.95,-0.5,-59.7679491924311));
#2012=CARTESIAN_POINT('Origin',(-71.95,-0.5,-61.5));
#2013=CARTESIAN_POINT('Origin',(-75.95,-0.5,-54.5717967697245));
#2014=CARTESIAN_POINT('',(-71.95,-0.5,-54.5717967697245));
#2015=CARTESIAN_POINT('Origin',(-69.95,-0.5,-54.5717967697245));
#2016=CARTESIAN_POINT('Origin',(-75.95,-0.5,-54.5717967697245));
#2017=CARTESIAN_POINT('Origin',(-69.95,-0.5,28.75));
#2018=CARTESIAN_POINT('',(-71.95,-0.5,54.5717967697245));
#2019=CARTESIAN_POINT('Origin',(-69.95,-0.5,54.5717967697245));
#2020=CARTESIAN_POINT('',(-71.95,-0.5,28.75));
#2021=CARTESIAN_POINT('Origin',(-75.95,-0.5,54.5717967697245));
#2022=CARTESIAN_POINT('',(-73.95,-0.5,58.0358983848623));
#2023=CARTESIAN_POINT('Origin',(-72.95,-0.5,59.7679491924311));
#2024=CARTESIAN_POINT('Origin',(-75.95,-0.5,54.5717967697245));
#2025=CARTESIAN_POINT('Ctrl Pts',(-68.4858983848622,-0.5,63.5));
#2026=CARTESIAN_POINT('Ctrl Pts',(-69.8863134612817,-0.5,65.9255900640439));
#2027=CARTESIAN_POINT('Ctrl Pts',(-72.6445927106677,-0.5,65.4392310120489));
#2028=CARTESIAN_POINT('Ctrl Pts',(-75.4028719600538,-0.5,64.9528719600538));
#2029=CARTESIAN_POINT('Ctrl Pts',(-75.8892310120488,-0.5,62.1945927106677));
#2030=CARTESIAN_POINT('Ctrl Pts',(-76.3755900640439,-0.5,59.4363134612817));
#2031=CARTESIAN_POINT('Ctrl Pts',(-73.95,-0.5,58.0358983848623));
#2032=CARTESIAN_POINT('Ctrl Pts',(-68.4858983848622,-2.5,63.5));
#2033=CARTESIAN_POINT('Ctrl Pts',(-69.8863134612817,-2.5,65.9255900640439));
#2034=CARTESIAN_POINT('Ctrl Pts',(-72.6445927106677,-2.5,65.4392310120489));
#2035=CARTESIAN_POINT('Ctrl Pts',(-75.4028719600538,-2.5,64.9528719600538));
#2036=CARTESIAN_POINT('Ctrl Pts',(-75.8892310120488,-2.5,62.1945927106677));
#2037=CARTESIAN_POINT('Ctrl Pts',(-76.3755900640439,-2.5,59.4363134612817));
#2038=CARTESIAN_POINT('Ctrl Pts',(-73.95,-2.5,58.0358983848623));
#2039=CARTESIAN_POINT('Ctrl Pts',(-70.2179491924311,-2.5,62.5));
#2040=CARTESIAN_POINT('Ctrl Pts',(-70.9181567306408,-2.5,63.712795032022));
#2041=CARTESIAN_POINT('Ctrl Pts',(-72.2972963553339,-2.5,63.4696155060244));
#2042=CARTESIAN_POINT('Ctrl Pts',(-73.6764359800269,-2.5,63.2264359800269));
#2043=CARTESIAN_POINT('Ctrl Pts',(-73.9196155060244,-2.5,61.8472963553339));
#2044=CARTESIAN_POINT('Ctrl Pts',(-74.1627950320219,-2.5,60.4681567306408));
#2045=CARTESIAN_POINT('Ctrl Pts',(-72.95,-2.5,59.7679491924311));
#2046=CARTESIAN_POINT('',(-68.4858983848622,-0.5,63.5));
#2047=CARTESIAN_POINT('Origin',(-70.2179491924311,-0.5,62.5));
#2048=CARTESIAN_POINT('Origin',(-71.95,-0.5,61.5));
#2049=CARTESIAN_POINT('Origin',(-65.0217967697245,-0.5,65.5));
#2050=CARTESIAN_POINT('',(-65.0217967697245,-0.5,61.5));
#2051=CARTESIAN_POINT('Origin',(-65.0217967697245,-0.5,59.5));
#2052=CARTESIAN_POINT('Origin',(-65.0217967697245,-0.5,65.5));
#2053=CARTESIAN_POINT('Origin',(33.975,-0.5,59.5));
#2054=CARTESIAN_POINT('',(65.0217967697245,-0.5,61.5));
#2055=CARTESIAN_POINT('Origin',(65.0217967697245,-0.5,59.5));
#2056=CARTESIAN_POINT('',(33.975,-0.5,61.5));
#2057=CARTESIAN_POINT('Origin',(65.0217967697245,-0.5,65.5));
#2058=CARTESIAN_POINT('',(68.4858983848623,-0.5,63.5));
#2059=CARTESIAN_POINT('Origin',(70.2179491924311,-0.5,62.5));
#2060=CARTESIAN_POINT('Origin',(65.0217967697245,-0.5,65.5));
#2061=CARTESIAN_POINT('Ctrl Pts',(73.95,-0.5,58.0358983848622));
#2062=CARTESIAN_POINT('Ctrl Pts',(76.3755900640439,-0.5,59.4363134612816));
#2063=CARTESIAN_POINT('Ctrl Pts',(75.8892310120489,-0.5,62.1945927106677));
#2064=CARTESIAN_POINT('Ctrl Pts',(75.4028719600538,-0.5,64.9528719600538));
#2065=CARTESIAN_POINT('Ctrl Pts',(72.6445927106677,-0.5,65.4392310120488));
#2066=CARTESIAN_POINT('Ctrl Pts',(69.8863134612817,-0.5,65.9255900640439));
#2067=CARTESIAN_POINT('Ctrl Pts',(68.4858983848623,-0.5,63.5));
#2068=CARTESIAN_POINT('Ctrl Pts',(73.95,-2.5,58.0358983848622));
#2069=CARTESIAN_POINT('Ctrl Pts',(76.3755900640439,-2.5,59.4363134612816));
#2070=CARTESIAN_POINT('Ctrl Pts',(75.8892310120489,-2.5,62.1945927106677));
#2071=CARTESIAN_POINT('Ctrl Pts',(75.4028719600538,-2.5,64.9528719600538));
#2072=CARTESIAN_POINT('Ctrl Pts',(72.6445927106677,-2.5,65.4392310120488));
#2073=CARTESIAN_POINT('Ctrl Pts',(69.8863134612817,-2.5,65.9255900640439));
#2074=CARTESIAN_POINT('Ctrl Pts',(68.4858983848623,-2.5,63.5));
#2075=CARTESIAN_POINT('Ctrl Pts',(72.95,-2.5,59.7679491924311));
#2076=CARTESIAN_POINT('Ctrl Pts',(74.162795032022,-2.5,60.4681567306408));
#2077=CARTESIAN_POINT('Ctrl Pts',(73.9196155060244,-2.5,61.8472963553338));
#2078=CARTESIAN_POINT('Ctrl Pts',(73.6764359800269,-2.5,63.2264359800269));
#2079=CARTESIAN_POINT('Ctrl Pts',(72.2972963553339,-2.5,63.4696155060244));
#2080=CARTESIAN_POINT('Ctrl Pts',(70.9181567306408,-2.5,63.7127950320219));
#2081=CARTESIAN_POINT('Ctrl Pts',(70.2179491924311,-2.5,62.5));
#2082=CARTESIAN_POINT('Origin',(71.95,-0.5,61.5));
#2083=CARTESIAN_POINT('Origin',(-71.95,0.,57.5));
#2084=CARTESIAN_POINT('',(-71.95,0.,54.5717967697245));
#2085=CARTESIAN_POINT('',(-71.95,0.,-54.5717967697245));
#2086=CARTESIAN_POINT('Origin',(-75.95,0.,54.5717967697245));
#2087=CARTESIAN_POINT('',(-73.95,0.,58.0358983848623));
#2088=CARTESIAN_POINT('Origin',(-71.95,0.,61.5));
#2089=CARTESIAN_POINT('',(-68.4858983848622,0.,63.5));
#2090=CARTESIAN_POINT('Origin',(-65.0217967697245,0.,65.5));
#2091=CARTESIAN_POINT('',(-65.0217967697245,0.,61.5));
#2092=CARTESIAN_POINT('Origin',(67.95,0.,61.5));
#2093=CARTESIAN_POINT('',(65.0217967697245,0.,61.5));
#2094=CARTESIAN_POINT('Origin',(65.0217967697245,0.,65.5));
#2095=CARTESIAN_POINT('',(68.4858983848623,0.,63.5));
#2096=CARTESIAN_POINT('Origin',(71.95,0.,61.5));
#2097=CARTESIAN_POINT('',(73.95,0.,58.0358983848622));
#2098=CARTESIAN_POINT('Origin',(75.95,0.,54.5717967697245));
#2099=CARTESIAN_POINT('',(71.95,0.,54.5717967697245));
#2100=CARTESIAN_POINT('Origin',(65.45,0.,55.));
#2101=CARTESIAN_POINT('',(65.45,0.,59.));
#2102=CARTESIAN_POINT('',(69.4500000000001,0.,55.));
#2103=CARTESIAN_POINT('Origin',(69.45,0.,-59.));
#2104=CARTESIAN_POINT('',(69.45,0.,-55.));
#2105=CARTESIAN_POINT('Origin',(65.45,0.,-55.));
#2106=CARTESIAN_POINT('',(65.45,0.,-59.));
#2107=CARTESIAN_POINT('Origin',(-69.45,0.,-59.));
#2108=CARTESIAN_POINT('',(-65.45,0.,-59.));
#2109=CARTESIAN_POINT('Origin',(-65.45,0.,-55.));
#2110=CARTESIAN_POINT('',(-69.45,0.,-55.));
#2111=CARTESIAN_POINT('Origin',(-69.45,0.,59.));
#2112=CARTESIAN_POINT('',(-69.45,0.,55.));
#2113=CARTESIAN_POINT('Origin',(-65.45,0.,55.));
#2114=CARTESIAN_POINT('',(-65.45,0.,59.));
#2115=CARTESIAN_POINT('Origin',(69.4500000000001,0.,59.));
#2116=CARTESIAN_POINT('Origin',(-75.95,0.,-54.5717967697245));
#2117=CARTESIAN_POINT('',(-73.95,0.,-58.0358983848622));
#2118=CARTESIAN_POINT('Origin',(-65.0217967697245,0.,-65.5));
#2119=CARTESIAN_POINT('',(-68.4858983848623,0.,-63.5));
#2120=CARTESIAN_POINT('',(-65.0217967697245,0.,-61.5));
#2121=CARTESIAN_POINT('Origin',(-71.95,0.,-61.5));
#2122=CARTESIAN_POINT('Origin',(65.0217967697245,0.,-65.5));
#2123=CARTESIAN_POINT('',(65.0217967697245,0.,-61.5));
#2124=CARTESIAN_POINT('',(68.4858983848622,0.,-63.5));
#2125=CARTESIAN_POINT('Origin',(-67.95,0.,-61.5));
#2126=CARTESIAN_POINT('Origin',(75.95,0.,-54.5717967697245));
#2127=CARTESIAN_POINT('',(73.95,0.,-58.0358983848623));
#2128=CARTESIAN_POINT('',(71.95,0.,-54.5717967697245));
#2129=CARTESIAN_POINT('Origin',(71.95,0.,-61.5));
#2130=CARTESIAN_POINT('Origin',(71.95,0.,-57.5000000000001));
#2131=CARTESIAN_POINT('Origin',(71.95,0.,-61.5));
#2132=CARTESIAN_POINT('Origin',(-71.95,0.,-61.5));
#2133=CARTESIAN_POINT('Origin',(71.95,0.,61.5));
#2134=CARTESIAN_POINT('Origin',(-71.95,0.,61.5));
#2135=UNCERTAINTY_MEASURE_WITH_UNIT(LENGTH_MEASURE(0.01),#2139,
'DISTANCE_ACCURACY_VALUE',
'Maximum model space distance between geometric entities at asserted c
onnectivities');
#2136=UNCERTAINTY_MEASURE_WITH_UNIT(LENGTH_MEASURE(0.01),#2139,
'DISTANCE_ACCURACY_VALUE',
'Maximum model space distance between geometric entities at asserted c
onnectivities');
#2137=(
GEOMETRIC_REPRESENTATION_CONTEXT(3)
GLOBAL_UNCERTAINTY_ASSIGNED_CONTEXT((#2135))
GLOBAL_UNIT_ASSIGNED_CONTEXT((#2139,#2141,#2142))
REPRESENTATION_CONTEXT('','3D')
);
#2138=(
GEOMETRIC_REPRESENTATION_CONTEXT(3)
GLOBAL_UNCERTAINTY_ASSIGNED_CONTEXT((#2136))
GLOBAL_UNIT_ASSIGNED_CONTEXT((#2139,#2141,#2142))
REPRESENTATION_CONTEXT('','3D')
);
#2139=(
LENGTH_UNIT()
NAMED_UNIT(*)
SI_UNIT(.MILLI.,.METRE.)
);
#2140=(
LENGTH_UNIT()
NAMED_UNIT(*)
SI_UNIT(.CENTI.,.METRE.)
);
#2141=(
NAMED_UNIT(*)
PLANE_ANGLE_UNIT()
SI_UNIT($,.RADIAN.)
);
#2142=(
NAMED_UNIT(*)
SI_UNIT($,.STERADIAN.)
SOLID_ANGLE_UNIT()
);
#2143=SHAPE_DEFINITION_REPRESENTATION(#2144,#2145);
#2144=PRODUCT_DEFINITION_SHAPE('',$,#2147);
#2145=SHAPE_REPRESENTATION('',(#1147),#2137);
#2146=PRODUCT_DEFINITION_CONTEXT('part definition',#2151,'design');
#2147=PRODUCT_DEFINITION('Boden','Boden',#2148,#2146);
#2148=PRODUCT_DEFINITION_FORMATION('',$,#2153);
#2149=PRODUCT_RELATED_PRODUCT_CATEGORY('Boden','Boden',(#2153));
#2150=APPLICATION_PROTOCOL_DEFINITION('international standard',
'automotive_design',2009,#2151);
#2151=APPLICATION_CONTEXT(
'Core Data for Automotive Mechanical Design Process');
#2152=PRODUCT_CONTEXT('part definition',#2151,'mechanical');
#2153=PRODUCT('Boden','Boden',$,(#2152));
#2154=PRESENTATION_STYLE_ASSIGNMENT((#2155));
#2155=SURFACE_STYLE_USAGE(.BOTH.,#2158);
#2156=SURFACE_STYLE_RENDERING_WITH_PROPERTIES($,#2162,(#2157));
#2157=SURFACE_STYLE_TRANSPARENT(0.);
#2158=SURFACE_SIDE_STYLE('',(#2159,#2156));
#2159=SURFACE_STYLE_FILL_AREA(#2160);
#2160=FILL_AREA_STYLE('',(#2161));
#2161=FILL_AREA_STYLE_COLOUR('',#2162);
#2162=COLOUR_RGB('',0.250980392156863,0.250980392156863,0.250980392156863);
ENDSEC;
END-ISO-10303-21;
